<svg width="60" height="60" viewBox="0 0 60 60" fill="none" xmlns="http://www.w3.org/2000/svg">
<path d="M30.3125 33.3438C28.65 32.4688 26.9937 31.5875 25.3312 30.7125C22.7 29.325 20.0687 27.9313 17.4375 26.5438C16.8375 26.225 16.2312 25.9063 15.6312 25.5875C15.7375 25.7688 15.8375 25.95 15.9437 26.125C15.9437 24.3813 15.9437 22.6375 15.9437 20.9C15.9437 18.1188 15.9437 15.3375 15.9437 12.5563C15.9437 11.9125 15.9437 11.2688 15.9437 10.6313C15.6312 10.8125 15.3187 10.9938 15.0062 11.1688C16.6687 12.0438 18.325 12.925 19.9875 13.8C22.6187 15.1938 25.25 16.5813 27.8812 17.975C28.4812 18.2938 29.0875 18.6125 29.6875 18.9313C29.5812 18.75 29.4812 18.5688 29.375 18.3938C29.375 20.1375 29.375 21.8813 29.375 23.6188C29.375 26.4 29.375 29.1813 29.375 31.9563C29.375 32.6 29.375 33.2375 29.375 33.8813C29.375 34.6875 30.625 34.6875 30.625 33.8813C30.625 32.1375 30.625 30.3938 30.625 28.6563C30.625 25.875 30.625 23.0938 30.625 20.3188C30.625 19.675 30.625 19.0375 30.625 18.3938C30.625 18.1813 30.5062 17.9563 30.3125 17.8563C28.65 16.9813 26.9937 16.1 25.3312 15.225C22.7 13.8313 20.0687 12.4438 17.4375 11.05C16.8375 10.7313 16.2312 10.4125 15.6312 10.0938C15.2187 9.87501 14.6937 10.1438 14.6937 10.6313C14.6937 12.375 14.6937 14.1188 14.6937 15.8563C14.6937 18.6375 14.6937 21.4188 14.6937 24.2C14.6937 24.8438 14.6937 25.4875 14.6937 26.125C14.6937 26.3375 14.8125 26.5625 15.0062 26.6625C16.6687 27.5375 18.325 28.4188 19.9875 29.2938C22.6187 30.6813 25.25 32.075 27.8812 33.4625C28.4812 33.7813 29.0875 34.1 29.6875 34.4188C30.3937 34.7938 31.025 33.7188 30.3125 33.3438Z" fill="black"/>
<path d="M44.375 25.5875C42.7125 26.4625 41.0562 27.3438 39.3937 28.2188C36.7625 29.6063 34.125 31 31.4938 32.3875C30.8938 32.7063 30.2875 33.025 29.6875 33.3438C30 33.525 30.3125 33.7063 30.625 33.8813C30.625 32.1375 30.625 30.3938 30.625 28.6563C30.625 25.875 30.625 23.0938 30.625 20.3188C30.625 19.675 30.625 19.0375 30.625 18.3938C30.5187 18.575 30.4188 18.7563 30.3125 18.9313C31.975 18.0563 33.6313 17.175 35.2938 16.3C37.925 14.9063 40.5625 13.5188 43.1937 12.125C43.7937 11.8063 44.4 11.4875 45 11.1688C44.6875 10.9875 44.375 10.8063 44.0625 10.6313C44.0625 12.375 44.0625 14.1188 44.0625 15.8563C44.0625 18.6375 44.0625 21.4188 44.0625 24.2C44.0625 24.8438 44.0625 25.4875 44.0625 26.125C44.0625 26.9313 45.3125 26.9313 45.3125 26.125C45.3125 24.3813 45.3125 22.6375 45.3125 20.9C45.3125 18.1188 45.3125 15.3375 45.3125 12.5563C45.3125 11.9125 45.3125 11.2688 45.3125 10.6313C45.3125 10.1438 44.7875 9.87501 44.375 10.0938C42.7125 10.9688 41.0562 11.85 39.3937 12.725C36.7625 14.1188 34.125 15.5063 31.4938 16.9C30.8938 17.2188 30.2875 17.5375 29.6875 17.8563C29.4938 17.9563 29.375 18.1813 29.375 18.3938C29.375 20.1375 29.375 21.8813 29.375 23.6188C29.375 26.4 29.375 29.1813 29.375 31.9563C29.375 32.6 29.375 33.2375 29.375 33.8813C29.375 34.3688 29.9 34.6375 30.3125 34.4188C31.975 33.5438 33.6313 32.6625 35.2938 31.7875C37.925 30.4 40.5625 29.0063 43.1937 27.6188C43.7937 27.3 44.4 26.9813 45 26.6625C45.7125 26.2875 45.0813 25.2063 44.375 25.5875Z" fill="black"/>
<path d="M44.375 10.0875C42.7125 10.9625 41.0562 11.8438 39.3937 12.7188C36.7624 14.1125 34.125 15.5 31.4937 16.8937C30.8937 17.2125 30.2875 17.5312 29.6875 17.85C29.9 17.85 30.1062 17.85 30.3187 17.85C28.6562 16.975 27 16.0938 25.3375 15.2188C22.7062 13.825 20.075 12.4375 17.4437 11.0437C16.8437 10.725 16.2375 10.4062 15.6375 10.0875C15.6375 10.45 15.6375 10.8062 15.6375 11.1687C17.3 10.2937 18.9562 9.41875 20.6187 8.5375C23.25 7.15 25.8812 5.75625 28.5125 4.36875C29.1125 4.05 29.7187 3.73125 30.3187 3.4125C30.1062 3.4125 29.9 3.4125 29.6875 3.4125C31.35 4.2875 33.0062 5.1625 34.6687 6.04375C37.3 7.43125 39.9374 8.825 42.5687 10.2125C43.1687 10.5312 43.775 10.85 44.375 11.1687C45.0875 11.5437 45.7187 10.4625 45.0062 10.0875C43.3312 9.2 41.6499 8.31875 39.9749 7.43125C37.3437 6.0375 34.7062 4.65 32.075 3.25625C31.5 2.95 30.925 2.625 30.3375 2.3375C30 2.175 29.7624 2.2875 29.4874 2.4375C29.1874 2.59375 28.8875 2.75 28.5937 2.9125C26.0812 4.2375 23.575 5.5625 21.0625 6.8875C19.0812 7.9375 17.0625 8.9375 15.1062 10.0312C15.075 10.05 15.0437 10.0625 15.0125 10.0813C14.6062 10.2937 14.6062 10.9438 15.0125 11.1625C16.6875 12.05 18.3687 12.9375 20.0437 13.8188C22.675 15.2125 25.3125 16.6 27.9437 17.9937C28.5187 18.3 29.0937 18.625 29.6812 18.9125C30.0187 19.075 30.2562 18.9625 30.5374 18.8125C30.8374 18.6562 31.1375 18.4937 31.4312 18.3375C33.9437 17.0125 36.45 15.6875 38.9625 14.3563C40.9437 13.3063 42.9625 12.3062 44.9187 11.2125C44.95 11.1937 44.9812 11.1813 45.0125 11.1625C45.7125 10.7938 45.0812 9.7125 44.375 10.0875Z" fill="black"/>
<path d="M37.0249 6.21251C35.3687 7.08751 33.7062 7.96876 32.0499 8.84376C29.4187 10.2375 26.7874 11.625 24.1562 13.0188C23.5562 13.3375 22.9499 13.6563 22.3499 13.975C21.6374 14.35 22.2687 15.4313 22.9812 15.0563C24.6374 14.1813 26.2999 13.3 27.9562 12.425C30.5874 11.0313 33.2187 9.64376 35.8499 8.25001C36.4499 7.93126 37.0562 7.61251 37.6562 7.29376C38.3687 6.91876 37.7374 5.83751 37.0249 6.21251Z" fill="black"/>
<path d="M15.625 56.5875C13.9687 55.7125 12.3062 54.8375 10.65 53.9625C8.0187 52.575 5.38745 51.1812 2.7562 49.7937C2.1562 49.475 1.54995 49.1562 0.949951 48.8375C1.0562 49.0187 1.1562 49.2 1.26245 49.375C1.26245 47.6312 1.26245 45.8937 1.26245 44.15C1.26245 41.3687 1.26245 38.5937 1.26245 35.8125C1.26245 35.1687 1.26245 34.5312 1.26245 33.8875C0.949951 34.0687 0.637451 34.25 0.324951 34.425C1.9812 35.3 3.6437 36.1812 5.29995 37.0562C7.9312 38.45 10.5625 39.8375 13.1937 41.2312C13.7937 41.55 14.4 41.8687 15 42.1875C14.8937 42.0062 14.7937 41.825 14.6875 41.65C14.6875 43.3937 14.6875 45.1312 14.6875 46.875C14.6875 49.65 14.6875 52.4312 14.6875 55.2062C14.6875 55.85 14.6875 56.4875 14.6875 57.1312C14.6875 57.9375 15.9375 57.9375 15.9375 57.1312C15.9375 55.3875 15.9375 53.65 15.9375 51.9062C15.9375 49.1312 15.9375 46.35 15.9375 43.575C15.9375 42.9312 15.9375 42.2937 15.9375 41.65C15.9375 41.4375 15.8187 41.2125 15.625 41.1125C13.9687 40.2375 12.3062 39.3562 10.65 38.4812C8.0187 37.0875 5.38745 35.7 2.7562 34.3062C2.1562 33.9875 1.54995 33.6687 0.949951 33.35C0.537451 33.1312 0.0124512 33.4 0.0124512 33.8875C0.0124512 35.6312 0.0124512 37.3687 0.0124512 39.1125C0.0124512 41.8937 0.0124512 44.6687 0.0124512 47.45C0.0124512 48.0937 0.0124512 48.7312 0.0124512 49.375C0.0124512 49.5875 0.131201 49.8125 0.324951 49.9125C1.9812 50.7875 3.6437 51.6625 5.29995 52.5375C7.9312 53.925 10.5625 55.3187 13.1937 56.7062C13.7937 57.025 14.4 57.3437 15 57.6625C15.7062 58.0437 16.3375 56.9625 15.625 56.5875Z" fill="black"/>
<path d="M29.6875 48.8375C28.025 49.7125 26.3687 50.5875 24.7062 51.4625C22.075 52.85 19.4375 54.2438 16.8062 55.6313C16.2062 55.95 15.6 56.2688 15 56.5875C15.3125 56.7688 15.625 56.95 15.9375 57.125C15.9375 55.3813 15.9375 53.6438 15.9375 51.9C15.9375 49.125 15.9375 46.3438 15.9375 43.5688C15.9375 42.925 15.9375 42.2875 15.9375 41.6438C15.8312 41.825 15.7313 42.0063 15.625 42.1813C17.2875 41.3063 18.9438 40.425 20.6063 39.55C23.2375 38.1563 25.875 36.7688 28.5063 35.375C29.1063 35.0563 29.7125 34.7375 30.3125 34.4188C30 34.2375 29.6875 34.0563 29.375 33.8813C29.375 35.625 29.375 37.3688 29.375 39.1063C29.375 41.8875 29.375 44.6688 29.375 47.45C29.375 48.0938 29.375 48.7375 29.375 49.375C29.375 50.1813 30.625 50.1813 30.625 49.375C30.625 47.6313 30.625 45.8875 30.625 44.15C30.625 41.3688 30.625 38.5875 30.625 35.8063C30.625 35.1625 30.625 34.5188 30.625 33.8813C30.625 33.3938 30.1 33.125 29.6875 33.3438C28.025 34.2188 26.3687 35.1 24.7062 35.975C22.075 37.3688 19.4375 38.7563 16.8062 40.15C16.2062 40.4688 15.6 40.7875 15 41.1063C14.8063 41.2063 14.6875 41.4313 14.6875 41.6438C14.6875 43.3875 14.6875 45.125 14.6875 46.8688C14.6875 49.6438 14.6875 52.425 14.6875 55.2C14.6875 55.8438 14.6875 56.4813 14.6875 57.125C14.6875 57.6125 15.2125 57.8813 15.625 57.6625C17.2875 56.7875 18.9438 55.9125 20.6063 55.0375C23.2375 53.65 25.875 52.2563 28.5063 50.8688C29.1063 50.55 29.7125 50.2313 30.3125 49.9125C31.025 49.5375 30.3938 48.4625 29.6875 48.8375Z" fill="black"/>
<path d="M29.6875 33.3438C28.025 34.2188 26.3687 35.1 24.7062 35.975C22.0749 37.3687 19.4375 38.7563 16.8062 40.15C16.2062 40.4688 15.6 40.7875 15 41.1063C15.2125 41.1063 15.4187 41.1063 15.6312 41.1063C13.975 40.2313 12.3125 39.35 10.6562 38.475C8.02495 37.0812 5.3937 35.6937 2.76245 34.3C2.16245 33.9812 1.5562 33.6625 0.956201 33.3438C0.956201 33.7063 0.956201 34.0625 0.956201 34.425C2.6187 33.55 4.27495 32.6688 5.93745 31.7938C8.5687 30.4 11.2 29.0125 13.8312 27.6187C14.4312 27.3 15.0375 26.9813 15.6375 26.6625C15.425 26.6625 15.2187 26.6625 15.0062 26.6625C16.6687 27.5375 18.3249 28.4188 19.9874 29.2938C22.6187 30.6813 25.25 32.075 27.8812 33.4625C28.4812 33.7813 29.0875 34.1 29.6875 34.4188C30.4 34.7938 31.0312 33.7188 30.3187 33.3375C28.6437 32.45 26.9625 31.5688 25.2875 30.6813C22.6562 29.2875 20.0187 27.9 17.3875 26.5063C16.8125 26.2 16.2375 25.875 15.65 25.5875C15.3125 25.425 15.075 25.5375 14.8 25.6875C14.5 25.8438 14.2 26.0063 13.9062 26.1625C11.3937 27.4875 8.88745 28.8187 6.37495 30.1437C4.3937 31.1937 2.37495 32.1938 0.418701 33.2938C0.387451 33.3125 0.356201 33.325 0.324951 33.3438C-0.0812988 33.5563 -0.0812988 34.2062 0.324951 34.425C1.99995 35.3125 3.6812 36.2 5.3562 37.0812C7.98745 38.475 10.6187 39.8625 13.2562 41.2562C13.8312 41.5625 14.4062 41.8875 14.9937 42.175C15.3312 42.3375 15.5687 42.225 15.85 42.075C16.15 41.9188 16.4499 41.7562 16.7437 41.6C19.2562 40.275 21.7624 38.9438 24.275 37.6188C26.2562 36.5688 28.275 35.5688 30.2312 34.4688C30.2625 34.45 30.2937 34.4375 30.325 34.4188C31.025 34.0438 30.3937 32.9625 29.6875 33.3438Z" fill="black"/>
<path d="M22.3374 29.475C20.6812 30.35 19.0187 31.2312 17.3624 32.1062C14.7312 33.5 12.0999 34.8875 9.46869 36.2812C8.86869 36.6 8.26244 36.9187 7.66244 37.2375C6.94994 37.6125 7.58119 38.6937 8.29369 38.3187C9.94994 37.4437 11.6124 36.5625 13.2687 35.6875C15.8999 34.2937 18.5312 32.9062 21.1624 31.5125C21.7624 31.1937 22.3687 30.875 22.9687 30.5563C23.6812 30.175 23.0499 29.0937 22.3374 29.475Z" fill="black"/>
<path d="M45.0061 56.5875C43.3436 55.7125 41.6874 54.8375 40.0249 53.9625C37.3936 52.575 34.7561 51.1813 32.1249 49.7938C31.5249 49.475 30.9186 49.1563 30.3186 48.8375C30.4249 49.0188 30.5249 49.2 30.6311 49.375C30.6311 47.6313 30.6311 45.8875 30.6311 44.15C30.6311 41.3688 30.6311 38.5875 30.6311 35.8063C30.6311 35.1625 30.6311 34.5188 30.6311 33.8813C30.3186 34.0625 30.0061 34.2438 29.6936 34.4188C31.3561 35.2938 33.0124 36.175 34.6749 37.05C37.3061 38.4438 39.9436 39.8313 42.5749 41.225C43.1749 41.5438 43.7811 41.8625 44.3811 42.1813C44.2749 42 44.1749 41.8188 44.0686 41.6438C44.0686 43.3875 44.0686 45.125 44.0686 46.8688C44.0686 49.6438 44.0686 52.425 44.0686 55.2C44.0686 55.8438 44.0686 56.4813 44.0686 57.125C44.0686 57.9313 45.3186 57.9313 45.3186 57.125C45.3186 55.3813 45.3186 53.6438 45.3186 51.9C45.3186 49.125 45.3186 46.3438 45.3186 43.5688C45.3186 42.925 45.3186 42.2875 45.3186 41.6438C45.3186 41.4313 45.1999 41.2063 45.0061 41.1063C43.3436 40.2313 41.6874 39.35 40.0249 38.475C37.3936 37.0813 34.7561 35.6938 32.1249 34.3C31.5249 33.9813 30.9186 33.6625 30.3186 33.3438C29.9061 33.125 29.3811 33.3938 29.3811 33.8813C29.3811 35.625 29.3811 37.3688 29.3811 39.1063C29.3811 41.8875 29.3811 44.6688 29.3811 47.45C29.3811 48.0938 29.3811 48.7375 29.3811 49.375C29.3811 49.5875 29.4999 49.8125 29.6936 49.9125C31.3561 50.7875 33.0124 51.6625 34.6749 52.5375C37.3061 53.925 39.9436 55.3188 42.5749 56.7063C43.1749 57.025 43.7811 57.3438 44.3811 57.6625C45.0811 58.0438 45.7186 56.9625 45.0061 56.5875Z" fill="black"/>
<path d="M59.0499 48.8375C57.3936 49.7125 55.7311 50.5875 54.0749 51.4625C51.4436 52.85 48.8124 54.2438 46.1811 55.6313C45.5811 55.95 44.9749 56.2688 44.3749 56.5875C44.6874 56.7688 44.9999 56.95 45.3124 57.125C45.3124 55.3813 45.3124 53.6438 45.3124 51.9C45.3124 49.125 45.3124 46.3438 45.3124 43.5688C45.3124 42.925 45.3124 42.2875 45.3124 41.6438C45.2061 41.825 45.1061 42.0063 44.9999 42.1813C46.6561 41.3063 48.3186 40.425 49.9749 39.55C52.6061 38.1563 55.2374 36.7688 57.8686 35.375C58.4686 35.0563 59.0749 34.7375 59.6749 34.4188C59.3624 34.2375 59.0499 34.0563 58.7374 33.8813C58.7374 35.625 58.7374 37.3625 58.7374 39.1063C58.7374 41.8875 58.7374 44.6625 58.7374 47.4438C58.7374 48.0875 58.7374 48.725 58.7374 49.3688C58.7374 50.175 59.9874 50.175 59.9874 49.3688C59.9874 47.625 59.9874 45.8875 59.9874 44.1438C59.9874 41.3625 59.9874 38.5875 59.9874 35.8063C59.9874 35.1625 59.9874 34.525 59.9874 33.8813C59.9874 33.3938 59.4624 33.125 59.0499 33.3438C57.3936 34.2188 55.7311 35.1 54.0749 35.975C51.4436 37.3688 48.8124 38.7563 46.1811 40.15C45.5811 40.4688 44.9749 40.7875 44.3749 41.1063C44.1811 41.2063 44.0624 41.4313 44.0624 41.6438C44.0624 43.3875 44.0624 45.125 44.0624 46.8688C44.0624 49.6438 44.0624 52.425 44.0624 55.2C44.0624 55.8438 44.0624 56.4813 44.0624 57.125C44.0624 57.6125 44.5874 57.8813 44.9999 57.6625C46.6561 56.7875 48.3186 55.9125 49.9749 55.0375C52.6061 53.65 55.2374 52.2563 57.8686 50.8688C58.4686 50.55 59.0749 50.2313 59.6749 49.9125C60.3936 49.5375 59.7624 48.4625 59.0499 48.8375Z" fill="black"/>
<path d="M59.0499 33.35C57.3937 34.225 55.7312 35.1063 54.0749 35.9813C51.4437 37.375 48.8124 38.7625 46.1812 40.1563C45.5812 40.475 44.9749 40.7938 44.3749 41.1125C44.5874 41.1125 44.7937 41.1125 45.0062 41.1125C43.3437 40.2375 41.6874 39.3563 40.0249 38.4813C37.3937 37.0875 34.7562 35.7 32.1249 34.3063C31.5249 33.9875 30.9187 33.6688 30.3187 33.35C30.3187 33.7125 30.3187 34.0688 30.3187 34.4313C31.9812 33.5563 33.6374 32.675 35.2999 31.8C37.9312 30.4125 40.5687 29.0188 43.1999 27.6313C43.7999 27.3125 44.4062 26.9938 45.0062 26.675C44.7937 26.675 44.5874 26.675 44.3749 26.675C46.0312 27.55 47.6937 28.4313 49.3499 29.3063C51.9812 30.7 54.6124 32.0875 57.2437 33.4813C57.8437 33.8 58.4499 34.1188 59.0499 34.4375C59.7624 34.8125 60.3937 33.7375 59.6812 33.3563C58.0062 32.4688 56.3249 31.5813 54.6499 30.6938C52.0187 29.3 49.3874 27.9125 46.7499 26.5188C46.1749 26.2125 45.5999 25.8875 45.0124 25.6C44.6749 25.4375 44.4374 25.55 44.1562 25.7C43.8562 25.8563 43.5562 26.0125 43.2624 26.175C40.7499 27.5 38.2437 28.825 35.7312 30.15C33.7499 31.2 31.7312 32.2 29.7749 33.2938C29.7437 33.3125 29.7124 33.325 29.6812 33.3438C29.2749 33.5563 29.2749 34.2063 29.6812 34.425C31.3562 35.3125 33.0374 36.2 34.7124 37.0875C37.3437 38.4813 39.9812 39.875 42.6124 41.2625C43.1874 41.5688 43.7624 41.8938 44.3499 42.1813C44.6874 42.3438 44.9249 42.2313 45.1999 42.0813C45.4999 41.925 45.7999 41.7625 46.0937 41.6063C48.5999 40.2813 51.1124 38.9563 53.6187 37.625C55.5999 36.575 57.6187 35.575 59.5687 34.4813C59.5999 34.4625 59.6312 34.45 59.6624 34.4313C60.3937 34.05 59.7624 32.9688 59.0499 33.35Z" fill="black"/>
<path d="M51.7124 29.475C50.0562 30.35 48.3937 31.2312 46.7374 32.1062C44.1062 33.5 41.4749 34.8875 38.8437 36.2812C38.2437 36.6 37.6374 36.9187 37.0374 37.2375C36.3249 37.6125 36.9562 38.6937 37.6687 38.3187C39.3249 37.4437 40.9874 36.5625 42.6437 35.6875C45.2749 34.2937 47.9062 32.9062 50.5374 31.5125C51.1374 31.1937 51.7437 30.875 52.3437 30.5563C53.0562 30.175 52.4249 29.0937 51.7124 29.475Z" fill="black"/>
</svg>
