<svg width="1280" height="48" viewBox="0 0 1280 48" fill="none" xmlns="http://www.w3.org/2000/svg">
<rect y="36" width="1" height="12" fill="#8A8C8D"/>
<rect x="29.0703" y="24" width="1" height="24" fill="#8A8C8D"/>
<rect x="58.1328" y="36" width="1" height="12" fill="#8A8C8D"/>
<rect x="87.2031" y="36" width="1" height="12" fill="#8A8C8D"/>
<rect x="116.273" y="36" width="1" height="12" fill="#8A8C8D"/>
<rect x="145.344" y="24" width="1" height="24" fill="#8A8C8D"/>
<rect x="174.406" y="36" width="1" height="12" fill="#8A8C8D"/>
<rect x="203.477" y="36" width="1" height="12" fill="#8A8C8D"/>
<rect x="232.547" y="36" width="1" height="12" fill="#8A8C8D"/>
<rect x="261.617" y="36" width="1" height="12" fill="#8A8C8D"/>
<rect x="290.68" y="24" width="1" height="24" fill="#8A8C8D"/>
<rect x="319.75" y="36" width="1" height="12" fill="#8A8C8D"/>
<rect x="348.82" y="36" width="1" height="12" fill="#8A8C8D"/>
<rect x="377.883" y="36" width="1" height="12" fill="#8A8C8D"/>
<rect x="406.953" y="36" width="1" height="12" fill="#8A8C8D"/>
<rect x="436.023" y="24" width="1" height="24" fill="#8A8C8D"/>
<rect x="465.094" y="36" width="1" height="12" fill="#8A8C8D"/>
<rect x="494.156" y="36" width="1" height="12" fill="#8A8C8D"/>
<rect x="523.227" y="36" width="1" height="12" fill="#8A8C8D"/>
<rect x="552.297" y="36" width="1" height="12" fill="#8A8C8D"/>
<rect x="581.367" y="24" width="1" height="24" fill="#8A8C8D"/>
<rect x="610.43" y="36" width="1" height="12" fill="#8A8C8D"/>
<rect x="639.5" width="1" height="48" fill="#8A8C8D"/>
<rect x="668.57" y="36" width="1" height="12" fill="#8A8C8D"/>
<rect x="697.633" y="24" width="1" height="24" fill="#8A8C8D"/>
<rect x="726.703" y="36" width="1" height="12" fill="#8A8C8D"/>
<rect x="755.773" y="36" width="1" height="12" fill="#8A8C8D"/>
<rect x="784.844" y="36" width="1" height="12" fill="#8A8C8D"/>
<rect x="813.906" y="24" width="1" height="24" fill="#8A8C8D"/>
<rect x="842.977" y="36" width="1" height="12" fill="#8A8C8D"/>
<rect x="872.047" y="36" width="1" height="12" fill="#8A8C8D"/>
<rect x="901.117" y="36" width="1" height="12" fill="#8A8C8D"/>
<rect x="930.18" y="36" width="1" height="12" fill="#8A8C8D"/>
<rect x="959.25" y="24" width="1" height="24" fill="#8A8C8D"/>
<rect x="988.32" y="36" width="1" height="12" fill="#8A8C8D"/>
<rect x="1017.38" y="36" width="1" height="12" fill="#8A8C8D"/>
<rect x="1046.45" y="36" width="1" height="12" fill="#8A8C8D"/>
<rect x="1075.52" y="36" width="1" height="12" fill="#8A8C8D"/>
<rect x="1104.59" y="24" width="1" height="24" fill="#8A8C8D"/>
<rect x="1133.66" y="36" width="1" height="12" fill="#8A8C8D"/>
<rect x="1162.73" y="36" width="1" height="12" fill="#8A8C8D"/>
<rect x="1191.8" y="36" width="1" height="12" fill="#8A8C8D"/>
<rect x="1220.87" y="36" width="1" height="12" fill="#8A8C8D"/>
<rect x="1249.93" y="24" width="1" height="24" fill="#8A8C8D"/>
<rect x="1279" y="36" width="1" height="12" fill="#8A8C8D"/>
</svg>
