<svg width="20" height="20" viewBox="0 0 20 20" fill="none" xmlns="http://www.w3.org/2000/svg">
<g clip-path="url(#clip0_2464_44126)">
<path d="M3.63684 4.2425H7.2732V2.42432H3.63684C3.07426 2.42432 2.53472 2.6478 2.13691 3.04561C1.73911 3.44341 1.51562 3.98295 1.51562 4.54553V15.4546C1.51562 16.0172 1.73911 16.5567 2.13691 16.9545C2.53472 17.3523 3.07426 17.5758 3.63684 17.5758H7.2732V15.7577H3.63684C3.55647 15.7577 3.47939 15.7257 3.42256 15.6689C3.36573 15.6121 3.33381 15.535 3.33381 15.4546V4.54553C3.33381 4.46516 3.36573 4.38808 3.42256 4.33125C3.47939 4.27442 3.55647 4.2425 3.63684 4.2425Z" fill="#15181A"/>
<path d="M11.2121 2.42432L7 2.42432V4.2425H11.2121L7 15.7576V17.5758H16.3636C16.9262 17.5758 17.4658 17.3523 17.8636 16.9545C18.2614 16.5567 18.4849 16.0172 18.4849 15.4546V4.54553C18.4849 3.98295 18.2614 3.44341 17.8636 3.04561C17.4658 2.6478 16.9262 2.42432 16.3636 2.42432H11.2121ZM16.3636 4.2425C16.444 4.2425 16.5211 4.27442 16.5779 4.33125C16.6348 4.38808 16.6667 4.46516 16.6667 4.54553V15.4546C16.6667 15.535 16.6348 15.6121 16.5779 15.6689C16.5211 15.7257 16.444 15.7576 16.3636 15.7576H7L11.2121 4.2425H16.3636Z" fill="#15181A"/>
<rect x="12" width="1.5" height="20" fill="#15181A"/>
<rect x="20" y="12" width="1.5" height="20" transform="rotate(90 20 12)" fill="#15181A"/>
</g>
<defs>
<clipPath id="clip0_2464_44126">
<rect width="20" height="20" fill="white"/>
</clipPath>
</defs>
</svg>
