<svg width="20" height="16" viewBox="0 0 20 16" fill="none" xmlns="http://www.w3.org/2000/svg">
<path d="M20 0L19.3245 1.77778H17.5709L14.4127 12.4444H4.19545L0 2.66667H13.4655L12.9527 4.44444H2.73455L5.40545 10.6667H13.0673L16.1873 0H20ZM6.81818 13.3333C6.06545 13.3333 5.45455 13.9307 5.45455 14.6667C5.45455 15.4036 6.06545 16 6.81818 16C7.57091 16 8.18182 15.4036 8.18182 14.6667C8.18182 13.9307 7.57091 13.3333 6.81818 13.3333ZM11.3636 13.3333C10.6109 13.3333 10 13.9298 10 14.6667C10 15.4036 10.6109 16 11.3636 16C12.1164 16 12.7273 15.4036 12.7273 14.6667C12.7273 13.9307 12.1164 13.3333 11.3636 13.3333Z" fill="#19BEFF"/>
</svg>
