<svg width="20" height="20" viewBox="0 0 20 20" fill="none" xmlns="http://www.w3.org/2000/svg">
<path d="M11.4358 15.545L8.4275 18.5525C6.4975 20.4817 3.375 20.4817 1.44583 18.5525C0.5125 17.6208 0 16.3808 0 15.0625C0 13.7442 0.5125 12.5042 1.445 11.5717L5.5 7.5175C7.4625 5.555 10.595 5.6325 12.4808 7.5175C12.8583 7.895 13.1558 8.32833 13.3883 8.79L12.0608 10.1167C11.9108 9.60583 11.6442 9.12583 11.2575 8.74C10.0508 7.53333 7.9825 7.48167 6.725 8.73917L6.72417 8.74083L2.66833 12.795C1.41833 14.0442 1.41833 16.0792 2.66833 17.3283C3.9325 18.5925 5.96667 18.5683 7.20333 17.3283L9.22417 15.3083C10.0517 15.545 10.7167 15.5875 11.4358 15.545ZM11.57 1.44667L8.59167 4.42667C9.2975 4.385 9.97083 4.42667 10.8025 4.6625L12.7967 2.67167C14.045 1.42 16.08 1.42167 17.33 2.67083C18.5942 3.93583 18.5683 5.97 17.33 7.20583L13.3042 11.2317L13.3017 11.2333C12.1033 12.4308 10.0633 12.5267 8.76917 11.2317C8.375 10.8367 8.115 10.3633 7.9725 9.8625L7.9025 9.91917L6.63833 11.1817C6.87167 11.645 7.1675 12.0775 7.545 12.455C9.41583 14.3258 12.5483 14.4333 14.5267 12.455L18.5533 8.42917C20.4817 6.49917 20.4833 3.3775 18.5525 1.44833C16.6217 -0.485833 13.4967 -0.479166 11.57 1.44667Z" fill="black"/>
</svg>
