<svg width="20" height="16" viewBox="0 0 20 16" fill="none" xmlns="http://www.w3.org/2000/svg">
<path d="M19.8721 8.01449L16.8204 3.35969C16.676 3.13945 16.4304 3.0068 16.167 3.0068H12.3707V1.33984C12.3707 0.908359 12.0209 0.558594 11.5894 0.558594H0.78125C0.349766 0.558594 0 0.908359 0 1.33984V13.0977C0 13.5291 0.349766 13.8789 0.78125 13.8789H3.25938C3.58188 14.7882 4.45027 15.4414 5.46875 15.4414C6.48723 15.4414 7.35559 14.7882 7.67812 13.8789H13.1948C13.5173 14.7882 14.3857 15.4414 15.4042 15.4414C16.4227 15.4414 17.291 14.7882 17.6136 13.8789H19.2188C19.6502 13.8789 20 13.5291 20 13.0977V8.44285C20 8.29066 19.9555 8.14176 19.8721 8.01449ZM5.46875 13.8789C5.03797 13.8789 4.6875 13.5284 4.6875 13.0977C4.6875 12.6669 5.03797 12.3164 5.46875 12.3164C5.89953 12.3164 6.25 12.6669 6.25 13.0977C6.25 13.5284 5.89953 13.8789 5.46875 13.8789ZM10.8082 12.3164H7.67809C7.35559 11.4071 6.48719 10.7539 5.46871 10.7539C4.45023 10.7539 3.58188 11.4071 3.25934 12.3164H1.5625V2.12109H10.8082V12.3164ZM15.4042 13.8789C14.9734 13.8789 14.6229 13.5284 14.6229 13.0977C14.6229 12.6669 14.9734 12.3164 15.4042 12.3164C15.835 12.3164 16.1854 12.6669 16.1854 13.0977C16.1854 13.5284 15.835 13.8789 15.4042 13.8789ZM18.4375 12.3164H17.6135C17.291 11.4071 16.4226 10.7539 15.4041 10.7539C14.3857 10.7539 13.5173 11.4071 13.1948 12.3164H12.3706V4.5693H15.745L18.4375 8.67613V12.3164Z" fill="#131313"/>
</svg>
