<svg width="38" height="40" viewBox="0 0 38 40" fill="none" xmlns="http://www.w3.org/2000/svg">
<ellipse opacity="0.2" cx="19.0064" cy="20.4161" rx="18.604" ry="19.4497" fill="white"/>
<g clip-path="url(#clip0_5213_36836)">
<path d="M19.0054 13.2125C14.7905 13.2125 11.0036 16.5546 8.82174 20.2176C8.72252 20.3894 8.67188 20.5829 8.67188 20.7763C8.67188 20.9697 8.72149 21.1631 8.82071 21.3349C11.0036 24.9979 14.7905 28.34 19.0054 28.34C23.2874 28.34 27.063 25.0012 29.2004 21.3241C29.2955 21.1556 29.343 20.9654 29.343 20.7763C29.343 20.5872 29.2955 20.397 29.2004 20.2285C27.063 16.5514 23.2874 13.2125 19.0054 13.2125ZM27.7007 20.7763C25.802 23.8861 22.6394 26.7192 19.0054 26.7192C15.4241 26.7192 12.2542 23.8753 10.3194 20.7763C12.2532 17.6773 15.4241 14.8333 19.0054 14.8333C22.6414 14.8333 25.8051 17.6687 27.7007 20.7763ZM19.0074 16.4541C21.2895 16.4541 23.1417 18.3905 23.1417 20.7763C23.1417 23.1621 21.2895 25.0984 19.0074 25.0984C16.7254 25.0984 14.8732 23.1621 14.8732 20.7763C14.8732 18.3905 16.7254 16.4541 19.0074 16.4541ZM19.0074 18.0749C17.5811 18.0749 16.4236 19.2851 16.4236 20.7763C16.4236 22.2674 17.5811 23.4776 19.0074 23.4776C20.4338 23.4776 21.5913 22.2674 21.5913 20.7763C21.5913 19.2851 20.4338 18.0749 19.0074 18.0749Z" fill="white"/>
</g>
<defs>
<clipPath id="clip0_5213_36836">
<rect width="20.6711" height="21.6107" fill="white" transform="translate(8.67188 9.61072)"/>
</clipPath>
</defs>
</svg>
