<svg width="21" height="20" viewBox="0 0 21 20" fill="none" xmlns="http://www.w3.org/2000/svg">
<path d="M10.5 7.69081C10.695 6.75748 11.7892 2.49998 14.985 2.49998C16.835 2.49998 18.8333 3.79248 18.8333 6.66914C18.8333 9.92498 15.8108 13.7275 10.5 17.1933C5.18917 13.7275 2.16667 9.92498 2.16667 6.66914C2.16667 3.76581 4.14083 2.49831 5.98083 2.49831C9.25 2.49831 10.2683 6.76998 10.5 7.69081ZM0.5 6.66914C0.5 10.0591 3.05 14.57 10.5 19.1666C17.95 14.57 20.5 10.0591 20.5 6.66914C20.5 0.0341433 12.46 -0.85419 10.5 3.55498C8.55167 -0.830024 0.5 -0.00335675 0.5 6.66914Z" fill="#19BEFF"/>
</svg>
