<svg width="20" height="20" viewBox="0 0 20 20" fill="none" xmlns="http://www.w3.org/2000/svg">
<path d="M2.67444 0.0170898H18.2891C18.6612 0.0170898 18.9623 0.32209 18.9623 0.697715V4.90146C18.9623 5.10209 18.8764 5.28271 18.7397 5.40709L13.8753 10.539V19.3015H13.874C13.874 19.3971 13.8543 19.494 13.8122 19.5865C13.6571 19.9271 13.2577 20.0758 12.9202 19.919L7.51851 17.3883C7.26629 17.2902 7.08702 17.0427 7.08702 16.7527V10.539L2.22255 5.40709C2.08593 5.28209 2 5.10209 2 4.90146V0.697715C2 0.321465 2.30167 0.0170898 2.6732 0.0170898H2.67444ZM16.7133 5.58271H4.25018L8.24549 9.79771C8.37098 9.92959 8.43342 10.099 8.43342 10.2683H8.43527V16.3196L12.5289 18.2377V10.2683C12.5289 10.0677 12.6148 9.88709 12.7514 9.76271L16.7133 5.58271ZM17.6153 1.37896H3.34764V4.22084H17.6153V1.37896Z" fill="black"/>
</svg>
