<svg width="24" height="24" viewBox="0 0 24 24" fill="none" xmlns="http://www.w3.org/2000/svg">
<path d="M6.62108 19.3185L14.1802 11.7593V21.7618C14.1791 21.9522 14.1281 22.1389 14.0325 22.3035C13.9368 22.4681 13.7997 22.6047 13.6348 22.6999C13.472 22.8033 13.2823 22.8564 13.0895 22.8526C12.8984 22.854 12.7103 22.8051 12.5441 22.7108L6.62108 19.3185ZM18.3034 7.63615L16.7218 9.21779C17.2054 10.0448 17.4578 10.9867 17.4526 11.9448C17.4523 13.3884 16.8796 14.7731 15.8601 15.7952L17.3872 17.3987C18.6479 16.1413 19.4295 14.4827 19.5968 12.71C19.7641 10.9373 19.3066 9.1618 18.3034 7.69069V7.63615ZM21.4231 4.5165L19.8523 6.08723C21.1315 7.77157 21.8214 9.82976 21.8158 11.9448C21.8182 13.2341 21.565 14.5111 21.0707 15.7018C20.5764 16.8926 19.8508 17.9736 18.9361 18.8822L20.485 20.4311C22.563 18.3534 23.8063 15.5855 23.9792 12.6521C24.1521 9.71873 23.2426 6.82388 21.4231 4.5165ZM19.9505 1.35321L14.1802 7.12348V2.12767C14.1791 1.93731 14.1281 1.75057 14.0325 1.586C13.9368 1.42144 13.7997 1.28477 13.6348 1.1896C13.469 1.09386 13.2809 1.04346 13.0895 1.04346C12.898 1.04346 12.7099 1.09386 12.5441 1.1896L5.15943 5.40003H1.09079C0.801493 5.40003 0.524047 5.51496 0.319484 5.71952C0.114922 5.92408 0 6.20153 0 6.49082V17.3987C0 17.688 0.114922 17.9654 0.319484 18.17C0.524047 18.3746 0.801493 18.4895 1.09079 18.4895H2.81423L0.316328 20.9874L1.86525 22.5363L5.63937 18.7622L14.1802 10.2213L21.4994 2.90213L19.9505 1.35321Z" fill="#15181A"/>
</svg>
