<svg width="20" height="20" viewBox="0 0 20 20" fill="none" xmlns="http://www.w3.org/2000/svg">
<path d="M17.6512 1H7.30311C6.55825 1 5.95545 1.6028 5.95545 2.34766V16.5221C5.95545 17.887 4.84167 19 3.47754 19H15.3993C17.3749 19 18.9996 17.3925 18.9996 15.3997V2.34846C18.9996 1.6036 18.3882 1.0008 17.652 1.0008L17.6512 1ZM8.19947 3.70476C8.19947 3.4536 8.4004 3.25266 8.65157 3.25266H9.55577C9.80694 3.25266 10.0079 3.4536 10.0079 3.70476V4.60032C10.0079 4.85149 9.80694 5.05242 9.55577 5.05242H8.65157C8.4004 5.05242 8.19947 4.85149 8.19947 4.60032V3.70476ZM16.2949 15.6265H8.64293C8.26618 15.6265 7.96478 15.3251 7.96478 14.9484C7.96478 14.5716 8.26618 14.2702 8.64293 14.2702H16.2949C16.6716 14.2702 16.973 14.5716 16.973 14.9484C16.973 15.3251 16.6716 15.6265 16.2949 15.6265ZM16.2949 12.0262H8.64293C8.26618 12.0262 7.96478 11.7248 7.96478 11.3481C7.96478 10.9713 8.26618 10.6699 8.64293 10.6699H16.2949C16.6716 10.6699 16.973 10.9713 16.973 11.3481C16.973 11.7248 16.6716 12.0262 16.2949 12.0262ZM16.2949 8.42669H8.64293C8.26618 8.42669 7.96478 8.12529 7.96478 7.74854C7.96478 7.37179 8.26618 7.07039 8.64293 7.07039H16.2949C16.6716 7.07039 16.973 7.37179 16.973 7.74854C16.973 8.12529 16.6716 8.42669 16.2949 8.42669ZM16.2949 4.82637H11.7903C11.4136 4.82637 11.1122 4.52497 11.1122 4.14822C11.1122 3.77147 11.4136 3.47007 11.7903 3.47007H16.2949C16.6716 3.47007 16.973 3.77147 16.973 4.14822C16.973 4.52497 16.6716 4.82637 16.2949 4.82637Z" fill="#D0D1D1"/>
<path d="M5.05162 16.5221V7.29565H2.79976C1.80373 7.29565 1 8.10803 1 9.09541V16.5213C1 17.2081 1.27628 17.8274 1.71974 18.2708C2.07138 18.6225 2.52348 18.865 3.02581 18.9576C4.17253 18.748 5.05162 17.7434 5.05162 16.5299V16.5221Z" fill="#D0D1D1"/>
</svg>
