<svg width="24" height="24" viewBox="0 0 24 24" fill="none" xmlns="http://www.w3.org/2000/svg">
<g clip-path="url(#clip0_5029_10117)">
<path d="M6.68611 6.00458C7.8857 6.00458 8.89908 5.3992 8.89908 4.6821C8.89908 3.965 7.8857 3.35962 6.68611 3.35962C5.48652 3.35962 4.47314 3.965 4.47314 4.6821C4.47314 5.3992 5.48652 6.00458 6.68611 6.00458Z" fill="#15181A"/>
<path d="M20.4972 4.19585C19.3745 6.14772 17.9772 8.5771 13.6414 9.56689C12.3028 9.8731 10.7292 10.0266 8.94405 10.0266C8.2195 10.0266 7.46019 10.0014 6.66736 9.95047H6.66694C3.74226 9.94427 1.22639 8.6553 0.10791 6.81392V19.241C0.10791 21.8032 3.0595 23.8879 6.68722 23.8879C6.69053 23.8879 6.69301 23.8895 6.69591 23.8895C6.69963 23.8899 6.70295 23.8883 6.70667 23.8887C16.4714 24.5102 18.4038 21.1192 19.9572 18.3943C20.8572 16.8165 21.7133 15.3256 23.8923 15.0567V1.19751C22.0778 1.45116 21.374 2.67185 20.4972 4.19585Z" fill="#15181A"/>
<path d="M9.90918 9.38696C11.1506 9.34475 12.2715 9.21937 13.2621 9.01082V6.81482C12.5848 7.92999 11.3939 8.83951 9.90918 9.38696Z" fill="#15181A"/>
<path d="M6.68673 9.33066C10.3124 9.33066 13.2619 7.24597 13.2619 4.68376C13.2619 2.12156 10.3124 0.0368652 6.68673 0.0368652C3.05859 0.0368652 0.107422 2.12156 0.107422 4.68376C0.107422 7.24597 3.05901 9.33066 6.68673 9.33066ZM6.68591 2.73935C8.27487 2.73935 9.51956 3.593 9.51956 4.68252C9.51956 5.77204 8.27487 6.62569 6.68591 6.62569C5.09694 6.62569 3.85225 5.77204 3.85225 4.68252C3.85225 3.593 5.09694 2.73935 6.68591 2.73935Z" fill="#15181A"/>
</g>
<defs>
<clipPath id="clip0_5029_10117">
<rect width="24" height="24" fill="white"/>
</clipPath>
</defs>
</svg>
