<svg width="18" height="20" viewBox="0 0 18 20" fill="none" xmlns="http://www.w3.org/2000/svg">
<path d="M2.3763 14.4375L3.70964 13.5416C2.58464 12.2916 1.89714 10.625 1.89714 8.81246C1.89714 4.89579 5.08464 1.70829 9.0013 1.70829C12.918 1.70829 16.1055 4.89579 16.1055 8.81246C16.1055 12.6875 13.0013 15.8333 9.14713 15.9166V13.5208L4.04297 16.7083L9.1263 19.8958V17.5C13.8555 17.4166 17.6888 13.5416 17.6888 8.79163C17.7096 3.99996 13.793 0.104126 9.0013 0.104126C4.20964 0.104126 0.292969 3.99996 0.292969 8.81246C0.292969 10.9583 1.08464 12.9166 2.3763 14.4375Z" fill="black"/>
</svg>
