<svg width="28" height="28" viewBox="0 0 28 28" fill="none" xmlns="http://www.w3.org/2000/svg">
<path fill-rule="evenodd" clip-rule="evenodd" d="M21.6787 11.7596V13.8086H23.1688V16.2296H26.1484V13.8086H27.4523V11.7596H21.6787Z" fill="white"/>
<path fill-rule="evenodd" clip-rule="evenodd" d="M24.7366 10.192V6.23681C14.6895 0.58694 0.547852 4.50419 0.547852 13.8835C0.547852 24.3422 14.689 26.9538 24.7366 21.8683V17.7253C21.0153 19.0434 14.689 18.6668 14.689 13.9584C14.689 9.25005 20.2109 8.59213 24.7366 10.192ZM8.52166 15.4617C8.14913 15.4617 7.96286 15.4617 7.59033 15.2754V13.1151C7.67522 13.1603 7.77659 13.2267 8.52166 13.2267C9.26651 13.2267 10.1978 12.6681 10.1978 11.5505C10.1978 10.4329 9.29902 9.87433 8.52166 9.87433C7.75537 9.87433 6.84526 10.6192 6.84526 11.5505L6.80394 20.1231C5.83129 20.0856 4.82003 19.5083 4.6367 18.4575L4.63376 11.2681C4.64618 9.36949 6.35645 7.63957 8.4388 7.63957C10.5361 7.63957 12.4324 9.31575 12.4324 11.5905C12.4326 13.865 10.3841 15.4617 8.52166 15.4617Z" fill="white"/>
</svg>
