<svg width="28" height="28" viewBox="0 0 28 28" fill="none" xmlns="http://www.w3.org/2000/svg">
<g clip-path="url(#clip0_3671_17978)">
<path d="M11.8 14.4301H1.93C1.72612 14.4299 1.52429 14.4709 1.33654 14.5503C1.14879 14.6298 0.978947 14.7463 0.837129 14.8928C0.69531 15.0393 0.584411 15.2128 0.511032 15.403C0.437654 15.5932 0.403295 15.7963 0.410002 16.0001V25.8701C0.410002 26.2732 0.570145 26.6598 0.8552 26.9449C1.14026 27.2299 1.52687 27.3901 1.93 27.3901H11.8C12.2031 27.3901 12.5897 27.2299 12.8748 26.9449C13.1599 26.6598 13.32 26.2732 13.32 25.8701V16.0001C13.3267 15.7963 13.2923 15.5932 13.219 15.403C13.1456 15.2128 13.0347 15.0393 12.8929 14.8928C12.7511 14.7463 12.5812 14.6298 12.3935 14.5503C12.2057 14.4709 12.0039 14.4299 11.8 14.4301ZM8.8 21.6301L6.87 20.1301L4.95 21.6301V15.1801H8.8V21.6301Z" fill="white"/>
<path d="M26.0695 14.4301H16.1995C15.9956 14.4299 15.7938 14.4709 15.6061 14.5503C15.4183 14.6298 15.2485 14.7463 15.1067 14.8928C14.9648 15.0393 14.8539 15.2128 14.7806 15.403C14.7072 15.5932 14.6728 15.7963 14.6795 16.0001V25.8701C14.6795 26.2732 14.8397 26.6598 15.1247 26.9449C15.4098 27.2299 15.7964 27.3901 16.1995 27.3901H26.0695C26.4727 27.3901 26.8593 27.2299 27.1443 26.9449C27.4294 26.6598 27.5895 26.2732 27.5895 25.8701V16.0001C27.5962 15.7963 27.5619 15.5932 27.4885 15.403C27.4151 15.2128 27.3042 15.0393 27.1624 14.8928C27.0206 14.7463 26.8507 14.6298 26.663 14.5503C26.4752 14.4709 26.2734 14.4299 26.0695 14.4301ZM23.0695 21.6301L21.1495 20.1301L19.2195 21.6301V15.1801H23.0695V21.6301Z" fill="white"/>
<path d="M9.05981 13.57H18.9398C19.3412 13.5674 19.7253 13.4061 20.0081 13.1213C20.291 12.8365 20.4498 12.4514 20.4498 12.05V2.18003C20.4498 1.77863 20.291 1.39352 20.0081 1.10875C19.7253 0.823982 19.3412 0.662675 18.9398 0.660034H9.05981C8.65841 0.662675 8.27436 0.823982 7.99146 1.10875C7.70856 1.39352 7.5498 1.77863 7.5498 2.18003V12.05C7.5498 12.4514 7.70856 12.8365 7.99146 13.1213C8.27436 13.4061 8.65841 13.5674 9.05981 13.57ZM12.0598 1.40003H15.9198V7.86003L13.9998 6.36003L12.0698 7.86003L12.0598 1.40003Z" fill="white"/>
</g>
<defs>
<clipPath id="clip0_3671_17978">
<rect width="28" height="28" fill="white"/>
</clipPath>
</defs>
</svg>
