<svg width="20" height="20" viewBox="0 0 20 20" fill="none" xmlns="http://www.w3.org/2000/svg">
<path d="M10 0C4.47328 0 0 4.47254 0 10C0 15.5267 4.4725 20 10 20C15.5267 20 20 15.5275 20 10C20 4.47328 15.5275 0 10 0ZM10 1.5625C10.8584 1.5625 11.697 1.69016 12.4947 1.93586L10 7.95852C9.86629 7.6357 7.57008 2.09215 7.50531 1.93586C8.30297 1.69016 9.14164 1.5625 10 1.5625ZM6.06176 2.53379L7.06684 4.96027H3.23129C3.96332 3.98133 4.92383 3.13582 6.06176 2.53379ZM2.30797 6.52273H7.71406L8.83078 9.21875H1.59848C1.6843 8.27758 1.92492 7.36902 2.30797 6.52273ZM2.30797 13.4773C1.92492 12.631 1.6843 11.7224 1.59848 10.7812H8.83078L7.71406 13.4773H2.30797ZM6.06176 17.4662C4.96965 16.8884 3.99461 16.0605 3.23129 15.0398H7.06684L6.06176 17.4662ZM10 18.4375C9.14164 18.4375 8.30297 18.3098 7.50531 18.0641C8.54648 15.5505 13.0994 4.55891 13.9382 2.53379C16.593 3.93828 18.4375 6.73238 18.4375 10C18.4375 14.6632 14.6638 18.4375 10 18.4375Z" fill="white"/>
</svg>
