<svg width="42" height="42" viewBox="0 0 42 42" fill="none" xmlns="http://www.w3.org/2000/svg">
<circle cx="21" cy="21" r="21" fill="white"/>
<g clip-path="url(#clip0_3171_14477)">
<path d="M4.84325 18.2768V19.0975V20.3172H4V18.2768H4.84325ZM8.46374 20.3172H9.30707V19.4907V17H8.10398L6.67604 19.2913L5.15814 17H4V17.8778H4.85457L6.3837 20.3172H6.94584L8.46374 17.8778V20.3172ZM9.90857 19.4907V17.8265C9.90857 17.5985 10.0117 17.4037 10.2178 17.2423C10.4239 17.0808 10.675 17 10.9711 17L14.1531 17.0057C14.4492 17.0057 14.7003 17.0865 14.9064 17.248C15.1125 17.4095 15.2156 17.6042 15.2156 17.8322V19.4907C15.2156 19.7188 15.1125 19.9135 14.9064 20.0749C14.7003 20.2364 14.4492 20.3172 14.1531 20.3172H10.9711C10.675 20.3172 10.4239 20.2364 10.2178 20.0749C10.0117 19.9135 9.90857 19.7188 9.90857 19.4907ZM14.378 18.9493V18.3109C14.3518 18.1969 14.273 18.0963 14.1419 18.0089C14.0106 17.9215 13.8458 17.8778 13.6471 17.8778H11.4658C11.2672 17.8778 11.1004 17.9215 10.9655 18.0089C10.8305 18.0963 10.7593 18.2007 10.7518 18.3223V18.9607C10.7518 19.0823 10.8193 19.1887 10.9542 19.2799C11.0892 19.3711 11.2578 19.4167 11.4602 19.4167H13.6753C13.8551 19.4167 14.0173 19.3701 14.1616 19.2771C14.3059 19.1839 14.378 19.0747 14.378 18.9493ZM18.8754 20.3172H18.0322V17.8778H17.0765H15.8171V17H16.8797L20.0617 17.0057L21.1242 17V17.8778H18.8754V20.3172ZM24.784 20.3172H23.9407V17.8778H22.9851H21.7257V17H22.7882L25.9703 17.0057L27.0328 17V17.8778H24.784V20.3172ZM32.1992 19.4167H32.9414V20.3172H31.8788H28.6968C28.4007 20.3172 28.1497 20.2364 27.9435 20.0749C27.7374 19.9135 27.6343 19.7188 27.6343 19.4907V18.254H32.9414V19.0405H28.4775V19.4167H29.1859H31.401H32.1992ZM27.6343 17.8778V17.8265C27.6343 17.5985 27.7374 17.4037 27.9435 17.2423C28.1497 17.0808 28.4007 17 28.6968 17L31.8788 17.0057L32.9414 17V17.8778H29.1915H28.8936H27.6343ZM35.533 19.0405L34.4648 20.3172H33.5429L34.9034 18.6416L33.5429 17H34.4648L35.533 18.2768V18.5617V19.0405Z" fill="#22201E"/>
<path d="M36.8598 19.0405H35.9491V18.2768H36.8598L37.928 17H38.85L37.4895 18.6416L38.85 20.3172H37.928L36.8598 19.0405Z" fill="#00A8E7"/>
<path d="M16.8106 24.7581C16.535 24.7581 16.2865 24.6963 16.0648 24.5727C15.8431 24.4489 15.6693 24.2787 15.5433 24.062C15.4174 23.8451 15.3545 23.6011 15.3545 23.3298C15.3545 23.0585 15.4174 22.8145 15.5433 22.5977C15.6693 22.3809 15.8437 22.2107 16.0667 22.087C16.2898 21.9633 16.539 21.9015 16.8145 21.9015C17.0296 21.9015 17.2263 21.9381 17.4047 22.0112C17.5831 22.0844 17.7353 22.1928 17.8612 22.3364L17.6054 22.5877C17.3982 22.367 17.1398 22.2566 16.8302 22.2566C16.6255 22.2566 16.4406 22.3031 16.2754 22.3963C16.11 22.4893 15.9809 22.6177 15.8877 22.7813C15.7946 22.9448 15.748 23.1276 15.748 23.3298C15.748 23.532 15.7946 23.7148 15.8877 23.8784C15.9809 24.042 16.11 24.1703 16.2754 24.2634C16.4406 24.3565 16.6255 24.403 16.8302 24.403C17.1372 24.403 17.3956 24.2914 17.6054 24.0679L17.8612 24.3193C17.7353 24.4629 17.5825 24.5719 17.4028 24.6464C17.2231 24.7209 17.0257 24.7581 16.8106 24.7581ZM19.1757 24.7501C18.9684 24.7501 18.7822 24.7036 18.6168 24.6106C18.4516 24.5174 18.3224 24.3891 18.2293 24.2255C18.1361 24.062 18.0895 23.8764 18.0895 23.669C18.0895 23.4615 18.1361 23.276 18.2293 23.1124C18.3224 22.9488 18.4516 22.8212 18.6168 22.7294C18.7822 22.6376 18.9684 22.5917 19.1757 22.5917C19.3829 22.5917 19.5685 22.6376 19.7325 22.7294C19.8965 22.8212 20.025 22.9488 20.1181 23.1124C20.2113 23.276 20.2579 23.4615 20.2579 23.669C20.2579 23.8764 20.2113 24.062 20.1181 24.2255C20.025 24.3891 19.8965 24.5174 19.7325 24.6106C19.5685 24.7036 19.3829 24.7501 19.1757 24.7501ZM19.1757 24.4151C19.3095 24.4151 19.4295 24.3838 19.5358 24.3213C19.642 24.2587 19.7253 24.171 19.7856 24.0579C19.846 23.9449 19.8762 23.8153 19.8762 23.669C19.8762 23.5227 19.846 23.393 19.7856 23.2799C19.7253 23.1669 19.642 23.0798 19.5358 23.0187C19.4295 22.9574 19.3095 22.9269 19.1757 22.9269C19.0418 22.9269 18.9218 22.9574 18.8156 23.0187C18.7093 23.0798 18.6253 23.1669 18.5638 23.2799C18.5021 23.393 18.4712 23.5227 18.4712 23.669C18.4712 23.8153 18.5021 23.9449 18.5638 24.0579C18.6253 24.171 18.7093 24.2587 18.8156 24.3213C18.9218 24.3838 19.0418 24.4151 19.1757 24.4151ZM21.1433 22.9667C21.2089 22.8444 21.306 22.7513 21.4345 22.6875C21.5631 22.6237 21.7191 22.5917 21.9028 22.5917V22.9628C21.8819 22.9601 21.853 22.9588 21.8163 22.9588C21.6116 22.9588 21.4509 23.0206 21.3342 23.1443C21.2174 23.268 21.1591 23.4442 21.1591 23.6729V24.7262H20.7812V22.6117H21.1433V22.9667ZM23.4731 22.5917C23.675 22.5917 23.8561 22.637 24.0161 22.7274C24.1762 22.8178 24.3014 22.9442 24.3919 23.1064C24.4824 23.2687 24.5277 23.4562 24.5277 23.669C24.5277 23.8817 24.4824 24.07 24.3919 24.2335C24.3014 24.397 24.1762 24.5241 24.0161 24.6145C23.8561 24.705 23.675 24.7501 23.4731 24.7501C23.3235 24.7501 23.1865 24.7209 23.0618 24.6624C22.9372 24.6038 22.8316 24.5188 22.745 24.4071V25.5002H22.3672V22.6117H22.7292V22.9469C22.8132 22.8298 22.9194 22.7413 23.048 22.6815C23.1766 22.6216 23.3182 22.5917 23.4731 22.5917ZM23.4416 24.4151C23.5754 24.4151 23.6954 24.3838 23.8017 24.3213C23.9079 24.2587 23.9919 24.171 24.0535 24.0579C24.1151 23.9449 24.146 23.8153 24.146 23.669C24.146 23.5227 24.1151 23.393 24.0535 23.2799C23.9919 23.1669 23.9079 23.0798 23.8017 23.0187C23.6954 22.9574 23.5754 22.9269 23.4416 22.9269C23.3104 22.9269 23.1916 22.9581 23.0854 23.0206C22.9791 23.0831 22.8952 23.1702 22.8336 23.2819C22.7719 23.3937 22.741 23.5227 22.741 23.669C22.741 23.8153 22.7712 23.9449 22.8316 24.0579C22.892 24.171 22.9759 24.2587 23.0834 24.3213C23.191 24.3838 23.3104 24.4151 23.4416 24.4151ZM25.9444 24.7501C25.7372 24.7501 25.5509 24.7036 25.3855 24.6106C25.2203 24.5174 25.0911 24.3891 24.998 24.2255C24.9048 24.062 24.8582 23.8764 24.8582 23.669C24.8582 23.4615 24.9048 23.276 24.998 23.1124C25.0911 22.9488 25.2203 22.8212 25.3855 22.7294C25.5509 22.6376 25.7372 22.5917 25.9444 22.5917C26.1517 22.5917 26.3372 22.6376 26.5012 22.7294C26.6652 22.8212 26.7937 22.9488 26.8869 23.1124C26.98 23.276 27.0266 23.4615 27.0266 23.669C27.0266 23.8764 26.98 24.062 26.8869 24.2255C26.7937 24.3891 26.6652 24.5174 26.5012 24.6106C26.3372 24.7036 26.1517 24.7501 25.9444 24.7501ZM25.9444 24.4151C26.0782 24.4151 26.1982 24.3838 26.3045 24.3213C26.4107 24.2587 26.494 24.171 26.5544 24.0579C26.6147 23.9449 26.6449 23.8153 26.6449 23.669C26.6449 23.5227 26.6147 23.393 26.5544 23.2799C26.494 23.1669 26.4107 23.0798 26.3045 23.0187C26.1982 22.9574 26.0782 22.9269 25.9444 22.9269C25.8105 22.9269 25.6905 22.9574 25.5843 23.0187C25.478 23.0798 25.3941 23.1669 25.3325 23.2799C25.2708 23.393 25.24 23.5227 25.24 23.669C25.24 23.8153 25.2708 23.9449 25.3325 24.0579C25.3941 24.171 25.478 24.2587 25.5843 24.3213C25.6905 24.3838 25.8105 24.4151 25.9444 24.4151ZM27.912 22.9667C27.9776 22.8444 28.0747 22.7513 28.2032 22.6875C28.3318 22.6237 28.4879 22.5917 28.6715 22.5917V22.9628C28.6506 22.9601 28.6217 22.9588 28.585 22.9588C28.3803 22.9588 28.2197 23.0206 28.1029 23.1443C27.9861 23.268 27.9278 23.4442 27.9278 23.6729V24.7262H27.55V22.6117H27.912V22.9667ZM29.8914 22.5917C30.18 22.5917 30.4011 22.6636 30.5546 22.8072C30.7081 22.9508 30.7848 23.1649 30.7848 23.4496V24.7262H30.4266V24.447C30.3637 24.5454 30.2738 24.6205 30.1571 24.6723C30.0403 24.7242 29.9019 24.7501 29.7419 24.7501C29.5084 24.7501 29.3215 24.6929 29.1812 24.5786C29.0408 24.4643 28.9706 24.3139 28.9706 24.1278C28.9706 23.9416 29.0375 23.792 29.1713 23.6789C29.3051 23.5659 29.5176 23.5093 29.8088 23.5093H30.4069V23.4336C30.4069 23.2687 30.3598 23.1423 30.2653 23.0545C30.1709 22.9667 30.0318 22.9229 29.8482 22.9229C29.7249 22.9229 29.6042 22.9435 29.4861 22.9847C29.3681 23.0259 29.2684 23.0811 29.1871 23.1503L29.0296 22.863C29.1372 22.7753 29.2658 22.7081 29.4153 22.6615C29.5648 22.615 29.7235 22.5917 29.8914 22.5917ZM29.8049 24.455C29.9492 24.455 30.0738 24.4223 30.1787 24.3572C30.2837 24.292 30.3598 24.1996 30.4069 24.0799V23.7846H29.8246C29.5045 23.7846 29.3444 23.8937 29.3444 24.1118C29.3444 24.2182 29.3851 24.302 29.4664 24.3632C29.5478 24.4243 29.6606 24.455 29.8049 24.455ZM32.658 24.6026C32.6029 24.6505 32.5347 24.687 32.4534 24.7123C32.372 24.7375 32.2881 24.7501 32.2015 24.7501C31.9916 24.7501 31.829 24.6929 31.7135 24.5786C31.5981 24.4643 31.5404 24.3007 31.5404 24.0879V22.9269H31.1862V22.6117H31.5404V22.1489H31.9182V22.6117H32.5163V22.9269H31.9182V24.0719C31.9182 24.1863 31.9464 24.2741 32.0028 24.3352C32.0592 24.3964 32.1398 24.427 32.2448 24.427C32.3602 24.427 32.4586 24.3937 32.54 24.3272L32.658 24.6026ZM33.1145 22.6117H33.4923V24.7262H33.1145V22.6117ZM33.3034 22.2047C33.2299 22.2047 33.169 22.1808 33.1204 22.1329C33.0718 22.085 33.0476 22.0265 33.0476 21.9574C33.0476 21.8882 33.0718 21.829 33.1204 21.7798C33.169 21.7306 33.2299 21.7061 33.3034 21.7061C33.3769 21.7061 33.4379 21.7293 33.4864 21.7758C33.5349 21.8224 33.5592 21.8802 33.5592 21.9494C33.5592 22.0212 33.5349 22.0817 33.4864 22.1309C33.4379 22.1802 33.3769 22.2047 33.3034 22.2047ZM35.1058 24.7501C34.8986 24.7501 34.7123 24.7036 34.5469 24.6106C34.3817 24.5174 34.2525 24.3891 34.1594 24.2255C34.0662 24.062 34.0196 23.8764 34.0196 23.669C34.0196 23.4615 34.0662 23.276 34.1594 23.1124C34.2525 22.9488 34.3817 22.8212 34.5469 22.7294C34.7123 22.6376 34.8986 22.5917 35.1058 22.5917C35.3131 22.5917 35.4986 22.6376 35.6626 22.7294C35.8266 22.8212 35.9551 22.9488 36.0483 23.1124C36.1414 23.276 36.188 23.4615 36.188 23.669C36.188 23.8764 36.1414 24.062 36.0483 24.2255C35.9551 24.3891 35.8266 24.5174 35.6626 24.6106C35.4986 24.7036 35.3131 24.7501 35.1058 24.7501ZM35.1058 24.4151C35.2396 24.4151 35.3596 24.3838 35.4659 24.3213C35.5721 24.2587 35.6555 24.171 35.7158 24.0579C35.7761 23.9449 35.8063 23.8153 35.8063 23.669C35.8063 23.5227 35.7761 23.393 35.7158 23.2799C35.6555 23.1669 35.5721 23.0798 35.4659 23.0187C35.3596 22.9574 35.2396 22.9269 35.1058 22.9269C34.972 22.9269 34.852 22.9574 34.7457 23.0187C34.6395 23.0798 34.5555 23.1669 34.4939 23.2799C34.4322 23.393 34.4014 23.5227 34.4014 23.669C34.4014 23.8153 34.4322 23.9449 34.4939 24.0579C34.5555 24.171 34.6395 24.2587 34.7457 24.3213C34.852 24.3838 34.972 24.4151 35.1058 24.4151ZM37.825 22.5917C38.0901 22.5917 38.3006 22.6695 38.4567 22.8251C38.6128 22.9807 38.6909 23.2088 38.6909 23.5093V24.7262H38.3131V23.5533C38.3131 23.3484 38.2646 23.1942 38.1674 23.0905C38.0704 22.9867 37.9313 22.9348 37.7503 22.9348C37.5457 22.9348 37.3843 22.9953 37.2663 23.1164C37.1483 23.2374 37.0892 23.4109 37.0892 23.6371V24.7262H36.7114V22.6117H37.0734V22.9309C37.1495 22.8218 37.2525 22.738 37.3823 22.6795C37.5122 22.621 37.6598 22.5917 37.825 22.5917Z" fill="#00A8E7"/>
</g>
<defs>
<clipPath id="clip0_3171_14477">
<rect width="34.85" height="8.5" fill="white" transform="translate(4 17)"/>
</clipPath>
</defs>
</svg>
