<svg width="16" height="16" viewBox="0 0 16 16" fill="none" xmlns="http://www.w3.org/2000/svg">
<path fill-rule="evenodd" clip-rule="evenodd" d="M12.6654 16H3.33203C2.59603 16 1.9987 15.4027 1.9987 14.6667V3.33333H1.33203V2H5.33203V1C5.33203 0.448667 5.7807 0 6.33203 0H9.66536C10.2154 0 10.6654 0.447333 10.6654 1V2H14.6654V3.33333H13.9987V14.6667C13.9987 15.4027 13.4014 16 12.6654 16ZM3.33203 14.3333C3.33203 14.5173 3.48136 14.6667 3.66536 14.6667H12.332C12.516 14.6667 12.6654 14.5173 12.6654 14.3333V3.33333H3.33203V14.3333ZM6.66536 2H9.33203V1.33333H6.66536V2Z" fill="#5C5E5F"/>
</svg>
