<svg width="20" height="20" viewBox="0 0 20 20" fill="none" xmlns="http://www.w3.org/2000/svg">
<path d="M3.63684 4.2425H7.2732V2.42432H3.63684C3.07426 2.42432 2.53472 2.6478 2.13691 3.04561C1.73911 3.44341 1.51562 3.98295 1.51562 4.54553V15.4546C1.51562 16.0172 1.73911 16.5567 2.13691 16.9545C2.53472 17.3523 3.07426 17.5758 3.63684 17.5758H7.2732V15.7577H3.63684C3.55647 15.7577 3.47939 15.7257 3.42256 15.6689C3.36573 15.6121 3.33381 15.535 3.33381 15.4546V4.54553C3.33381 4.46516 3.36573 4.38808 3.42256 4.33125C3.47939 4.27442 3.55647 4.2425 3.63684 4.2425Z" fill="#15181A"/>
<path d="M11.2127 0H9.39453V20H11.2127V17.5758H16.3642C16.9268 17.5758 17.4663 17.3523 17.8642 16.9545C18.262 16.5567 18.4854 16.0171 18.4854 15.4545V4.54545C18.4854 3.98287 18.262 3.44334 17.8642 3.04553C17.4663 2.64773 16.9268 2.42424 16.3642 2.42424H11.2127V0ZM16.3642 4.24242C16.4446 4.24242 16.5217 4.27435 16.5785 4.33118C16.6353 4.38801 16.6673 4.46509 16.6673 4.54545V15.4545C16.6673 15.5349 16.6353 15.612 16.5785 15.6688C16.5217 15.7256 16.4446 15.7576 16.3642 15.7576H11.2127V4.24242H16.3642Z" fill="#15181A"/>
</svg>
