<svg width="20" height="20" viewBox="0 0 20 20" fill="none" xmlns="http://www.w3.org/2000/svg">
<g clip-path="url(#clip0_3341_56121)">
<path d="M10 0C4.4775 0 0 4.4775 0 10C0 15.5225 4.4775 20 10 20C15.5225 20 20 15.5225 20 10C20 4.4775 15.5225 0 10 0ZM8.75 4.16667H11.25L10.4167 12.5H9.58333L8.75 4.16667ZM10 16.0417C9.425 16.0417 8.95833 15.575 8.95833 15C8.95833 14.425 9.425 13.9583 10 13.9583C10.575 13.9583 11.0417 14.425 11.0417 15C11.0417 15.575 10.575 16.0417 10 16.0417Z" fill="#D0D1D1"/>
</g>
<defs>
<clipPath id="clip0_3341_56121">
<rect width="20" height="20" fill="white"/>
</clipPath>
</defs>
</svg>
