<svg width="59" height="60" viewBox="0 0 59 60" fill="none" xmlns="http://www.w3.org/2000/svg">
<path d="M46.7689 4.92603e-06C44.479 4.92603e-06 42.2829 0.913944 40.6637 2.54077C39.0445 4.16759 38.1348 6.37403 38.1348 8.6747C38.1365 9.70726 38.3242 10.731 38.6888 11.6964L24.7519 20.7542C22.7692 18.5842 20.0939 17.1787 17.1888 16.781C14.2837 16.3833 11.3317 17.0184 8.84343 18.5764C6.35518 20.1344 4.48727 22.5173 3.56292 25.3127C2.63857 28.1082 2.71593 31.1404 3.78161 33.8846C4.84729 36.6288 6.83425 38.9124 9.39868 40.3403C11.9631 41.7682 14.9437 42.2505 17.8247 41.7038C20.7056 41.1571 23.3058 39.6157 25.1752 37.3465C27.0446 35.0772 28.0656 32.2228 28.0616 29.2771C28.0626 26.8665 27.3705 24.5068 26.0686 22.4819L39.6889 13.6265C40.5368 14.8518 41.6849 15.8365 43.0223 16.4857C44.3597 17.1348 45.8412 17.4263 47.3235 17.3321C48.8058 17.2378 50.2389 16.761 51.4842 15.9476C52.7295 15.1342 53.7448 14.0119 54.4322 12.689C55.1195 11.3661 55.4556 9.88747 55.4078 8.39597C55.3601 6.90447 54.9302 5.45056 54.1597 4.17477C53.3893 2.89898 52.3042 1.84446 51.0095 1.11314C49.7148 0.381811 48.2542 -0.00158518 46.7689 4.92603e-06ZM15.4702 39.759C13.4067 39.759 11.3896 39.1443 9.67393 37.9925C7.95825 36.8407 6.62103 35.2037 5.83139 33.2884C5.04175 31.3731 4.83514 29.2655 5.2377 27.2322C5.64025 25.1989 6.63389 23.3312 8.09296 21.8653C9.55203 20.3993 11.411 19.401 13.4348 18.9966C15.4586 18.5921 17.5563 18.7997 19.4627 19.5931C21.369 20.3864 22.9984 21.7299 24.1448 23.4537C25.2912 25.1774 25.9031 27.204 25.9031 29.2771C25.9012 32.0565 24.8014 34.7215 22.8452 36.6868C20.8891 38.6522 18.2366 39.7571 15.4702 39.759ZM46.7689 15.1807C45.4882 15.1807 44.2362 14.7992 43.1713 14.0843C42.1064 13.3694 41.2764 12.3533 40.7863 11.1645C40.2961 9.97563 40.1679 8.66749 40.4178 7.40544C40.6676 6.1434 41.2844 4.98413 42.19 4.07425C43.0956 3.16437 44.2495 2.54473 45.5056 2.29369C46.7617 2.04265 48.0638 2.1715 49.247 2.66392C50.4303 3.15635 51.4417 3.99024 52.1532 5.06015C52.8648 6.13006 53.2445 7.38793 53.2445 8.6747C53.2445 10.4002 52.5623 12.055 51.3479 13.2752C50.1335 14.4953 48.4864 15.1807 46.7689 15.1807Z" fill="black"/>
<path d="M46.7686 59.9996C48.1827 60.0017 49.5758 59.6548 50.8253 58.9894C52.0747 58.324 53.1424 57.3604 53.9345 56.1834C54.7265 55.0063 55.2186 53.6518 55.3676 52.2389C55.5167 50.826 55.318 49.398 54.789 48.0803C54.2601 46.7627 53.4171 45.5957 52.3342 44.682C51.2513 43.7682 49.9615 43.1358 48.5783 42.8401C47.1951 42.5444 45.7608 42.5946 44.4014 42.9863C43.0421 43.378 41.7993 44.0991 40.7822 45.0863C40.7442 45.0423 40.7007 45.0034 40.6527 44.9707L33.177 39.1514C33.0662 39.0539 32.9366 38.9802 32.7963 38.9349C32.6561 38.8896 32.5081 38.8736 32.3614 38.8879C32.2148 38.9023 32.0726 38.9466 31.9437 39.0182C31.8148 39.0899 31.7018 39.1873 31.6117 39.3044C31.5217 39.4216 31.4565 39.5561 31.4201 39.6995C31.3837 39.843 31.377 39.9924 31.4003 40.1385C31.4236 40.2847 31.4764 40.4245 31.5555 40.5494C31.6346 40.6743 31.7383 40.7816 31.8603 40.8646L39.336 46.6478C39.3729 46.6699 39.4114 46.6892 39.4511 46.7056C38.6289 48.0188 38.1722 49.5295 38.1286 51.0803C38.0851 52.6311 38.4563 54.1653 39.2036 55.523C39.9509 56.8806 41.0469 58.0121 42.3775 58.7994C43.708 59.5868 45.2244 60.0012 46.7686 59.9996ZM46.7686 44.8188C48.0493 44.8188 49.3013 45.2004 50.3662 45.9153C51.4312 46.6302 52.2611 47.6463 52.7513 48.8351C53.2414 50.0239 53.3696 51.3321 53.1198 52.5941C52.8699 53.8562 52.2532 55.0154 51.3475 55.9253C50.4419 56.8352 49.2881 57.4548 48.0319 57.7059C46.7758 57.9569 45.4737 57.8281 44.2905 57.3357C43.1072 56.8432 42.0959 56.0093 41.3843 54.9394C40.6728 53.8695 40.293 52.6116 40.293 51.3249C40.293 49.5994 40.9752 47.9445 42.1896 46.7244C43.4041 45.5043 45.0511 44.8188 46.7686 44.8188Z" fill="black"/>
</svg>
