<svg width="18" height="20" viewBox="0 0 18 20" fill="none" xmlns="http://www.w3.org/2000/svg">
<path d="M16.9421 8.49371C17.2809 8.40027 17.5156 8.09207 17.5156 7.74063V3.75C17.5156 3.31852 17.1659 2.96875 16.7344 2.96875H13.6055C13.5239 1.31789 12.1551 0 10.4844 0C8.81363 0 7.44488 1.31789 7.36324 2.96875H4.23438C3.80289 2.96875 3.45312 3.31852 3.45312 3.75V6.87887C1.80227 6.96051 0.484375 8.32926 0.484375 10C0.484375 11.6707 1.80227 13.0395 3.45312 13.1211V16.25C3.45312 16.6815 3.80289 17.0312 4.23438 17.0312H7.36324C7.44488 18.6821 8.81363 20 10.4844 20C12.1551 20 13.5239 18.6821 13.6055 17.0312H16.7344C17.1659 17.0312 17.5156 16.6815 17.5156 16.25V12.2594C17.5156 11.9079 17.2809 11.5997 16.9421 11.5063C16.2679 11.3202 15.7969 10.7008 15.7969 10C15.7969 9.29922 16.2679 8.6798 16.9421 8.49371ZM15.9531 7.20887C14.9174 7.73199 14.2344 8.80711 14.2344 10C14.2344 11.1929 14.9174 12.268 15.9531 12.7911V15.4688H12.7437C12.4997 15.4688 12.2698 15.5827 12.122 15.7769C11.9743 15.971 11.9257 16.223 11.9907 16.4582C12.028 16.5929 12.0469 16.7331 12.0469 16.875C12.0469 17.7366 11.3459 18.4375 10.4844 18.4375C9.62281 18.4375 8.92188 17.7366 8.92188 16.875C8.92188 16.7331 8.94074 16.5929 8.97797 16.4582C9.04301 16.2231 8.99445 15.9711 8.84668 15.7769C8.69895 15.5827 8.46898 15.4688 8.225 15.4688H5.01562V12.2593C5.01562 12.0154 4.90164 11.7854 4.70746 11.6377C4.51336 11.4899 4.26129 11.4413 4.02617 11.5064C3.89148 11.5436 3.75125 11.5625 3.60938 11.5625C2.74781 11.5625 2.04688 10.8616 2.04688 10C2.04688 9.13844 2.74781 8.4375 3.60938 8.4375C3.75125 8.4375 3.89148 8.45637 4.02617 8.49359C4.26117 8.55859 4.51328 8.51008 4.70746 8.3623C4.90164 8.21457 5.01562 7.98461 5.01562 7.74063V4.53125H8.22504C8.46902 4.53125 8.69898 4.41727 8.84672 4.22309C8.99449 4.02898 9.04305 3.77695 8.97801 3.5418C8.94074 3.40711 8.92188 3.26688 8.92188 3.125C8.92188 2.26344 9.62281 1.5625 10.4844 1.5625C11.3459 1.5625 12.0469 2.26344 12.0469 3.125C12.0469 3.26688 12.028 3.40711 11.9908 3.5418C11.9257 3.77691 11.9743 4.02895 12.1221 4.22309C12.2698 4.41727 12.4998 4.53125 12.7437 4.53125H15.9531V7.20887Z" fill="#131313"/>
</svg>
