<svg width="24" height="24" viewBox="0 0 24 24" fill="none" xmlns="http://www.w3.org/2000/svg">
<rect width="24" height="24" rx="8" fill="#F3F3F3"/>
<g clip-path="url(#clip0_5346_1444)">
<path d="M12.8615 15.327L11.0565 17.1315C9.8985 18.289 8.025 18.289 6.8675 17.1315C6.3075 16.5725 6 15.8285 6 15.0375C6 14.2465 6.3075 13.5025 6.867 12.943L9.3 10.5105C10.4775 9.333 12.357 9.3795 13.4885 10.5105C13.715 10.737 13.8935 10.997 14.033 11.274L13.2365 12.07C13.1465 11.7635 12.9865 11.4755 12.7545 11.244C12.0305 10.52 10.7895 10.489 10.035 11.2435L10.0345 11.2445L7.601 13.677C6.851 14.4265 6.851 15.6475 7.601 16.397C8.3595 17.1555 9.58 17.141 10.322 16.397L11.5345 15.185C12.031 15.327 12.43 15.3525 12.8615 15.327ZM12.942 6.868L11.155 8.656C11.5785 8.631 11.9825 8.656 12.4815 8.7975L13.678 7.603C14.427 6.852 15.648 6.853 16.398 7.6025C17.1565 8.3615 17.141 9.582 16.398 10.3235L13.9825 12.739L13.981 12.74C13.262 13.4585 12.038 13.516 11.2615 12.739C11.025 12.502 10.869 12.218 10.7835 11.9175L10.7415 11.9515L9.983 12.709C10.123 12.987 10.3005 13.2465 10.527 13.473C11.6495 14.5955 13.529 14.66 14.716 13.473L17.132 11.0575C18.289 9.8995 18.29 8.0265 17.1315 6.869C15.973 5.7085 14.098 5.7125 12.942 6.868Z" fill="#15181A"/>
</g>
<defs>
<clipPath id="clip0_5346_1444">
<rect width="12" height="12" fill="white" transform="translate(6 6)"/>
</clipPath>
</defs>
</svg>
