<svg width="13" height="12" viewBox="0 0 13 12" fill="none" xmlns="http://www.w3.org/2000/svg">
<path d="M1.40996 2.7816C1.21976 2.889 1.10156 3.093 1.10156 3.3138V8.6838C1.10156 8.9058 1.21976 9.1086 1.40996 9.216C2.36816 9.7566 5.28356 11.3994 6.21296 11.9232C6.30416 11.9742 6.40436 12 6.50516 12C6.60356 12 6.70196 11.9754 6.79136 11.9262C7.72076 11.4132 10.6254 9.8124 11.5878 9.2814C11.7816 9.1752 11.9016 8.97 11.9016 8.7468V3.3138C11.9016 3.093 11.7834 2.889 11.5926 2.7816C10.6356 2.2422 7.72616 0.6024 6.79316 0.0768C6.70256 0.0258 6.60176 0 6.50156 0C6.40076 0 6.30056 0.0258 6.20996 0.0768C5.27696 0.6024 2.36696 2.2422 1.40996 2.7816ZM11.0016 4.0506V8.5656L6.95156 10.7988V6.252L11.0016 4.0506ZM2.00156 8.5056V4.0308L6.05156 6.2808V10.7874L2.00156 8.5056ZM2.44316 3.2442L6.50156 0.9564L10.5822 3.2568L6.50156 5.4864L2.44316 3.2442Z" fill="black"/>
</svg>
