<svg width="20" height="20" viewBox="0 0 20 20" fill="none" xmlns="http://www.w3.org/2000/svg">
<path d="M9 3.75C9 3.3525 8.6475 3 8.25 3L3.75 3C3.3525 3 3 3.3525 3 3.75V8.25C3 8.6475 3.3525 9 3.75 9H8.25C8.6475 9 9 8.6475 9 8.25V3.75Z" fill="#000"/>
<path d="M9 11.75C9 11.3525 8.6475 11 8.25 11L3.75 11C3.3525 11 3 11.3525 3 11.75V16.25C3 16.6475 3.3525 17 3.75 17H8.25C8.6475 17 9 16.6475 9 16.25V11.75Z" fill="#000"/>
<path d="M17 3.75C17 3.3525 16.6475 3 16.25 3L11.75 3C11.3525 3 11 3.3525 11 3.75V8.25C11 8.6475 11.3525 9 11.75 9H16.25C16.6475 9 17 8.6475 17 8.25V3.75Z" fill="#000"/>
<path d="M17 11.75C17 11.3525 16.6475 11 16.25 11L11.75 11C11.3525 11 11 11.3525 11 11.75V16.25C11 16.6475 11.3525 17 11.75 17H16.25C16.6475 17 17 16.6475 17 16.25V11.75Z" fill="#000"/>
</svg>
