<svg width="21" height="20" viewBox="0 0 21 20" fill="none" xmlns="http://www.w3.org/2000/svg">
<path d="M2.014 4.636C1.697 4.815 1.5 5.155 1.5 5.523V14.473C1.5 14.843 1.697 15.181 2.014 15.36C3.611 16.261 8.47 18.999 10.019 19.872C10.171 19.957 10.338 20 10.506 20C10.67 20 10.834 19.959 10.983 19.877C12.532 19.022 17.373 16.354 18.977 15.469C19.3 15.292 19.5 14.95 19.5 14.578V5.523C19.5 5.155 19.303 4.815 18.985 4.636C17.39 3.737 12.541 1.004 10.986 0.128C10.835 0.043 10.667 0 10.5 0C10.332 0 10.165 0.043 10.014 0.128C8.459 1.004 3.609 3.737 2.014 4.636ZM18 6.751V14.276L11.25 17.998V10.42L18 6.751ZM3 14.176V6.718L9.75 10.468V17.979L3 14.176ZM3.736 5.407L10.5 1.594L17.301 5.428L10.5 9.144L3.736 5.407Z" fill="black"/>
</svg>
