<svg width="16" height="16" viewBox="0 0 16 16" fill="none" xmlns="http://www.w3.org/2000/svg">
<path d="M3.2 13.6V15.2C3.2 15.6968 3.616 16 4 16H5.6V14.8H4.4V13.6H3.2ZM9.2 16H6.4V14.8H9.2V16ZM12.8 16H10V14.8H12.8V16ZM16 13.6H14.8V14.8H13.6V16H15.2C15.5824 16 16 15.6968 16 15.2V13.6ZM14.8 12.8V10.1096H16V12.8H14.8ZM14.8 9.3096V6.4H16V9.3096H14.8ZM4.4 6.4V9.3096H3.2V6.4H4.4ZM13.6 3.2V4.4H14.8V5.6H16V4C16 3.6176 15.6968 3.2 15.2 3.2H13.6ZM5.6 3.2H4C3.504 3.2 3.2 3.6152 3.2 4V5.6H4.4V4.4H5.6V3.2ZM9.2 4.4H6.4V3.2H9.2V4.4ZM11.6 3.2V1.2H1.2V11.6H3.2V10.1096H4.4V12.8H0.8C0.416 12.8 0 12.4968 0 12V0.8C0 0.4152 0.304 0 0.8 0H12C12.4968 0 12.8 0.4176 12.8 0.8V4.4H10V3.2H11.6Z" fill="#8A8C8D"/>
</svg>
