<svg width="20" height="20" viewBox="0 0 20 20" fill="none" xmlns="http://www.w3.org/2000/svg">
<path fill-rule="evenodd" clip-rule="evenodd" d="M5.90918 6.36366C5.90918 4.35535 7.53723 2.72729 9.54554 2.72729H10.4546C12.4629 2.72729 14.091 4.35535 14.091 6.36366V8.18184C14.091 10.1901 12.4629 11.8182 10.4546 11.8182H9.54554C7.53723 11.8182 5.90918 10.1901 5.90918 8.18184V6.36366ZM9.54554 4.54548C8.54136 4.54548 7.72736 5.3595 7.72736 6.36366V8.18184C7.72736 9.18602 8.54136 10 9.54554 10H10.4546C11.4588 10 12.2728 9.18602 12.2728 8.18184V6.36366C12.2728 5.3595 11.4588 4.54548 10.4546 4.54548H9.54554Z" fill="#D0D1D1"/>
<path fill-rule="evenodd" clip-rule="evenodd" d="M13.1816 5.45459C12.6795 5.45459 12.2725 5.86161 12.2725 6.36368V9.09095C12.2725 9.59304 12.6795 10 13.1816 10H15.4543C15.9564 10 16.3634 9.59304 16.3634 9.09095V6.36368C16.3634 5.86161 15.9564 5.45459 15.4543 5.45459H13.1816Z" fill="#D0D1D1"/>
<path fill-rule="evenodd" clip-rule="evenodd" d="M4.54581 5.45459C4.04374 5.45459 3.63672 5.86161 3.63672 6.36368V9.09095C3.63672 9.59304 4.04374 10 4.54581 10H6.81854C7.32061 10 7.72763 9.59304 7.72763 9.09095V6.36368C7.72763 5.86161 7.32061 5.45459 6.81854 5.45459H4.54581Z" fill="#D0D1D1"/>
<path fill-rule="evenodd" clip-rule="evenodd" d="M3.63672 5.45455C3.63672 2.44208 6.0788 0 9.09126 0H10.9094C13.9219 0 16.364 2.44208 16.364 5.45455V8.18182H14.5458V5.45455C14.5458 3.44624 12.9177 1.81818 10.9094 1.81818H9.09126C7.08296 1.81818 5.4549 3.44624 5.4549 5.45455V8.18182H3.63672V5.45455Z" fill="#D0D1D1"/>
<path fill-rule="evenodd" clip-rule="evenodd" d="M3.63672 16.3637C3.63672 13.8533 5.67179 11.8182 8.18217 11.8182H11.8185C14.3289 11.8182 16.364 13.8533 16.364 16.3637V19.091C16.364 19.5931 15.957 20.0001 15.4549 20.0001H4.54581C4.04374 20.0001 3.63672 19.5931 3.63672 19.091V16.3637ZM9.09126 12.7273V19.091H10.9094V12.7273H9.09126Z" fill="#D0D1D1"/>
</svg>
