<svg width="14" height="16" viewBox="0 0 14 16" fill="none" xmlns="http://www.w3.org/2000/svg">
<path d="M1.90791 3.39394H4.817V1.93939H1.90791C1.45784 1.93939 1.02621 2.11818 0.707969 2.43642C0.389725 2.75467 0.210938 3.1863 0.210938 3.63636V12.3636C0.210938 12.8137 0.389725 13.2453 0.707969 13.5636C1.02621 13.8818 1.45784 14.0606 1.90791 14.0606H4.817V12.6061H1.90791C1.84361 12.6061 1.78195 12.5805 1.73649 12.5351C1.69102 12.4896 1.66548 12.4279 1.66548 12.3636V3.63636C1.66548 3.57207 1.69102 3.51041 1.73649 3.46494C1.78195 3.41948 1.84361 3.39394 1.90791 3.39394Z" fill="#8A8C8D"/>
<path d="M7.96851 0H6.51397V16H7.96851V14.0606H12.0897C12.5398 14.0606 12.9714 13.8818 13.2897 13.5636C13.6079 13.2453 13.7867 12.8137 13.7867 12.3636V3.63636C13.7867 3.1863 13.6079 2.75467 13.2897 2.43642C12.9714 2.11818 12.5398 1.93939 12.0897 1.93939H7.96851V0ZM12.0897 3.39394C12.154 3.39394 12.2157 3.41948 12.2611 3.46494C12.3066 3.51041 12.3321 3.57207 12.3321 3.63636V12.3636C12.3321 12.4279 12.3066 12.4896 12.2611 12.5351C12.2157 12.5805 12.154 12.6061 12.0897 12.6061H7.96851V3.39394H12.0897Z" fill="#8A8C8D"/>
</svg>
