<svg width="20" height="20" viewBox="0 0 20 20" fill="none" xmlns="http://www.w3.org/2000/svg">
<path d="M10 7.69093C10.195 6.7576 11.2892 2.5001 14.485 2.5001C16.335 2.5001 18.3333 3.7926 18.3333 6.66927C18.3333 9.9251 15.3108 13.7276 10 17.1934C4.68917 13.7276 1.66667 9.9251 1.66667 6.66927C1.66667 3.76593 3.64083 2.49843 5.48083 2.49843C8.75 2.49843 9.76833 6.7701 10 7.69093ZM0 6.66927C0 10.0593 2.55 14.5701 10 19.1668C17.45 14.5701 20 10.0593 20 6.66927C20 0.0342654 11.96 -0.854068 10 3.5551C8.05167 -0.829902 0 -0.00323468 0 6.66927Z" fill="black"/>
</svg>
