<svg width="20" height="20" viewBox="0 0 20 20" fill="none" xmlns="http://www.w3.org/2000/svg">
<path d="M9.998 3.33301C5.92 3.33301 2.256 6.42601 0.145 9.81601C0.049 9.97501 0 10.154 0 10.333C0 10.512 0.0480001 10.691 0.144 10.85C2.256 14.24 5.92 17.333 9.998 17.333C14.141 17.333 17.794 14.243 19.862 10.84C19.954 10.684 20 10.508 20 10.333C20 10.158 19.954 9.98201 19.862 9.82601C17.794 6.42301 14.141 3.33301 9.998 3.33301ZM18.411 10.333C16.574 13.211 13.514 15.833 9.998 15.833C6.533 15.833 3.466 13.201 1.594 10.333C3.465 7.46501 6.533 4.83301 9.998 4.83301C13.516 4.83301 16.577 7.45701 18.411 10.333ZM10 6.33301C12.208 6.33301 14 8.12501 14 10.333C14 12.541 12.208 14.333 10 14.333C7.792 14.333 6 12.541 6 10.333C6 8.12501 7.792 6.33301 10 6.33301ZM10 7.83301C8.62 7.83301 7.5 8.95301 7.5 10.333C7.5 11.713 8.62 12.833 10 12.833C11.38 12.833 12.5 11.713 12.5 10.333C12.5 8.95301 11.38 7.83301 10 7.83301Z" fill="black"/>
</svg>
