<svg width="20" height="20" viewBox="0 0 20 20" fill="none" xmlns="http://www.w3.org/2000/svg">
<path fill-rule="evenodd" clip-rule="evenodd" d="M19.6612 8.37876C19.4761 8.19461 19.2259 8.09045 18.9646 8.09045H12.4467V10.7345C12.4467 11.2953 12.2235 11.8338 11.8273 12.23C11.4311 12.6262 10.8926 12.8495 10.3318 12.8495H9.23242V13.2447C9.23242 13.7888 9.67328 14.2297 10.2174 14.2297H16.9835C17.8699 14.7226 18.5674 15.4983 19.0659 16.9732C19.1366 17.1834 19.3505 17.3118 19.57 17.2755C19.7895 17.2392 19.9504 17.0495 19.9504 16.8272L19.9495 9.07507C19.9495 8.81465 19.8453 8.56355 19.6612 8.37845L19.6612 8.37876Z" fill="#D0D1D1"/>
<path fill-rule="evenodd" clip-rule="evenodd" d="M11.9918 10.7356C11.9918 11.1765 11.8169 11.5987 11.5053 11.9103C11.1938 12.2209 10.7716 12.3967 10.3317 12.3948H7.57118C7.03547 13.0115 6.65509 13.7797 6.3184 14.5944C6.25142 14.7591 6.09425 14.8688 5.91661 14.8753C5.73897 14.8827 5.57343 14.7851 5.49345 14.627C5.09073 13.8318 4.66197 13.0487 3.97373 12.3958H1.7109C1.27004 12.3958 0.847805 12.2209 0.536233 11.9093C0.224655 11.5978 0.0498047 11.1755 0.0498047 10.7347V4.37777C0.0498047 3.93691 0.224662 3.51468 0.536233 3.2031C0.847805 2.89153 1.27004 2.71667 1.7109 2.71667L10.3307 2.7176C10.7715 2.7176 11.1938 2.89246 11.5053 3.20403C11.8169 3.5156 11.9918 3.93784 11.9918 4.3787V10.7356ZM5.14571 8.99895V9.11394H6.42751V8.99895C6.42976 8.77799 6.45794 8.59198 6.51206 8.44092C6.56842 8.28985 6.65297 8.15683 6.76571 8.04184C6.8807 7.92685 7.02725 7.81637 7.20537 7.7104C7.41731 7.58414 7.60107 7.44322 7.75665 7.28764C7.91222 7.12982 8.03285 6.94944 8.11852 6.74652C8.20646 6.54134 8.25042 6.30685 8.25042 6.04306C8.25042 5.64848 8.15234 5.31141 7.95618 5.03183C7.76003 4.75225 7.48946 4.53918 7.1445 4.39262C6.79953 4.24381 6.4027 4.16941 5.95402 4.16941C5.54592 4.16941 5.17277 4.24269 4.83457 4.38924C4.49636 4.53354 4.22467 4.75337 4.0195 5.04874C3.81432 5.34185 3.70609 5.71387 3.69482 6.16481H5.07469C5.08146 5.97992 5.12655 5.82548 5.20997 5.70147C5.2934 5.57521 5.40049 5.48051 5.53127 5.41738C5.66204 5.35199 5.8007 5.3193 5.94726 5.3193C6.09832 5.3193 6.23586 5.35087 6.35986 5.414C6.48613 5.47713 6.58646 5.56732 6.66087 5.68456C6.73527 5.8018 6.77247 5.93821 6.77247 6.09379C6.77247 6.24034 6.73978 6.37337 6.67439 6.49287C6.60901 6.61011 6.52107 6.71721 6.41059 6.81416C6.30012 6.91111 6.17498 7.00468 6.03519 7.09487C5.84805 7.21211 5.68797 7.34288 5.55494 7.48718C5.42191 7.63148 5.32045 7.82088 5.25056 8.05537C5.18292 8.28985 5.14797 8.60438 5.14571 8.99895ZM5.23703 11.0417C5.39711 11.1995 5.58989 11.2784 5.81536 11.2784C5.95966 11.2784 6.09268 11.2424 6.21444 11.1702C6.33619 11.0958 6.43427 10.9977 6.50867 10.876C6.58533 10.752 6.62479 10.6156 6.62705 10.4668C6.62479 10.2458 6.54249 10.0564 6.38016 9.89858C6.21782 9.74075 6.02955 9.66183 5.81536 9.66183C5.58989 9.66183 5.39711 9.74075 5.23703 9.89858C5.0792 10.0564 5.00141 10.2458 5.00367 10.4668C5.00141 10.69 5.0792 10.8816 5.23703 11.0417Z" fill="#D0D1D1"/>
</svg>
