<svg width="20" height="20" viewBox="0 0 20 20" fill="none" xmlns="http://www.w3.org/2000/svg">
<g clip-path="url(#clip0_4840_22251)">
<path d="M8.42927 10.3071H1.37927C1.23364 10.3071 1.08948 10.3363 0.955368 10.3931C0.82126 10.4498 0.699946 10.533 0.598647 10.6376C0.497348 10.7423 0.418134 10.8662 0.365721 11.0021C0.313307 11.138 0.288766 11.283 0.293556 11.4286V18.4786C0.293556 18.7665 0.407944 19.0427 0.611555 19.2463C0.815166 19.4499 1.09132 19.5643 1.37927 19.5643H8.42927C8.71722 19.5643 8.99338 19.4499 9.19699 19.2463C9.4006 19.0427 9.51499 18.7665 9.51499 18.4786V11.4286C9.51978 11.283 9.49523 11.138 9.44282 11.0021C9.39041 10.8662 9.31119 10.7423 9.2099 10.6376C9.1086 10.533 8.98728 10.4498 8.85317 10.3931C8.71907 10.3363 8.5749 10.3071 8.42927 10.3071ZM6.28641 15.45L4.90784 14.3786L3.53641 15.45V10.8428H6.28641V15.45Z" fill="white"/>
<path d="M18.6207 10.3071H11.5707C11.425 10.3071 11.2809 10.3363 11.1468 10.3931C11.0127 10.4498 10.8914 10.533 10.7901 10.6376C10.6888 10.7423 10.6095 10.8662 10.5571 11.0021C10.5047 11.138 10.4802 11.283 10.485 11.4286V18.4786C10.485 18.7665 10.5994 19.0427 10.803 19.2463C11.0066 19.4499 11.2827 19.5643 11.5707 19.5643H18.6207C18.9086 19.5643 19.1848 19.4499 19.3884 19.2463C19.592 19.0427 19.7064 18.7665 19.7064 18.4786V11.4286C19.7112 11.283 19.6866 11.138 19.6342 11.0021C19.5818 10.8662 19.5026 10.7423 19.4013 10.6376C19.3 10.533 19.1787 10.4498 19.0446 10.3931C18.9105 10.3363 18.7663 10.3071 18.6207 10.3071ZM16.4778 15.45L15.1064 14.3786L13.7278 15.45V10.8428H16.4778V15.45Z" fill="white"/>
<path d="M6.47115 9.69286H13.5283C13.815 9.69098 14.0893 9.57576 14.2914 9.37235C14.4935 9.16895 14.6069 8.89387 14.6069 8.60715V1.55715C14.6069 1.27043 14.4935 0.995355 14.2914 0.791948C14.0893 0.588541 13.815 0.473322 13.5283 0.471436H6.47115C6.18444 0.473322 5.91012 0.588541 5.70805 0.791948C5.50598 0.995355 5.39257 1.27043 5.39258 1.55715V8.60715C5.39257 8.89387 5.50598 9.16895 5.70805 9.37235C5.91012 9.57576 6.18444 9.69098 6.47115 9.69286ZM8.61401 1.00001H11.3711V5.61429L9.99972 4.54286L8.62115 5.61429L8.61401 1.00001Z" fill="white"/>
</g>
<defs>
<clipPath id="clip0_4840_22251">
<rect width="20" height="20" fill="white"/>
</clipPath>
</defs>
</svg>
