<svg width="32" height="32" viewBox="0 0 32 32" fill="none" xmlns="http://www.w3.org/2000/svg">
<path d="M13.8374 31.0918L15.3509 31.7404C15.4806 31.7837 15.6536 31.8269 15.7833 31.8269C15.9131 31.8269 16.086 31.7837 16.2158 31.7404L17.9455 31.0053C24.2158 28.4107 28.2374 22.3566 28.2374 15.5674V7.17826C28.2374 6.78907 28.0212 6.39988 27.6752 6.22691L16.3455 0.172852L4.32388 6.22691C3.97793 6.39988 3.76172 6.78907 3.76172 7.17826V15.7404C3.76172 22.3999 7.69685 28.4107 13.8374 31.0918ZM11.3725 14.1404L14.3563 17.6431L21.2752 12.0215L22.659 13.708L14.9617 20.0215L14.1401 20.7134L13.4482 19.8918L9.77253 15.5674L11.3725 14.1404Z" fill="black"/>
</svg>
