<svg width="24" height="24" viewBox="0 0 24 24" fill="none" xmlns="http://www.w3.org/2000/svg">
<g clip-path="url(#clip0_5029_9653)">
<path d="M23.3001 9.27505L12.8751 0.300049C12.3501 -0.0749512 11.6501 -0.0749512 11.1501 0.300049L0.700146 9.27505C0.0501458 9.75005 -0.0748543 10.675 0.400146 11.3C0.875146 11.95 1.80015 12.075 2.42515 11.6L4.07515 10.375V22.55C4.07515 23.35 4.72515 24 5.52515 24H18.4501C19.2501 24 19.9001 23.35 19.9001 22.55V10.375L21.5501 11.6C21.8001 11.8 22.1251 11.9 22.4251 11.9C22.8751 11.9 23.3001 11.7 23.6001 11.325C24.0751 10.675 23.9251 9.75005 23.3001 9.27505ZM9.72515 14.3C9.60015 14.6 9.47515 14.875 9.37515 15.15C9.15015 15.675 9.00015 16.125 8.97515 16.575C8.95015 17 9.07515 17.5001 9.25015 18.0251V18.05C9.35015 18.35 9.20015 18.6751 8.90015 18.7751C8.67515 18.8501 8.42515 18.775 8.27515 18.6C7.85015 18.1 7.47515 17.4 7.42515 16.625C7.40015 16.225 7.45015 15.85 7.52515 15.5C7.62515 15.15 7.72515 14.825 7.85015 14.525L8.22515 13.7C8.32515 13.475 8.40015 13.275 8.45015 13.075C8.50015 12.875 8.50015 12.65 8.47515 12.425C8.47515 12.3 8.45015 12.2 8.40015 12.075C8.37515 11.975 8.32515 11.825 8.30015 11.775L8.25015 11.575C8.17515 11.275 8.37515 11 8.65015 10.925C8.85015 10.875 9.05015 10.95 9.17515 11.075C9.35015 11.25 9.42515 11.375 9.55015 11.55C9.65015 11.725 9.72515 11.875 9.80015 12.075C9.92515 12.45 10.0001 12.825 9.97515 13.225C9.97515 13.575 9.85015 13.975 9.72515 14.3ZM13.0251 14.3C12.9001 14.6 12.7751 14.875 12.6751 15.15C12.4501 15.675 12.3001 16.125 12.2751 16.575C12.2501 17 12.3751 17.5001 12.5501 18.0251V18.05C12.6501 18.35 12.5001 18.6751 12.2001 18.7751C11.9751 18.8501 11.7251 18.775 11.5751 18.6C11.1501 18.1 10.7751 17.4 10.7251 16.625C10.7001 16.225 10.7501 15.85 10.8251 15.5C10.9251 15.15 11.0251 14.825 11.1501 14.525L11.5251 13.7C11.6251 13.475 11.7001 13.275 11.7501 13.075C11.8001 12.875 11.8001 12.65 11.7751 12.425C11.7751 12.3 11.7501 12.2 11.7001 12.075C11.6751 11.975 11.6251 11.825 11.6001 11.775L11.5501 11.575C11.4751 11.275 11.6751 11 11.9501 10.925C12.1501 10.875 12.3501 10.95 12.4751 11.075C12.6501 11.25 12.7251 11.375 12.8501 11.55C12.9501 11.725 13.0251 11.875 13.1001 12.075C13.2251 12.45 13.3001 12.825 13.2751 13.225C13.2751 13.575 13.1501 13.975 13.0251 14.3ZM16.3001 14.3C16.1751 14.6 16.0501 14.875 15.9501 15.15C15.7251 15.675 15.5751 16.125 15.5501 16.575C15.5251 17 15.6501 17.5001 15.8251 18.0251V18.05C15.9251 18.35 15.7751 18.6751 15.4751 18.7751C15.2501 18.8501 15.0001 18.775 14.8501 18.6C14.4251 18.1 14.0501 17.4 14.0001 16.625C13.9751 16.225 14.0251 15.85 14.1001 15.5C14.2001 15.15 14.3001 14.825 14.4251 14.525L14.8001 13.7C14.9001 13.475 14.9751 13.275 15.0251 13.075C15.0751 12.875 15.0751 12.65 15.0501 12.425C15.0501 12.3 15.0251 12.2 14.9751 12.075C14.9501 11.975 14.9001 11.825 14.8751 11.775L14.8251 11.575C14.7501 11.275 14.9501 11 15.2251 10.925C15.4251 10.875 15.6251 10.95 15.7501 11.075C15.9251 11.25 16.0001 11.375 16.1251 11.55C16.2251 11.725 16.3001 11.875 16.3751 12.075C16.5001 12.45 16.5751 12.825 16.5501 13.225C16.5501 13.575 16.4251 13.975 16.3001 14.3Z" fill="#15181A"/>
</g>
<defs>
<clipPath id="clip0_5029_9653">
<rect width="24" height="24" fill="white"/>
</clipPath>
</defs>
</svg>
