<svg width="28" height="28" viewBox="0 0 28 28" fill="none" xmlns="http://www.w3.org/2000/svg">
<path d="M0 13.44C0 7.1043 0 3.93648 1.96824 1.96824C3.93648 0 7.1043 0 13.44 0H14.56C20.8957 0 24.0635 0 26.0318 1.96824C28 3.93648 28 7.1043 28 13.44V14.56C28 20.8957 28 24.0635 26.0318 26.0318C24.0635 28 20.8957 28 14.56 28H13.44C7.1043 28 3.93648 28 1.96824 26.0318C0 24.0635 0 20.8957 0 14.56V13.44Z" fill="url(#paint0_radial_2828_16598)"/>
<path d="M0 13.44C0 7.1043 0 3.93648 1.96824 1.96824C3.93648 0 7.1043 0 13.44 0H14.56C20.8957 0 24.0635 0 26.0318 1.96824C28 3.93648 28 7.1043 28 13.44V14.56C28 20.8957 28 24.0635 26.0318 26.0318C24.0635 28 20.8957 28 14.56 28H13.44C7.1043 28 3.93648 28 1.96824 26.0318C0 24.0635 0 20.8957 0 14.56V13.44Z" fill="url(#paint1_radial_2828_16598)"/>
<path d="M14.0007 5.6001C11.7194 5.6001 11.4331 5.61007 10.5371 5.65085C9.64283 5.6918 9.03243 5.83337 8.49833 6.0411C7.94585 6.25565 7.4772 6.54265 7.0103 7.00972C6.54305 7.47662 6.25605 7.94527 6.0408 8.49757C5.83255 9.03185 5.6908 9.64242 5.65055 10.5363C5.61048 11.4323 5.59998 11.7188 5.59998 14.0001C5.59998 16.2814 5.61013 16.5668 5.65073 17.4628C5.69185 18.3571 5.83343 18.9675 6.04098 19.5016C6.2557 20.054 6.5427 20.5227 7.00978 20.9896C7.4765 21.4568 7.94515 21.7445 8.49728 21.9591C9.03173 22.1668 9.6423 22.3084 10.5364 22.3493C11.4324 22.3901 11.7185 22.4001 13.9996 22.4001C16.2811 22.4001 16.5665 22.3901 17.4625 22.3493C18.3568 22.3084 18.9679 22.1668 19.5023 21.9591C20.0546 21.7445 20.5226 21.4568 20.9893 20.9896C21.4566 20.5227 21.7435 20.054 21.9588 19.5017C22.1653 18.9675 22.3071 18.3569 22.3491 17.463C22.3893 16.567 22.3998 16.2814 22.3998 14.0001C22.3998 11.7188 22.3893 11.4325 22.3491 10.5365C22.3071 9.64225 22.1653 9.03185 21.9588 8.49775C21.7435 7.94527 21.4566 7.47662 20.9893 7.00972C20.5221 6.54247 20.0548 6.25547 19.5018 6.0411C18.9663 5.83337 18.3556 5.6918 17.4613 5.65085C16.5653 5.61007 16.2801 5.6001 13.9981 5.6001H14.0007ZM13.2471 7.11385C13.4708 7.1135 13.7203 7.11385 14.0007 7.11385C16.2435 7.11385 16.5093 7.1219 17.395 7.16215C18.214 7.1996 18.6585 7.33645 18.9546 7.45142C19.3466 7.60367 19.6261 7.78567 19.9199 8.07967C20.2139 8.37367 20.3959 8.65367 20.5485 9.04567C20.6635 9.34142 20.8005 9.78592 20.8378 10.6049C20.878 11.4904 20.8868 11.7564 20.8868 13.9982C20.8868 16.2399 20.878 16.5059 20.8378 17.3914C20.8003 18.2104 20.6635 18.6549 20.5485 18.9507C20.3962 19.3427 20.2139 19.6218 19.9199 19.9156C19.6259 20.2096 19.3467 20.3916 18.9546 20.5439C18.6588 20.6594 18.214 20.7959 17.395 20.8333C16.5095 20.8736 16.2435 20.8823 14.0007 20.8823C11.7577 20.8823 11.4919 20.8736 10.6064 20.8333C9.78738 20.7955 9.34288 20.6587 9.0466 20.5437C8.6546 20.3914 8.3746 20.2094 8.0806 19.9154C7.7866 19.6214 7.6046 19.3421 7.452 18.95C7.33703 18.6542 7.2 18.2097 7.16273 17.3907C7.12248 16.5052 7.11443 16.2392 7.11443 13.9961C7.11443 11.7529 7.12248 11.4883 7.16273 10.6028C7.20018 9.78382 7.33703 9.33932 7.452 9.04322C7.60425 8.65122 7.7866 8.37122 8.0806 8.07722C8.3746 7.78322 8.6546 7.60122 9.0466 7.44862C9.3427 7.33312 9.78738 7.19662 10.6064 7.159C11.3813 7.124 11.6816 7.1135 13.2471 7.11175V7.11385ZM18.4845 8.5086C17.928 8.5086 17.4765 8.95957 17.4765 9.51625C17.4765 10.0727 17.928 10.5242 18.4845 10.5242C19.041 10.5242 19.4925 10.0727 19.4925 9.51625C19.4925 8.95975 19.041 8.5086 18.4845 8.5086ZM14.0007 9.68635C11.6184 9.68635 9.68693 11.6178 9.68693 14.0001C9.68693 16.3824 11.6184 18.313 14.0007 18.313C16.3829 18.313 18.3137 16.3824 18.3137 14.0001C18.3137 11.6178 16.3829 9.68635 14.0007 9.68635ZM14.0007 11.2001C15.547 11.2001 16.8007 12.4536 16.8007 14.0001C16.8007 15.5464 15.547 16.8001 14.0007 16.8001C12.4542 16.8001 11.2007 15.5464 11.2007 14.0001C11.2007 12.4536 12.4542 11.2001 14.0007 11.2001Z" fill="white"/>
<defs>
<radialGradient id="paint0_radial_2828_16598" cx="0" cy="0" r="1" gradientUnits="userSpaceOnUse" gradientTransform="translate(7.43754 30.1566) rotate(-90) scale(27.7501 25.8097)">
<stop stop-color="#FFDD55"/>
<stop offset="0.1" stop-color="#FFDD55"/>
<stop offset="0.5" stop-color="#FF543E"/>
<stop offset="1" stop-color="#C837AB"/>
</radialGradient>
<radialGradient id="paint1_radial_2828_16598" cx="0" cy="0" r="1" gradientUnits="userSpaceOnUse" gradientTransform="translate(-4.69015 2.01707) rotate(78.6806) scale(12.4044 51.1314)">
<stop stop-color="#3771C8"/>
<stop offset="0.128" stop-color="#3771C8"/>
<stop offset="1" stop-color="#6600FF" stop-opacity="0"/>
</radialGradient>
</defs>
</svg>
