<svg width="12" height="12" viewBox="0 0 12 12" fill="none" xmlns="http://www.w3.org/2000/svg">
<path d="M5.99946 3.16347H5.99999C6.63068 3.16347 7.14257 3.67483 7.14257 4.30605C7.14257 4.93726 6.63068 5.44862 5.99999 5.44862C5.36878 5.44862 4.85689 4.93726 4.85689 4.30605C4.85689 3.67483 5.36825 3.16347 5.99946 3.16347ZM5.99999 2.42465H5.99946C4.96075 2.42465 4.1186 3.26734 4.1186 4.30606C4.1186 5.3453 4.96075 6.18747 6.00001 6.18747C7.03872 6.18747 7.88087 5.34531 7.88087 4.30606C7.88087 3.26735 7.0387 2.42465 5.99999 2.42465ZM5.99999 0.833013C7.91809 0.833013 9.47304 2.38783 9.47304 4.30606C9.47304 4.89946 9.32549 5.45822 9.06342 5.9472H9.06288C8.54833 6.94915 7.78288 8.00915 6.76598 9.02656C6.51295 9.27958 6.25674 9.51715 5.99999 9.73928C5.74272 9.51715 5.48703 9.27958 5.23348 9.02656C4.20329 7.99637 3.43143 6.92192 2.91693 5.90833C2.66765 5.4284 2.52648 4.88401 2.52648 4.30606C2.52648 2.38797 4.08122 0.833013 5.99999 0.833013ZM5.99946 0.0947267C3.67323 0.094194 1.7876 1.97982 1.7876 4.30605C1.7876 4.99905 1.95486 5.65264 2.25102 6.22905L2.25155 6.23011C2.83163 7.36897 3.68228 8.51952 4.71141 9.54866C5.05073 9.8885 5.40388 10.2076 5.76557 10.5043L5.7661 10.5048C5.82949 10.5565 5.91099 10.5874 5.99994 10.5874C6.08623 10.5874 6.16667 10.5581 6.22952 10.508L6.23005 10.5075C6.59281 10.2102 6.94756 9.88957 7.28847 9.54866C8.33623 8.5009 9.1981 7.3258 9.77874 6.16671L9.77927 6.16564C10.0557 5.60421 10.2118 4.97406 10.2118 4.30605C10.2118 1.97982 8.32617 0.0947321 5.99994 0.0947321L5.99946 0.0947267ZM3.08782 8.74741H3.08729C3.02124 8.74741 2.95839 8.76126 2.90512 8.79162L2.90406 8.79215C2.35595 9.09631 2.00225 9.5054 2.00225 10.0189C2.00225 11.2723 4.10838 11.904 5.99934 11.904H5.99987C7.89082 11.904 9.99696 11.2722 9.99696 10.0189C9.99696 9.50381 9.64113 9.09364 9.09036 8.78896L9.08929 8.78843C9.03656 8.75967 8.97477 8.74742 8.91085 8.74742C8.70684 8.74742 8.54118 8.91254 8.54118 9.11655C8.54118 9.25931 8.62108 9.38288 8.7388 9.44467H8.73933C9.08184 9.64122 9.25869 9.85376 9.25869 10.0189C9.25869 10.4397 8.11611 11.1652 5.99987 11.1652C3.8831 11.1652 2.74105 10.4397 2.74105 10.0189C2.74105 9.85268 2.91896 9.63908 3.2652 9.44147C3.38026 9.37861 3.45804 9.25662 3.45804 9.11654C3.45804 8.91252 3.29238 8.7474 3.08837 8.7474L3.08782 8.74741Z" fill="#15181A"/>
</svg>
