<svg width="60" height="60" viewBox="0 0 60 60" fill="none" xmlns="http://www.w3.org/2000/svg">
<path d="M54.0614 24.7848C53.9911 24.7777 53.9203 24.7777 53.85 24.7848H38.5227C39.8864 19.576 39.9409 12.232 36.8523 6.99597L35.6932 5.00357C35.5815 4.81312 35.4105 4.66425 35.2062 4.57956C35.0019 4.49487 34.7755 4.47901 34.5614 4.53437L29.8705 5.70397C29.64 5.7605 29.4364 5.89521 29.2946 6.08503C29.1528 6.27484 29.0816 6.50794 29.0932 6.74437L29.2295 9.42357C29.362 12.1193 28.9283 14.8129 27.9561 17.3318C26.9839 19.8506 25.4948 22.139 23.5841 24.0504L21.1841 26.444C21.0884 26.5382 21.0125 26.6504 20.9607 26.7742C20.9088 26.8979 20.8821 27.0307 20.8821 27.1648C20.8821 27.2989 20.9088 27.4316 20.9607 27.5554C21.0125 27.6791 21.0884 27.7913 21.1841 27.8856C21.3759 28.0766 21.6358 28.1839 21.9068 28.1839C22.1778 28.1839 22.4378 28.0766 22.6295 27.8856L25.0295 25.492C27.1432 23.3797 28.7907 20.85 29.8662 18.0652C30.9418 15.2805 31.4216 12.3022 31.275 9.32157L31.1795 7.47877L34.3159 6.69677L35.0932 8.00917C37.6977 12.4224 38.1477 19.6032 36.1909 25.458C36.1909 25.458 36.1909 25.4988 36.1909 25.5124C36.1886 25.5486 36.1886 25.5849 36.1909 25.6212C36.1909 25.6552 36.1909 25.6892 36.1909 25.7232C36.1909 25.7572 36.1909 25.764 36.1909 25.7844C36.1877 25.7978 36.1877 25.8118 36.1909 25.8252C36.1875 25.8591 36.1875 25.8933 36.1909 25.9272V26.0224C36.1879 26.054 36.1879 26.0859 36.1909 26.1176C36.188 26.1492 36.188 26.1811 36.1909 26.2128L36.2386 26.2944C36.2544 26.3231 36.2727 26.3504 36.2932 26.376C36.3114 26.4048 36.3319 26.432 36.3545 26.4576L36.4159 26.5256L36.4977 26.5868L36.5795 26.648L36.6614 26.6888L36.7636 26.7364H36.7977H36.8523H36.9545H53.6523C53.718 26.7434 53.7843 26.7434 53.85 26.7364C54.3342 26.6991 54.8209 26.7607 55.2805 26.9174C55.74 27.074 56.1627 27.3225 56.5227 27.6476C57.0697 28.301 57.3626 29.1289 57.3477 29.98C57.3157 30.643 57.0713 31.2782 56.6503 31.7923C56.2293 32.3064 55.6541 32.6723 55.0091 32.836H41.9318C41.6606 32.836 41.4004 32.9434 41.2086 33.1347C41.0168 33.326 40.9091 33.5854 40.9091 33.856C40.9091 34.1265 41.0168 34.3859 41.2086 34.5772C41.4004 34.7685 41.6606 34.876 41.9318 34.876H54.5455C54.834 35.2999 55.012 35.7889 55.0633 36.2987C55.1146 36.8084 55.0375 37.323 54.8392 37.7956C54.6408 38.2682 54.3274 38.684 53.9273 39.0054C53.5272 39.3267 53.053 39.5435 52.5477 39.636H42.6136C42.3424 39.636 42.0823 39.7434 41.8905 39.9347C41.6987 40.126 41.5909 40.3854 41.5909 40.656C41.5909 40.9265 41.6987 41.1859 41.8905 41.3772C42.0823 41.5685 42.3424 41.676 42.6136 41.676H51.5659C51.8957 42.1747 52.0734 42.7582 52.0773 43.3556C52.0759 44.069 51.8296 44.7604 51.3793 45.3147C50.9289 45.869 50.3018 46.2528 49.6023 46.402H49.5136H41.25C40.9788 46.402 40.7186 46.5094 40.5268 46.7007C40.335 46.892 40.2273 47.1515 40.2273 47.422C40.2273 47.6925 40.335 47.9519 40.5268 48.1432C40.7186 48.3345 40.9788 48.442 41.25 48.442H49.3364C49.6226 48.892 49.7881 49.4078 49.8167 49.9399C49.8454 50.4721 49.7365 51.0026 49.5002 51.4806C49.264 51.9586 48.9085 52.368 48.4679 52.6695C48.0272 52.9709 47.5163 53.1543 46.9841 53.202H46.875H28.8614L15.6818 48.9724V25.7844C15.6818 25.5138 15.5741 25.2544 15.3823 25.0631C15.1905 24.8718 14.9303 24.7644 14.6591 24.7644H1.02273C0.751483 24.7644 0.491348 24.8718 0.29955 25.0631C0.107751 25.2544 0 25.5138 0 25.7844L0 54.3444C0 54.6149 0.107751 54.8743 0.29955 55.0656C0.491348 55.2569 0.751483 55.3644 1.02273 55.3644H14.6591C14.9303 55.3644 15.1905 55.2569 15.3823 55.0656C15.5741 54.8743 15.6818 54.6149 15.6818 54.3444V51.1212L28.3705 55.31C28.4737 55.345 28.5819 55.3634 28.6909 55.3644H47.0455C47.1452 55.3652 47.2443 55.3491 47.3386 55.3168C48.1464 55.2148 48.9184 54.9236 49.5918 54.4671C50.2651 54.0106 50.8206 53.4017 51.2129 52.6902C51.6052 51.9787 51.8232 51.1847 51.849 50.373C51.8748 49.5614 51.7077 48.7553 51.3614 48.0204C52.186 47.5755 52.8748 46.9166 53.3549 46.1135C53.835 45.3103 54.0885 44.3926 54.0886 43.4576C54.0865 42.8685 53.9827 42.2843 53.7818 41.7304C53.9115 41.6911 54.032 41.6264 54.1362 41.5399C54.2404 41.4535 54.3263 41.3472 54.3886 41.2272C55.5533 40.6027 56.4328 39.5557 56.8452 38.3027C57.2576 37.0497 57.1715 35.6866 56.6045 34.4952C57.3954 34.0729 58.0626 33.4529 58.5407 32.6959C59.0189 31.9389 59.2915 31.0709 59.3318 30.1772C59.3766 28.7733 58.8897 27.4041 57.9682 26.342C57.4541 25.8355 56.8436 25.4368 56.1727 25.1694C55.5017 24.9019 54.7838 24.7712 54.0614 24.7848ZM13.6364 53.3244H2.04545V26.8044H13.6364V53.3244Z" fill="black"/>
</svg>
