<svg width="24" height="24" fill="none" xmlns="http://www.w3.org/2000/svg"><path d="M23.488 6.967L12.742 2.152a1.774 1.774 0 00-1.446 0L.55 6.967c-.444.2-.51.482-.51.632 0 .22.137.413.367.515L11.44 13.06c.193.086.446.098.58.098.134 0 .387-.012.579-.099L23.63 8.115c.231-.103.37-.295.37-.515 0-.15-.066-.433-.512-.633z" fill="#15181A"/><path d="M23.488 11.477l-2.796-1.253L12.6 13.85c-.192.087-.445.1-.58.1-.133 0-.386-.013-.579-.1l-8.094-3.627L.55 11.477c-.444.2-.51.482-.51.633 0 .22.137.412.367.515l11.033 4.944c.15.066.364.1.58.1.215 0 .43-.033.579-.1l11.03-4.943c.232-.103.37-.295.37-.515 0-.152-.065-.435-.51-.634z" fill="#15181A"/><path d="M23.488 15.987l-2.763-1.239-8.126 3.642c-.149.066-.364.1-.58.1-.215 0-.43-.034-.58-.1l-8.125-3.642-2.764 1.24c-.444.198-.51.48-.51.63-.001.22.136.413.367.517l11.033 4.944c.15.066.364.1.58.1a1.5 1.5 0 00.579-.1l11.032-4.945c.23-.103.368-.296.368-.515 0-.151-.066-.433-.51-.632z" fill="#15181A"/></svg>