<svg width="16" height="16" viewBox="0 0 16 16" fill="none" xmlns="http://www.w3.org/2000/svg">
<path d="M8 6.1527C8.156 5.40603 9.03133 2.00003 11.588 2.00003C13.068 2.00003 14.6667 3.03403 14.6667 5.33536C14.6667 7.94003 12.2487 10.982 8 13.7547C3.75133 10.982 1.33333 7.94003 1.33333 5.33536C1.33333 3.0127 2.91267 1.9987 4.38467 1.9987C7 1.9987 7.81467 5.41603 8 6.1527ZM0 5.33536C0 8.04736 2.04 11.656 8 15.3334C13.96 11.656 16 8.04736 16 5.33536C16 0.0273635 9.568 -0.683303 8 2.84403C6.44133 -0.66397 0 -0.00263655 0 5.33536Z" fill="#5C5E5F"/>
</svg>
