<svg width="200" height="15" viewBox="0 0 200 15" fill="none" xmlns="http://www.w3.org/2000/svg">
<path d="M0 5.51108V14.319H3.50538V5.51108H0ZM18.5551 14.319H22.0605V0H17.0595L11.1237 9.89041L4.81405 0H0V3.78886H3.55212L9.90853 14.319H12.2455L18.5551 3.78886V14.319Z" fill="#131313"/>
<path d="M24.5557 10.7515V3.56744C24.5557 2.58332 24.9841 1.74682 25.841 1.05793C26.6979 0.352562 27.7417 0 28.9724 0H42.1994C43.4146 0 44.4585 0.360805 45.3309 1.08253C46.1878 1.77142 46.6162 2.60792 46.6162 3.59204V10.7515C46.6162 11.7356 46.1878 12.5803 45.3309 13.2856C44.4585 13.9745 43.4146 14.319 42.1994 14.319H28.9724C27.7417 14.319 26.6979 13.9745 25.841 13.2856C24.9841 12.5803 24.5557 11.7356 24.5557 10.7515ZM43.1342 8.41423V5.65869C43.0251 5.16663 42.698 4.7319 42.1527 4.35474C41.623 3.97745 40.9375 3.78886 40.0962 3.78886H31.0289C30.2033 3.78886 29.5099 3.97745 28.9491 4.35474C28.3882 4.71554 28.0922 5.16664 28.061 5.7079V8.46344C28.061 8.72583 28.1311 8.9801 28.2714 9.22613C28.4272 9.45568 28.6376 9.66074 28.9023 9.84121C29.1672 10.0215 29.4788 10.1692 29.8371 10.2841C30.1955 10.3825 30.5849 10.4317 31.0056 10.4317H40.213C40.9608 10.4317 41.6308 10.2349 42.2228 9.84121C42.8304 9.43108 43.1342 8.9555 43.1342 8.41423Z" fill="#131313"/>
<path d="M61.8251 14.319H58.3198V3.78886H49.1123V0H71.1728V3.78886H61.8251V14.319Z" fill="#131313"/>
<path d="M86.3803 14.319H82.8749V3.78886H73.6675V0H95.7274V3.78886H86.3803V14.319Z" fill="#131313"/>
<path d="M120.284 10.4317V14.319H102.64C101.41 14.319 100.365 13.9745 99.5084 13.2856C98.652 12.5803 98.2231 11.7356 98.2231 10.7515V5.41266H120.284V8.80788H101.729V10.4317H120.284ZM98.2231 3.78886V3.56744C98.2231 2.58332 98.652 1.74682 99.5084 1.05793C100.365 0.352562 101.41 0 102.64 0H120.284V3.78886H98.2231Z" fill="#131313"/>
<path d="M131.052 8.80788L126.612 14.319H122.779L128.435 7.08567L122.779 0H126.612L131.052 5.51108V8.80788Z" fill="#131313"/>
<path d="M150.841 14.3191H147.335V10.5303H150.841V14.3191Z" fill="#19BEFF"/>
<path d="M167.171 8.80788H156.888V14.319H153.383V5.41266H171.798V3.78886H153.383V0H171.027C171.649 0 172.234 0.081929 172.779 0.246031C173.325 0.393649 173.792 0.623195 174.181 0.934915C174.57 1.24651 174.874 1.64016 175.093 2.11586C175.326 2.59144 175.443 3.14919 175.443 3.78886V5.41266C175.443 6.65918 175.078 7.53664 174.345 8.04519C173.629 8.55361 172.514 8.80788 171.003 8.80788L175.443 14.319H171.611L167.171 8.80788Z" fill="#19BEFF"/>
<path d="M196.518 8.41423V0H200V10.7515C200 11.7356 199.571 12.5803 198.715 13.2856C197.842 13.9745 196.798 14.319 195.583 14.319H182.356C181.125 14.319 180.081 13.9745 179.225 13.2856C178.367 12.5803 177.939 11.7356 177.939 10.7515V0H181.445V8.46344C181.445 8.72583 181.515 8.9801 181.655 9.22613C181.811 9.45568 182.021 9.66074 182.286 9.84121C182.55 10.0215 182.862 10.1692 183.221 10.2841C183.578 10.3825 183.969 10.4317 184.389 10.4317H193.597C194.345 10.4317 195.014 10.2349 195.607 9.84121C196.214 9.43108 196.518 8.9555 196.518 8.41423Z" fill="#19BEFF"/>
<path d="M132.782 8.80788H136.568L141.008 14.319H144.841L139.185 7.08567L144.841 0H141.008L136.568 5.51108H132.782V8.80788Z" fill="#19BEFF"/>
</svg>
