<svg width="20" height="20" viewBox="0 0 20 20" fill="none" xmlns="http://www.w3.org/2000/svg">
<path d="M4.6875 10C4.6875 10.4315 4.33773 10.7813 3.90625 10.7813C3.47477 10.7813 3.125 10.4315 3.125 10C3.125 9.56855 3.47477 9.21879 3.90625 9.21879C4.33773 9.21879 4.6875 9.56855 4.6875 10ZM15.3125 10C15.3125 10.4315 15.6623 10.7813 16.0938 10.7813C16.5252 10.7813 16.875 10.4315 16.875 10C16.875 9.56855 16.5252 9.21879 16.0938 9.21879C15.6623 9.21879 15.3125 9.56855 15.3125 10ZM20 3.90625V16.0938C20 16.5252 19.6502 16.875 19.2188 16.875H0.78125C0.349766 16.875 0 16.5252 0 16.0938V3.90625C0 3.47477 0.349766 3.125 0.78125 3.125H19.2188C19.6502 3.125 20 3.47477 20 3.90625ZM18.4375 4.6875H1.5625V15.3125H18.4375V4.6875ZM6.25 10C6.25 7.93223 7.93223 6.25 10 6.25C12.0678 6.25 13.75 7.93223 13.75 10C13.75 12.0678 12.0678 13.75 10 13.75C7.93223 13.75 6.25 12.0678 6.25 10ZM7.8125 10C7.8125 11.2062 8.79383 12.1875 10 12.1875C11.2062 12.1875 12.1875 11.2062 12.1875 10C12.1875 8.79383 11.2062 7.8125 10 7.8125C8.79383 7.8125 7.8125 8.79383 7.8125 10Z" fill="#131313"/>
</svg>
