<svg width="12" height="12" viewBox="0 0 12 12" fill="none" xmlns="http://www.w3.org/2000/svg">
<path d="M0.908498 2.7816C0.718298 2.889 0.600098 3.093 0.600098 3.3138V8.6838C0.600098 8.9058 0.718298 9.1086 0.908498 9.216C1.8667 9.7566 4.7821 11.3994 5.7115 11.9232C5.8027 11.9742 5.9029 12 6.0037 12C6.1021 12 6.2005 11.9754 6.2899 11.9262C7.2193 11.4132 10.1239 9.8124 11.0863 9.2814C11.2801 9.1752 11.4001 8.97 11.4001 8.7468V3.3138C11.4001 3.093 11.2819 2.889 11.0911 2.7816C10.1341 2.2422 7.2247 0.6024 6.2917 0.0768C6.2011 0.0258 6.1003 0 6.0001 0C5.8993 0 5.7991 0.0258 5.7085 0.0768C4.7755 0.6024 1.8655 2.2422 0.908498 2.7816ZM10.5001 4.0506V8.5656L6.4501 10.7988V6.252L10.5001 4.0506ZM1.5001 8.5056V4.0308L5.5501 6.2808V10.7874L1.5001 8.5056ZM1.9417 3.2442L6.0001 0.9564L10.0807 3.2568L6.0001 5.4864L1.9417 3.2442Z" fill="url(#paint0_linear_2986_54102)"/>
<defs>
<linearGradient id="paint0_linear_2986_54102" x1="0.600098" y1="6" x2="11.4001" y2="6" gradientUnits="userSpaceOnUse">
<stop offset="1" stop-color="#3C82D2"/>
</linearGradient>
</defs>
</svg>
