<svg width="24" height="24" viewBox="0 0 24 24" fill="none" xmlns="http://www.w3.org/2000/svg">
<path fill-rule="evenodd" clip-rule="evenodd" d="M21.4108 13.1201L21.4018 13.1291L11.9971 22.5338L11.9828 22.5482C10.4207 24.1102 6.6217 22.844 3.49756 19.7198C0.373415 16.5956 -0.892957 12.7966 0.668969 11.2344L2.5301 9.37337C3.68971 9.76047 4.8574 10.1237 6.0251 10.487C6.95554 10.7765 7.88598 11.0659 8.81236 11.3674C8.89196 12.1421 9.5465 12.7463 10.3422 12.7463C11.1916 12.7463 11.8801 12.0578 11.8801 11.2084C11.8801 10.359 11.1916 9.67044 10.3422 9.67044C9.92163 9.67044 9.5405 9.83924 9.26283 10.1128C8.63531 9.91973 8.00813 9.72542 7.38093 9.5311C6.05616 9.12067 4.73133 8.71021 3.4031 8.31164C1.3387 7.37804 0.424209 5.34911 1.50436 3.18878C2.44136 1.31473 4.5905 1.05282 6.59736 1.65489L9.40596 2.49744L10.0972 1.80638C11.3989 0.504629 14.9868 1.98202 18.111 5.10624C21.2352 8.23038 22.7126 11.8183 21.4108 13.1201ZM18.595 11.897C19.2235 12.1558 19.7171 12.2572 20.0588 12.2597C20.4174 12.2624 20.5533 12.1413 20.5505 11.7681C20.5479 11.4264 20.4466 10.9328 20.1878 10.3042C19.6726 9.05304 18.637 7.51778 17.1682 6.04904C15.6995 4.58031 14.1642 3.54464 12.913 3.02944C12.2845 2.77064 11.7909 2.66931 11.4492 2.66678C11.0906 2.66404 10.9547 2.78518 10.9575 3.15838C10.9601 3.50011 11.0614 3.99371 11.3202 4.62224C11.8354 5.87344 12.871 7.40871 14.3398 8.87744C15.8085 10.3462 17.3438 11.3818 18.595 11.897ZM6.21423 2.93198L8.33516 3.56824L4.54136 7.31118C2.7495 6.79924 1.8635 5.45184 2.69696 3.78504C3.34403 2.49084 4.82823 2.51618 6.21423 2.93198ZM22.4711 21.1692C23.0898 20.844 23.4711 20.243 23.4711 19.5928C23.4711 18.5878 21.4711 16.0796 21.4711 16.0796C21.4711 16.0796 19.4711 18.5878 19.4711 19.5928C19.4711 20.243 19.8524 20.844 20.4711 21.1692C21.0898 21.4942 21.8524 21.4942 22.4711 21.1692Z" fill="#15181A"/>
</svg>
