<svg width="24" height="24" viewBox="0 0 24 24" fill="none" xmlns="http://www.w3.org/2000/svg">
<g clip-path="url(#clip0_5029_14253)">
<path d="M11.6716 0.108154C11.1142 0.108154 10.5561 0.296769 10.1032 0.670754L7.87873 2.50744L5.00251 2.78481C3.83305 2.8963 2.89405 3.83084 2.78247 5.00032L2.50964 7.87652L0.668433 10.1056C-0.0795817 11.0114 -0.0795817 12.3364 0.668433 13.2422L2.50964 15.4701L2.78247 18.3464C2.89396 19.5158 3.83305 20.4514 5.00251 20.563L7.87873 20.8358L10.1032 22.6759C11.0091 23.4239 12.3341 23.4239 13.2399 22.6759L15.4678 20.8358L18.344 20.563C19.5135 20.4515 20.4491 19.5158 20.5607 18.3464L20.8369 15.4701L22.6736 13.2422C23.4216 12.3364 23.4216 11.0114 22.6736 10.1056L20.8369 7.87652L20.5607 5.00032C20.4492 3.83084 19.5135 2.89638 18.344 2.78481L15.4678 2.50744L13.2399 0.670754C12.787 0.296747 12.229 0.108154 11.6716 0.108154ZM8.52702 6.81218C8.98193 6.81199 9.41832 6.99245 9.74021 7.3139C9.89967 7.47325 10.0262 7.66247 10.1125 7.87073C10.1988 8.07899 10.2432 8.30221 10.2432 8.52764C10.2432 8.75308 10.1988 8.9763 10.1125 9.18456C10.0262 9.39282 9.89967 9.58203 9.74021 9.74138C9.41843 10.0631 8.98203 10.2438 8.52702 10.2438C8.07201 10.2438 7.63564 10.0631 7.31386 9.74138C7.1544 9.58203 7.0279 9.39282 6.94159 9.18456C6.85529 8.9763 6.81086 8.75308 6.81086 8.52764C6.81086 8.30221 6.85529 8.07899 6.94159 7.87073C7.0279 7.66247 7.1544 7.47325 7.31386 7.3139C7.63576 6.99245 8.07211 6.81199 8.52702 6.81218ZM14.8556 7.59126C15.0934 7.59122 15.3216 7.68526 15.4904 7.85285C15.5744 7.93653 15.6411 8.03597 15.6866 8.14548C15.7321 8.255 15.7555 8.37242 15.7555 8.491C15.7555 8.60959 15.7321 8.72701 15.6866 8.83652C15.6411 8.94604 15.5744 9.04548 15.4904 9.12916L9.12684 15.4938C8.95798 15.6625 8.72905 15.7572 8.49037 15.7572C8.25168 15.7572 8.02279 15.6625 7.85392 15.4938C7.76972 15.4101 7.7029 15.3106 7.6573 15.201C7.6117 15.0914 7.58822 14.9738 7.58822 14.8551C7.58822 14.7364 7.6117 14.6188 7.6573 14.5092C7.7029 14.3996 7.76972 14.3001 7.85392 14.2164L14.2186 7.85285C14.3879 7.6847 14.617 7.59061 14.8556 7.59126ZM14.8184 13.1024C15.2733 13.1022 15.7097 13.2827 16.0315 13.6042C16.191 13.7635 16.3175 13.9527 16.4038 14.161C16.4901 14.3692 16.5346 14.5925 16.5346 14.8179C16.5346 15.0433 16.4901 15.2666 16.4038 15.4748C16.3175 15.6831 16.191 15.8723 16.0315 16.0316C15.7098 16.3533 15.2734 16.5341 14.8184 16.5341C14.3634 16.5341 13.927 16.3533 13.6052 16.0316C13.4457 15.8723 13.3192 15.6831 13.2329 15.4748C13.1466 15.2666 13.1022 15.0433 13.1022 14.8179C13.1022 14.5925 13.1466 14.3692 13.2329 14.161C13.3192 13.9527 13.4457 13.7635 13.6052 13.6042C13.9271 13.2827 14.3635 13.1022 14.8184 13.1024Z" fill="#15181A"/>
</g>
<defs>
<clipPath id="clip0_5029_14253">
<rect width="24" height="24" fill="white"/>
</clipPath>
</defs>
</svg>
