<svg width="20" height="20" viewBox="0 0 20 20" fill="none" xmlns="http://www.w3.org/2000/svg">
<g clip-path="url(#clip0_2828_4662)">
<path d="M4.6875 0C2.10281 0 0 2.10281 0 4.6875C0 7.27219 2.10281 9.375 4.6875 9.375C7.27219 9.375 9.375 7.27219 9.375 4.6875C9.375 2.10281 7.27219 0 4.6875 0ZM4.6875 7.8125C2.96438 7.8125 1.5625 6.41062 1.5625 4.6875C1.5625 2.96438 2.96438 1.5625 4.6875 1.5625C6.41062 1.5625 7.8125 2.96438 7.8125 4.6875C7.8125 6.41062 6.41062 7.8125 4.6875 7.8125Z" fill="#131313"/>
<path d="M15.3125 10.625C12.7278 10.625 10.625 12.7278 10.625 15.3125C10.625 17.8972 12.7278 20 15.3125 20C17.8972 20 20 17.8972 20 15.3125C20 12.7278 17.8972 10.625 15.3125 10.625ZM15.3125 18.4375C13.5894 18.4375 12.1875 17.0356 12.1875 15.3125C12.1875 13.5894 13.5894 12.1875 15.3125 12.1875C17.0356 12.1875 18.4375 13.5894 18.4375 15.3125C18.4375 17.0356 17.0356 18.4375 15.3125 18.4375Z" fill="#131313"/>
<path d="M8.83367 14.76L7.89656 13.8229C7.59144 13.5178 7.0968 13.5178 6.79172 13.8229C6.5993 14.0154 6.52852 14.2831 6.57883 14.5313H5.46875V11.7188C5.46875 11.2873 5.11898 10.9375 4.6875 10.9375C4.25602 10.9375 3.90625 11.2873 3.90625 11.7188V15.3125C3.90625 15.744 4.25602 16.0938 4.6875 16.0938H6.57879C6.52852 16.3419 6.59926 16.6097 6.79168 16.8021C7.09672 17.1071 7.59141 17.1072 7.89652 16.8021L8.83363 15.865C9.13852 15.5601 9.13719 15.0636 8.83367 14.76Z" fill="#131313"/>
<path d="M15.3126 3.90627H13.4213C13.4716 3.65815 13.4008 3.39038 13.2084 3.19795C12.9033 2.89284 12.4086 2.89284 12.1036 3.19795L11.1665 4.13506C10.8638 4.43764 10.8599 4.93338 11.1664 5.23999L12.1035 6.17709C12.4086 6.48213 12.9032 6.48221 13.2084 6.17709C13.4008 5.98467 13.4716 5.7169 13.4213 5.46877H14.5313V8.28127C14.5313 8.71276 14.8811 9.06252 15.3126 9.06252C15.7441 9.06252 16.0938 8.71276 16.0938 8.28127V4.68752C16.0938 4.25604 15.7441 3.90627 15.3126 3.90627Z" fill="#131313"/>
</g>
<defs>
<clipPath id="clip0_2828_4662">
<rect width="20" height="20" fill="white"/>
</clipPath>
</defs>
</svg>
