<svg width="28" height="28" viewBox="0 0 28 28" fill="none" xmlns="http://www.w3.org/2000/svg">
<path d="M13.9998 2.80005C7.82381 2.80005 2.7998 7.82405 2.7998 14V24.4001C2.7998 24.7201 2.9918 25.0081 3.2878 25.1361C3.5918 25.2641 3.9358 25.1921 4.1598 24.9681C4.1758 24.9521 5.5758 23.6 7.5998 23.6C8.45581 23.6 8.90381 23.8321 9.53581 24.1601C10.4318 24.6241 11.5518 25.2001 13.9998 25.2001C20.1758 25.2001 25.1998 20.1761 25.1998 14C25.1998 7.82405 20.1758 2.80005 13.9998 2.80005ZM20.1758 12.4401L18.1838 14.4801C17.8478 14.8161 17.6958 15.2961 17.7758 15.7601L18.2478 18.6721C18.3038 18.9761 18.1758 19.2801 17.9198 19.4561C17.7838 19.5521 17.6238 19.6 17.4638 19.6C17.3278 19.6 17.1918 19.5681 17.0718 19.5041L14.7198 18.2001C14.2718 17.9521 13.7278 17.9521 13.2798 18.2001L10.9278 19.5041C10.6558 19.6481 10.3278 19.6321 10.0798 19.4561C9.82381 19.2801 9.69581 18.9761 9.75181 18.6721L10.2238 15.7601C10.3038 15.2961 10.1518 14.8161 9.81581 14.4801L7.82381 12.4401C7.61581 12.2241 7.54381 11.9121 7.63981 11.6241C7.73581 11.3361 7.98381 11.1361 8.27981 11.088L10.9358 10.68C11.4318 10.608 11.8558 10.2881 12.0638 9.84005L13.2718 7.26405C13.4078 6.97605 13.6878 6.80005 13.9998 6.80005C14.3118 6.80005 14.5918 6.97605 14.7278 7.26405L15.9358 9.84005C16.1438 10.2881 16.5678 10.608 17.0638 10.68L19.7198 11.088C20.0158 11.1361 20.2638 11.3361 20.3598 11.6241C20.4558 11.9121 20.3838 12.2241 20.1758 12.4401Z" fill="white"/>
</svg>
