<svg xmlns="http://www.w3.org/2000/svg" fill="none" viewBox="0 0 64 36">
    <g fill-rule="evenodd" clip-path="url(#a)" clip-rule="evenodd">
        <path fill="#62B22F" d="m13.6 19.7 4.1 2.7v5.1L13.6 35V19.7Z"/>
        <path fill="#974995" d="m10.1 17.5 4.2 2.4L2 27.4l4-7.3 4.1-2.6Z"/>
        <path fill="#EE7024" d="M29.4 10.6h-8l-3.7-2.3L13.6 1l15.8 9.6Z"/>
        <path fill="#FBB61B" d="m13.6 1 4.1 7.3v10L13.6 17V1Z"/>
        <path fill="#5A58A3" d="m2 8.3 4 7.4v4.4l-4 7.3v-19Z"/>
        <path fill="#2188CB" d="m2 8.3 27.3 16.9h-7.8L6 15.7 2 8.3Z"/>
        <path fill="#DA0954" d="M21.5 10.6h7.9l-11.7 7.2V13l3.8-2.3Z"/>
        <path fill="#1B1537" d="M44.2 11.8a5 5 0 0 1 3.6-1.3l4-.1c-.3.9-.9 1.7-1.3 2.5h-2.9c-1.2.1-2.4 1.1-2.5 2.4 1.1-1.1 2.9-1.2 4.4-.8 1 .3 1.8 1 2.2 2 .3 1 .3 1.9.1 2.8a4 4 0 0 1-2.5 2.7 6 6 0 0 1-4.3 0 4.5 4.5 0 0 1-2.6-3.2c-.3-1.2-.3-3 0-4.2.4-1.1 1-2 1.8-2.8Zm3.4 4.7c-.8-.1-1.6.2-2 .8-.7 1.2.3 3 1.8 2.8 1.7-.3 2.2-3 .2-3.6Zm-11-3c1.5-.4 3.3-.3 4.6.6l-1.3 2.2c-.6-.2-1.2-.6-1.9-.5-.7 0-1.5.2-2 .9a2.1 2.1 0 0 0 0 2.2c.4.7 1.2 1 1.9 1 .5 0 1.1-.1 1.6-.3l.4-.1c.3.7.8 1.3 1 2-1.3.8-3 1-4.6.6-1-.3-2-1-2.6-1.9-1-1.5-1-3.6.1-5a5 5 0 0 1 2.8-1.7Zm16.7 0h9l-.1 8.5h-3v-6h-2.8v6h-3v-8.5Z"/>
        <path fill="#037F37" d="m17.7 27.5 3.8-2.3h7.8L13.6 35l4.1-7.5Z"/>
    </g>
    <defs>
        <clipPath id="a">
            <path fill="#fff" d="M0 0h60.2v34H0z" transform="translate(2 1)"/>
        </clipPath>
    </defs>
</svg>
