<svg width="20" height="20" viewBox="0 0 20 20" fill="none" xmlns="http://www.w3.org/2000/svg">
<g clip-path="url(#clip0_3341_60410)">
<path d="M19.6255 17.8177L17.8175 19.6257C17.3182 20.125 16.5088 20.125 16.0095 19.6257L11.4895 15.1057C10.6768 14.293 10.5372 13.0738 11.0474 12.1082L5.52523 6.58632C5.25803 6.80542 4.89953 6.88232 4.56743 6.77152L3.16042 6.30262C2.70162 6.14962 2.31263 5.83762 2.06373 5.42282L0.144425 2.22392C-0.094775 1.82522 -0.0319749 1.31502 0.296725 0.986222L0.986025 0.296822C1.31473 -0.031878 1.82502 -0.0946781 2.22362 0.144522L5.42263 2.06392C5.83733 2.31272 6.14933 2.70182 6.30233 3.16062L6.77133 4.56752C6.88213 4.89992 6.80513 5.25862 6.58573 5.52582L12.1079 11.0476C13.0735 10.5373 14.2927 10.6769 15.1055 11.4896L19.6255 16.0096C20.1247 16.5089 20.1248 17.3184 19.6255 17.8177ZM8.66572 5.83802L11.8306 9.00272C13.4223 8.46302 15.2519 8.80862 16.5196 10.0748L17.4449 11.0001C17.7183 10.8059 17.9833 10.5947 18.2285 10.3495C19.9863 8.59172 20.4331 6.02522 19.582 3.84932L15.6551 7.77612H12.2239V4.34492L16.1508 0.418122C13.9749 -0.432978 11.4084 0.0138222 9.65063 1.77162C9.15933 2.26292 8.78153 2.82112 8.49473 3.41262L8.66902 3.93512C8.88022 4.56992 8.86762 5.23312 8.66572 5.83802ZM6.87023 9.69872L0.710625 15.8583C-0.236875 16.8058 -0.236875 18.342 0.710625 19.2895C1.65803 20.237 3.19423 20.237 4.14173 19.2895L8.92272 14.5086C8.68652 13.6308 8.70842 12.6966 9.00212 11.8306L6.87023 9.69872Z" fill="#D0D1D1"/>
</g>
<defs>
<clipPath id="clip0_3341_60410">
<rect width="20" height="20" fill="white"/>
</clipPath>
</defs>
</svg>
