<svg width="60" height="60" viewBox="0 0 60 60" fill="none" xmlns="http://www.w3.org/2000/svg">
<path d="M10.9031 56.7459C10.8957 56.9243 10.9325 57.1017 11.0104 57.2624C11.0883 57.423 11.2048 57.5619 11.3495 57.6667C11.495 57.7704 11.6633 57.8378 11.8402 57.8632C12.0172 57.8886 12.1976 57.8714 12.3665 57.8129L29.6348 51.6744L46.9031 57.8129C47.0214 57.8506 47.1448 57.8703 47.269 57.8713C47.5018 57.8706 47.7289 57.7992 47.9202 57.6667C48.0649 57.5619 48.1814 57.423 48.2593 57.2624C48.3371 57.1017 48.374 56.9243 48.3665 56.7459L47.8617 38.4767L59.0421 23.9417C59.1521 23.8009 59.2256 23.6353 59.2563 23.4594C59.2871 23.2836 59.274 23.1028 59.2184 22.9332C59.1627 22.7636 59.0661 22.6102 58.9372 22.4866C58.8082 22.363 58.6508 22.2729 58.4787 22.2244L40.9178 17.0432L30.5421 1.94556C30.4348 1.80745 30.2972 1.69569 30.1399 1.6188C29.9827 1.54192 29.8099 1.50195 29.6348 1.50195C29.4597 1.50195 29.287 1.54192 29.1297 1.6188C28.9725 1.69569 28.8349 1.80745 28.7275 1.94556L18.3665 17.0432L0.80556 22.2244C0.63354 22.2729 0.476108 22.363 0.347127 22.4866C0.218147 22.6102 0.121575 22.7636 0.0659167 22.9332C0.0102582 23.1028 -0.00277959 23.2836 0.0279516 23.4594C0.0586827 23.6353 0.13224 23.8009 0.242146 23.9417L11.408 38.4475L10.9031 56.7459ZM2.92751 23.8686L19.3617 19.0382C19.6038 18.9645 19.8147 18.8129 19.9617 18.6071L29.6348 4.50325L39.308 18.6071C39.455 18.8129 39.6659 18.9645 39.908 19.0382L56.3421 23.8686L45.886 37.4244C45.7244 37.6326 45.6438 37.8922 45.6592 38.1552L46.0982 55.2113L30.0007 49.4821C29.7647 49.3941 29.5049 49.3941 29.269 49.4821L13.1714 55.2113L13.6397 38.1186C13.6551 37.8557 13.5745 37.596 13.4129 37.3879L2.92751 23.8686Z" fill="black"/>
</svg>
