<svg width="16" height="16" viewBox="0 0 16 16" fill="none" xmlns="http://www.w3.org/2000/svg">
<path d="M3.33333 6C4.436 6 5.33333 6.89733 5.33333 8C5.33333 9.10267 4.436 10 3.33333 10C2.23067 10 1.33333 9.10267 1.33333 8C1.33333 6.89733 2.23067 6 3.33333 6ZM3.33333 4.66667C1.492 4.66667 0 6.15933 0 8C0 9.84067 1.492 11.3333 3.33333 11.3333C5.17467 11.3333 6.66667 9.84067 6.66667 8C6.66667 6.15933 5.17467 4.66667 3.33333 4.66667ZM13.3333 10.6667C12.5567 10.6667 11.864 11.004 11.3767 11.534L7.718 9.58267C7.56467 10.0067 7.352 10.402 7.08867 10.7587L10.7473 12.71C10.6993 12.9107 10.6667 13.1173 10.6667 13.3333C10.6667 14.806 11.8607 16 13.3333 16C14.806 16 16 14.806 16 13.3333C16 11.8607 14.806 10.6667 13.3333 10.6667ZM13.3333 14.6667C12.598 14.6667 12 14.0687 12 13.3333C12 12.598 12.598 12 13.3333 12C14.0687 12 14.6667 12.598 14.6667 13.3333C14.6667 14.0687 14.0687 14.6667 13.3333 14.6667ZM13.3333 0C11.8607 0 10.6667 1.194 10.6667 2.66667C10.6667 2.88267 10.6993 3.08933 10.7473 3.29L7.08867 5.24133C7.352 5.59867 7.564 5.99333 7.718 6.41733L11.3767 4.466C11.864 4.996 12.5567 5.33333 13.3333 5.33333C14.806 5.33333 16 4.13933 16 2.66667C16 1.194 14.806 0 13.3333 0ZM13.3333 4C12.598 4 12 3.402 12 2.66667C12 1.93133 12.598 1.33333 13.3333 1.33333C14.0687 1.33333 14.6667 1.93133 14.6667 2.66667C14.6667 3.402 14.0687 4 13.3333 4Z" fill="#8A8C8D"/>
</svg>
