<svg width="24" height="24" viewBox="0 0 24 24" fill="none" xmlns="http://www.w3.org/2000/svg">
<g clip-path="url(#clip0_5029_22134)">
<path d="M15.6191 10.6733C15.6191 10.6393 15.6038 10.6053 15.5758 10.5858C15.5477 10.5663 15.5146 10.5552 15.4798 10.5646L14.0662 10.8653L13.6423 10.4414L13.5735 8.62769C13.5735 8.59371 13.5556 8.56228 13.5301 8.54019C13.5038 8.51895 13.4673 8.51131 13.4342 8.51896L12.2142 8.78232L11.3707 7.93876C11.3248 7.89288 11.2509 7.89373 11.2059 7.93876L7.82222 11.319C7.77635 11.3649 7.7772 11.4388 7.82222 11.4838L9.29018 12.9518C9.31397 12.9756 9.3488 12.9883 9.38363 12.9841C9.41591 12.9824 9.44904 12.9628 9.46773 12.9339L11.0096 10.6955L9.60709 14.4902C9.5918 14.531 9.60114 14.5794 9.63342 14.6117C9.6657 14.6439 9.71158 14.6558 9.7549 14.638C9.78973 14.6253 10.6554 14.3254 11.2118 15.0211C11.2356 15.05 11.2687 15.0644 11.3027 15.0644C11.3367 15.0644 11.3724 15.0424 11.3945 15.0169L13.0451 12.7139L11.6485 16.5367C11.6332 16.5774 11.6417 16.6216 11.6706 16.6539C11.6986 16.687 11.7419 16.6998 11.7835 16.6887C11.792 16.6887 12.6662 16.4755 13.2668 17.0064C13.2914 17.026 13.3228 17.037 13.356 17.0345C13.3883 17.0328 13.4171 17.0124 13.4358 16.9886L15.1349 14.6898L13.6966 18.5849C13.6813 18.6257 13.6898 18.6698 13.7186 18.7021C13.7467 18.7352 13.79 18.748 13.8316 18.7369C13.8427 18.7344 14.7865 18.5262 15.3497 19.0895C15.3735 19.1133 15.4066 19.1243 15.4406 19.1243C15.4729 19.1226 15.506 19.1031 15.523 19.0759L17.1626 16.7839L15.7787 20.5159C15.7659 20.5507 15.7702 20.5855 15.7897 20.6187C15.8092 20.6518 15.8398 20.6688 15.8764 20.6713L16.731 20.7478C16.7632 20.7495 16.7981 20.7367 16.8219 20.7129L17.0478 20.487L21.3974 21.5404C21.4364 21.5489 21.4781 21.5378 21.5061 21.5098L21.5103 21.5056C21.5384 21.4724 21.5477 21.4291 21.5341 21.39L19.7749 16.3771L19.7052 14.7681C19.7052 14.7341 19.6857 14.701 19.6576 14.6815C19.6296 14.6619 19.5922 14.6551 19.5574 14.6645L18.2262 15.0391L17.6893 14.5022L17.5823 12.6469C17.5823 12.6129 17.5627 12.5798 17.5347 12.5603C17.5067 12.5407 17.4693 12.5339 17.4345 12.5433L16.1033 12.9179L15.642 12.4566L15.6191 10.6733Z" fill="#15181A"/>
<path d="M8.55287 0.576039L5.17613 3.95277C5.09373 4.03518 5.09288 4.17025 5.17613 4.2535L6.53959 5.61696C6.64153 5.7189 6.63729 5.89306 6.52855 6.00179L6.00439 6.52595C5.89565 6.63469 5.72405 6.64149 5.61956 6.537L4.2561 5.17354C4.1737 5.09113 4.03862 5.09028 3.95537 5.17354L0.582768 8.54614C0.260796 8.86811 0.254859 9.38377 0.56748 9.69639C0.717844 9.84675 0.925978 9.92916 1.14176 9.92746L4.87537 9.86883C5.75801 9.851 6.58459 10.1866 7.14781 10.7888L7.40436 11.0454C7.48677 11.1278 7.62184 11.1286 7.70254 11.0479C8.43992 10.3191 9.179 9.59357 9.9206 8.86387L11.036 7.76546L11.0385 7.76291C11.0776 7.72383 11.1014 7.66946 11.0997 7.61509C11.0997 7.55902 11.0776 7.50636 11.0368 7.46558L10.9995 7.4282C10.2663 6.73925 9.85346 5.7606 9.87047 4.7429L9.9274 1.14182C9.92995 0.926897 9.84669 0.717907 9.69633 0.567545C9.38626 0.252376 8.87312 0.255785 8.55287 0.576039Z" fill="#15181A"/>
</g>
<defs>
<clipPath id="clip0_5029_22134">
<rect width="24" height="24" fill="white"/>
</clipPath>
</defs>
</svg>
