<svg width="16" height="16" viewBox="0 0 16 16" fill="none" xmlns="http://www.w3.org/2000/svg">
<path fill-rule="evenodd" clip-rule="evenodd" d="M12.2563 15.186C12.4709 15.338 12.7476 15.376 12.9943 15.2826C13.2409 15.1886 13.4223 14.978 13.4769 14.7226C14.0563 12 15.4616 5.10864 15.9889 2.63198C16.0289 2.44531 15.9623 2.25131 15.8156 2.12664C15.6689 2.00198 15.4656 1.96598 15.2843 2.03331C12.4889 3.06798 3.88026 6.29798 0.361599 7.59998C0.138265 7.68264 -0.0070681 7.89731 0.000265236 8.13264C0.00826524 8.36864 0.166932 8.57331 0.395599 8.64198C1.9736 9.11398 4.04493 9.77064 4.04493 9.77064C4.04493 9.77064 5.01293 12.694 5.5176 14.1806C5.58093 14.3673 5.72693 14.514 5.9196 14.5646C6.1116 14.6146 6.31693 14.562 6.46026 14.4266C7.27093 13.6613 8.52426 12.478 8.52426 12.478C8.52426 12.478 10.9056 14.224 12.2563 15.186ZM4.91627 9.40131L6.0356 13.0933L6.28426 10.7553C6.28426 10.7553 10.6089 6.85464 13.0743 4.63131C13.1463 4.56598 13.1563 4.45664 13.0963 4.37998C13.0369 4.30331 12.9276 4.28531 12.8456 4.33731C9.98827 6.16198 4.91627 9.40131 4.91627 9.40131Z" fill="#000000"/>
</svg>
