<svg width="24" height="24" viewBox="0 0 24 24" fill="none" xmlns="http://www.w3.org/2000/svg">
<path d="M10.975 8L11 7.5C11 6.983 10.933 6.482 10.819 6H16.812L16.248 8H10.975ZM8.5 18C7.672 18 7 18.672 7 19.5C7 20.329 7.672 21 8.5 21C9.328 21 10 20.329 10 19.5C10 18.672 9.328 18 8.5 18ZM19.805 3L16.373 15H5.945L5.49 13.917C5.167 13.966 4.837 14 4.5 14C4.093 14 3.695 13.958 3.309 13.886L4.615 17H17.854L21.328 5H23.257L24 3H19.805ZM13.5 18C12.672 18 12 18.671 12 19.5C12 20.329 12.672 21 13.5 21C14.328 21 15 20.329 15 19.5C15 18.672 14.328 18 13.5 18ZM9 7.5C9 9.985 6.982 12 4.5 12C2.016 12 0 9.985 0 7.5C0 5.015 2.016 3 4.5 3C6.982 3 9 5.015 9 7.5ZM7 7H5V5H4V7H2V8H4V10H5V8H7V7Z" fill="white"/>
</svg>
