<svg width="13" height="12" viewBox="0 0 13 12" fill="none" xmlns="http://www.w3.org/2000/svg">
<path d="M11.5 7C11.5 9.7615 9.261 12 6.5 12C3.739 12 1.5 9.7615 1.5 7C1.5 4.2385 3.739 2 6.5 2C9.261 2 11.5 4.2385 11.5 7ZM10.5 7C10.5 4.7945 8.7055 3 6.5 3C4.2945 3 2.5 4.7945 2.5 7C2.5 9.2055 4.2945 11 6.5 11C8.7055 11 10.5 9.2055 10.5 7ZM7.5 1.0905V0H5.5V1.0905C6.204 0.9715 6.781 0.969 7.5 1.0905ZM10.8395 2.8675L11.5 2.207L10.793 1.5L10.0895 2.2035C10.3575 2.4045 10.6085 2.6255 10.8395 2.8675ZM6.5 4V7H9.5C9.5 5.3455 8.1545 4 6.5 4Z" fill="#15181A"/>
</svg>
