<svg width="24" height="24" viewBox="0 0 24 24" fill="none" xmlns="http://www.w3.org/2000/svg">
<g clip-path="url(#clip0_5029_9942)">
<path d="M9.05986 12.7331L6.12477 10.5705C4.97419 9.70753 2.94695 12.0598 2.4345 12.9962C2.17349 13.4533 2.296 14.036 2.72001 14.3492C3.26866 14.7572 4.10389 15.3709 4.79956 15.8833C5.4963 16.3957 6.05773 16.8101 6.05773 16.8101C7.07833 17.5687 8.48457 17.4376 9.34846 16.5619C10.4362 15.5158 10.2902 13.6045 9.05975 12.7342L9.05986 12.7331ZM7.02613 15.2878C6.39332 14.6305 7.35319 13.6717 8.00732 14.3066C8.64226 14.9618 7.68346 15.9206 7.02613 15.2878Z" fill="#15181A"/>
<path d="M22.1014 13.2603C21.4686 12.538 20.6643 12.3186 20.0858 11.7731L13.5223 3.31965C11.5685 0.402828 7.80133 -0.719991 4.56269 0.647764C0.18624 2.43647 -1.33176 8.2214 1.59351 11.8732C2.16133 11.0263 2.89535 10.2944 3.74337 9.72868C2.1283 7.60866 3.04982 4.24959 5.55657 3.25359C7.47632 2.44392 9.70066 3.12149 10.8513 4.87929L18.4707 14.7316C20.9019 15.2845 21.9767 18.3057 20.1423 20.1275C18.2353 21.9513 15.3845 20.9329 14.7496 18.4591L11.2893 15.6498C11.0624 16.6789 10.3528 17.594 9.43663 18.1161L11.8049 20.0731C11.9242 20.1743 12.0286 20.3096 12.1149 20.4747C12.7743 21.8032 13.9089 22.8643 15.3077 23.4535C17.5588 24.4048 20.1783 23.9137 21.9789 22.2049C24.5048 19.9208 24.5655 15.6169 22.1014 13.2603Z" fill="#15181A"/>
</g>
<defs>
<clipPath id="clip0_5029_9942">
<rect width="24" height="24" fill="white"/>
</clipPath>
</defs>
</svg>
