<svg width="21" height="20" viewBox="0 0 21 20" fill="none" xmlns="http://www.w3.org/2000/svg">
<path d="M18.8307 11.6667C18.8307 16.2692 15.0991 20 10.4974 20C5.89573 20 2.16406 16.2692 2.16406 11.6667C2.16406 7.06417 5.89573 3.33333 10.4974 3.33333C15.0991 3.33333 18.8307 7.06417 18.8307 11.6667ZM17.1641 11.6667C17.1641 7.99083 14.1732 5 10.4974 5C6.82156 5 3.83073 7.99083 3.83073 11.6667C3.83073 15.3425 6.82156 18.3333 10.4974 18.3333C14.1732 18.3333 17.1641 15.3425 17.1641 11.6667ZM12.1641 1.8175V0H8.83073V1.8175C10.0041 1.61917 10.9657 1.615 12.1641 1.8175ZM17.7299 4.77917L18.8307 3.67833L17.6524 2.5L16.4799 3.6725C16.9266 4.0075 17.3449 4.37583 17.7299 4.77917ZM10.4974 6.66667V11.6667H15.4974C15.4974 8.90917 13.2549 6.66667 10.4974 6.66667Z" fill="#15181A"/>
</svg>
