<svg width="20" height="20" viewBox="0 0 20 20" fill="none" xmlns="http://www.w3.org/2000/svg">
<path d="M18.3307 11.6667C18.3307 16.2692 14.5991 20 9.9974 20C5.39573 20 1.66406 16.2692 1.66406 11.6667C1.66406 7.06417 5.39573 3.33333 9.9974 3.33333C14.5991 3.33333 18.3307 7.06417 18.3307 11.6667ZM16.6641 11.6667C16.6641 7.99083 13.6732 5 9.9974 5C6.32156 5 3.33073 7.99083 3.33073 11.6667C3.33073 15.3425 6.32156 18.3333 9.9974 18.3333C13.6732 18.3333 16.6641 15.3425 16.6641 11.6667ZM11.6641 1.8175V0H8.33073V1.8175C9.50406 1.61917 10.4657 1.615 11.6641 1.8175ZM17.2299 4.77917L18.3307 3.67833L17.1524 2.5L15.9799 3.6725C16.4266 4.0075 16.8449 4.37583 17.2299 4.77917ZM9.9974 6.66667V11.6667H14.9974C14.9974 8.90917 12.7549 6.66667 9.9974 6.66667Z" fill="white"/>
</svg>
