<svg width="20" height="20" viewBox="0 0 20 20" fill="none" xmlns="http://www.w3.org/2000/svg">
<path d="M19.8721 10.0145L16.8204 5.35969C16.676 5.13945 16.4304 5.0068 16.167 5.0068H12.3707V3.33984C12.3707 2.90836 12.0209 2.55859 11.5894 2.55859H0.78125C0.349766 2.55859 0 2.90836 0 3.33984V15.0977C0 15.5291 0.349766 15.8789 0.78125 15.8789H3.25938C3.58188 16.7882 4.45027 17.4414 5.46875 17.4414C6.48723 17.4414 7.35559 16.7882 7.67812 15.8789H13.1948C13.5173 16.7882 14.3857 17.4414 15.4042 17.4414C16.4227 17.4414 17.291 16.7882 17.6136 15.8789H19.2188C19.6502 15.8789 20 15.5291 20 15.0977V10.4429C20 10.2907 19.9555 10.1418 19.8721 10.0145ZM5.46875 15.8789C5.03797 15.8789 4.6875 15.5284 4.6875 15.0977C4.6875 14.6669 5.03797 14.3164 5.46875 14.3164C5.89953 14.3164 6.25 14.6669 6.25 15.0977C6.25 15.5284 5.89953 15.8789 5.46875 15.8789ZM10.8082 14.3164H7.67809C7.35559 13.4071 6.48719 12.7539 5.46871 12.7539C4.45023 12.7539 3.58188 13.4071 3.25934 14.3164H1.5625V4.12109H10.8082V14.3164ZM15.4042 15.8789C14.9734 15.8789 14.6229 15.5284 14.6229 15.0977C14.6229 14.6669 14.9734 14.3164 15.4042 14.3164C15.835 14.3164 16.1854 14.6669 16.1854 15.0977C16.1854 15.5284 15.835 15.8789 15.4042 15.8789ZM18.4375 14.3164H17.6135C17.291 13.4071 16.4226 12.7539 15.4041 12.7539C14.3857 12.7539 13.5173 13.4071 13.1948 14.3164H12.3706V6.5693H15.745L18.4375 10.6761V14.3164Z" fill="#131313"/>
</svg>
