<svg width="24" height="24" viewBox="0 0 24 24" fill="none" xmlns="http://www.w3.org/2000/svg">
<rect width="24" height="24" rx="8" fill="#3390EC"/>
<g clip-path="url(#clip0_5346_1426)">
<path fill-rule="evenodd" clip-rule="evenodd" d="M15.1922 17.3895C15.3532 17.5035 15.5607 17.532 15.7457 17.462C15.9307 17.3915 16.0667 17.2335 16.1077 17.042C16.5422 15 17.5962 9.83145 17.9917 7.97395C18.0217 7.83395 17.9717 7.68845 17.8617 7.59495C17.7517 7.50145 17.5992 7.47445 17.4632 7.52495C15.3667 8.30095 8.9102 10.7235 6.2712 11.7C6.1037 11.762 5.9947 11.923 6.0002 12.0995C6.0062 12.2765 6.1252 12.43 6.2967 12.4815C7.4802 12.8355 9.0337 13.328 9.0337 13.328C9.0337 13.328 9.7597 15.5205 10.1382 16.6355C10.1857 16.7755 10.2952 16.8855 10.4397 16.9235C10.5837 16.961 10.7377 16.9215 10.8452 16.82C11.4532 16.246 12.3932 15.3585 12.3932 15.3585C12.3932 15.3585 14.1792 16.668 15.1922 17.3895ZM9.6872 13.051L10.5267 15.82L10.7132 14.0665C10.7132 14.0665 13.9567 11.141 15.8057 9.47345C15.8597 9.42445 15.8672 9.34245 15.8222 9.28495C15.7777 9.22745 15.6957 9.21395 15.6342 9.25295C13.4912 10.6215 9.6872 13.051 9.6872 13.051Z" fill="white"/>
</g>
<defs>
<clipPath id="clip0_5346_1426">
<rect width="12" height="12" fill="white" transform="translate(6 6)"/>
</clipPath>
</defs>
</svg>
