<svg width="20" height="20" viewBox="0 0 20 20" fill="none" xmlns="http://www.w3.org/2000/svg">
<g clip-path="url(#clip0_369_8018)">
<path d="M19.2188 11.0623C18.6914 11.0623 14.1727 11.0623 13.5898 11.0623C14.9126 9.90434 15.7494 8.20434 15.7494 6.31238C15.7495 2.83172 12.9178 0 9.43723 0C5.95668 0 3.125 2.83172 3.125 6.31242C3.125 8.41422 4.15777 10.2791 5.74223 11.427C2.41969 12.4586 0 15.5613 0 19.2188C0 19.6502 0.349766 20 0.78125 20H19.2188C19.6502 20 20 19.6502 20 19.2188C20 19.0106 20 12.0512 20 11.8435C20 11.412 19.6502 11.0623 19.2188 11.0623ZM11.0625 15.5312V18.4375H1.60852C1.99613 15.1684 4.78477 12.6248 8.15625 12.6248H11.0625V15.5312ZM9.43723 11.0623C6.8182 11.0623 4.6875 8.93148 4.6875 6.31242C4.6875 3.69336 6.8182 1.5625 9.43723 1.5625C12.0562 1.5625 14.187 3.69332 14.187 6.31242C14.187 8.93152 12.0562 11.0623 9.43723 11.0623ZM14.75 18.4375H12.625V16.3124H14.75V18.4375ZM14.75 14.7499H12.625V12.6248H14.75V14.7499ZM18.4375 18.4375H16.3125V16.3124H18.4375V18.4375ZM18.4375 14.7499H16.3125V12.6248H18.4375V14.7499Z" fill="#131313"/>
</g>
<defs>
<clipPath id="clip0_369_8018">
<rect width="20" height="20" fill="white"/>
</clipPath>
</defs>
</svg>
