<svg width="16" height="16" viewBox="0 0 16 16" fill="none" xmlns="http://www.w3.org/2000/svg">
<path fill-rule="evenodd" clip-rule="evenodd" d="M8.59532 9.16337C8.59532 9.16337 8.87999 9.18871 9.03266 8.99871L9.33132 8.62337C9.47532 8.43671 9.82332 8.31804 10.164 8.50737C10.6147 8.76204 11.1973 9.16204 11.5967 9.53471C11.8167 9.72004 11.868 9.99337 11.718 10.282L11.7167 10.288C11.562 10.56 11.356 10.8154 11.0953 11.0534L11.0893 11.0574C10.796 11.302 10.4587 11.444 10.098 11.3267L10.0913 11.3174C9.44332 11.134 7.88866 10.3414 6.89799 9.55137C5.27732 8.27271 4.12532 6.16337 3.80666 5.03271L3.79666 5.02604C3.67932 4.66404 3.82266 4.32671 4.06599 4.03404L4.07066 4.02871C4.30866 3.76804 4.56332 3.56137 4.83599 3.40737L4.84199 3.40604C5.12999 3.25604 5.40332 3.30671 5.58932 3.52737C5.83399 3.78004 6.29332 4.38804 6.61599 4.96004C6.80532 5.30004 6.68666 5.64871 6.50066 5.79204L6.12466 6.09071C5.93532 6.24404 5.95999 6.52871 5.95999 6.52871C5.95999 6.52871 6.51599 8.63271 8.59532 9.16337ZM11.8667 7.41937C11.7553 7.41937 11.6647 7.32937 11.664 7.21804C11.6547 5.99804 11.288 5.02604 10.5747 4.33004C9.85999 3.63337 8.95666 3.27604 7.88999 3.26871C7.77799 3.26804 7.68799 3.17671 7.68932 3.06471C7.68999 2.95337 7.77999 2.86404 7.89132 2.86404H7.89266C9.06732 2.87204 10.0647 3.26804 10.8573 4.04004C11.6507 4.81471 12.0587 5.88337 12.0687 7.21537C12.0693 7.32671 11.98 7.41804 11.868 7.41937H11.8667ZM10.8033 7.00337H10.7987C10.6867 7.00071 10.598 6.90804 10.6007 6.79671C10.6167 6.10471 10.4187 5.54471 9.99666 5.08404C9.57666 4.62471 8.99999 4.37404 8.23332 4.31804C8.12199 4.30937 8.03799 4.21271 8.04599 4.10137C8.05466 3.99004 8.15132 3.90604 8.26266 3.91404C9.12532 3.97737 9.80932 4.27937 10.2953 4.81071C10.784 5.34404 11.0233 6.01537 11.0053 6.80537C11.0027 6.91537 10.9127 7.00337 10.8033 7.00337ZM9.76466 6.65537C9.65732 6.65537 9.56799 6.57137 9.56266 6.46271C9.52866 5.77604 9.20466 5.44004 8.54466 5.40404C8.43266 5.39804 8.34732 5.30271 8.35332 5.19137C8.35932 5.07937 8.45399 4.99404 8.56599 5.00004C9.43799 5.04671 9.92199 5.54604 9.96666 6.44271C9.97266 6.55404 9.88666 6.64937 9.77466 6.65471L9.76466 6.65537ZM14.3093 8.96804C13.906 12.2194 11.528 12.4247 11.0893 12.5654C10.9027 12.6254 9.16799 13.0567 6.98799 12.9147C6.98799 12.9147 5.36266 14.8747 4.85532 15.3847C4.77599 15.464 4.68332 15.496 4.62066 15.4814C4.53332 15.46 4.50932 15.356 4.51066 15.2054L4.52399 12.528C1.34932 11.646 1.53399 8.33071 1.56999 6.59537C1.60599 4.86004 1.93199 3.43804 2.90066 2.48204C4.64066 0.90604 8.22532 1.14137 8.22532 1.14137C11.2527 1.15471 12.7033 2.06604 13.04 2.37137C14.1567 3.32737 14.7253 5.61604 14.3093 8.96804ZM13.8747 1.55937C13.4767 1.19404 11.87 0.0273732 8.29132 0.0113732C8.29132 0.0113732 4.07132 -0.243293 2.01399 1.64471C0.868656 2.79004 0.465989 4.46537 0.423323 6.54337C0.381323 8.62204 0.325989 12.5154 4.07932 13.5714L4.08332 13.5727L4.08066 15.1834C4.08066 15.1834 4.05732 15.836 4.48666 15.9694C5.00599 16.13 5.31066 15.6347 5.80732 15.1C6.07932 14.8067 6.45466 14.376 6.73866 14.0467C9.30599 14.2614 11.28 13.7687 11.5047 13.696C12.0227 13.5274 14.956 13.152 15.4333 9.25804C15.9253 5.24337 15.1947 2.70471 13.8747 1.55937Z" fill="#000"/>
</svg>
