<svg width="13" height="12" viewBox="0 0 13 12" fill="none" xmlns="http://www.w3.org/2000/svg">
<g clip-path="url(#clip0_2812_59200)">
<path d="M6.5 1C9.257 1 11.5 3.243 11.5 6C11.5 8.757 9.257 11 6.5 11C3.743 11 1.5 8.757 1.5 6C1.5 3.243 3.743 1 6.5 1ZM6.5 0C3.1865 0 0.5 2.6865 0.5 6C0.5 9.3135 3.1865 12 6.5 12C9.8135 12 12.5 9.3135 12.5 6C12.5 2.6865 9.8135 0 6.5 0ZM5 8.5V3.5L9.5 6.073L5 8.5Z" fill="#15181A"/>
</g>
<defs>
<clipPath id="clip0_2812_59200">
<rect width="12" height="12" fill="white" transform="translate(0.5)"/>
</clipPath>
</defs>
</svg>
