<svg width="20" height="20" viewBox="0 0 20 20" fill="none" xmlns="http://www.w3.org/2000/svg">
<path d="M15.5 9C17.984 9 20 11.016 20 13.5C20 15.984 17.984 18 15.5 18C13.016 18 11 15.984 11 13.5C11 11.016 13.016 9 15.5 9ZM10.154 15.999C10.102 16 10.05 16 9.998 16C5.92 16 2.256 12.907 0.144 9.517C0.0480001 9.358 0 9.179 0 9C0 8.821 0.049 8.642 0.145 8.483C2.256 5.093 5.92 2 9.998 2C14.141 2 17.794 5.09 19.862 8.493C19.954 8.649 20 8.825 20 9C20 9.179 19.938 9.349 19.85 9.516C19.27 8.882 18.553 8.376 17.747 8.044C15.884 5.568 13.121 3.5 9.998 3.5C6.533 3.5 3.465 6.132 1.594 9C3.409 11.781 6.348 14.34 9.683 14.493C9.773 15.022 9.933 15.527 10.154 15.999ZM13.225 13.976L14.667 15.261C14.762 15.346 14.882 15.388 15 15.388C15.136 15.388 15.271 15.333 15.37 15.226L17.811 12.557C17.899 12.461 17.942 12.34 17.942 12.221C17.942 11.947 17.721 11.722 17.442 11.722C17.306 11.722 17.171 11.777 17.072 11.884L14.964 14.188L13.891 13.232C13.795 13.147 13.677 13.105 13.558 13.105C13.281 13.105 13.058 13.329 13.058 13.604C13.058 13.741 13.114 13.877 13.225 13.976ZM9.622 12.982C7.591 12.792 6 11.08 6 9C6 6.792 7.792 5 10 5C11.804 5 13.331 6.197 13.829 7.84C13.336 7.986 12.87 8.194 12.44 8.455C12.192 7.337 11.193 6.5 10 6.5C8.62 6.5 7.5 7.62 7.5 9C7.5 10.363 8.592 11.472 9.948 11.499C9.779 11.969 9.667 12.466 9.622 12.982Z" fill="#8A8C8D"/>
</svg>
