<svg width="20" height="20" viewBox="0 0 20 20" fill="none" xmlns="http://www.w3.org/2000/svg">
<path fill-rule="evenodd" clip-rule="evenodd" d="M10.7433 11.4542C10.7433 11.4542 11.0992 11.4858 11.29 11.2483L11.6633 10.7792C11.8433 10.5458 12.2783 10.3975 12.7042 10.6342C13.2675 10.9525 13.9958 11.4525 14.495 11.9183C14.77 12.15 14.8342 12.4917 14.6467 12.8525L14.645 12.86C14.4517 13.2 14.1942 13.5192 13.8683 13.8167L13.8608 13.8217C13.4942 14.1275 13.0725 14.305 12.6217 14.1583L12.6133 14.1467C11.8033 13.9175 9.86 12.9267 8.62166 11.9392C6.59583 10.3408 5.15583 7.70417 4.7575 6.29084L4.745 6.2825C4.59833 5.83 4.7775 5.40834 5.08166 5.0425L5.0875 5.03584C5.385 4.71 5.70333 4.45167 6.04416 4.25917L6.05166 4.2575C6.41166 4.07 6.75333 4.13334 6.98583 4.40917C7.29166 4.725 7.86583 5.485 8.26916 6.2C8.50583 6.625 8.3575 7.06084 8.125 7.24L7.655 7.61334C7.41833 7.805 7.44916 8.16084 7.44916 8.16084C7.44916 8.16084 8.14416 10.7908 10.7433 11.4542ZM14.8325 9.27417C14.6933 9.27417 14.58 9.16167 14.5792 9.0225C14.5675 7.4975 14.1092 6.2825 13.2175 5.4125C12.3242 4.54167 11.195 4.095 9.86166 4.08584C9.72166 4.085 9.60916 3.97084 9.61083 3.83084C9.61166 3.69167 9.72416 3.58 9.86333 3.58H9.865C11.3333 3.59 12.58 4.085 13.5708 5.05C14.5625 6.01834 15.0725 7.35417 15.085 9.01917C15.0858 9.15834 14.9742 9.2725 14.8342 9.27417H14.8325ZM13.5033 8.75417H13.4975C13.3575 8.75084 13.2467 8.635 13.25 8.49584C13.27 7.63084 13.0225 6.93084 12.495 6.355C11.97 5.78084 11.2492 5.4675 10.2908 5.3975C10.1517 5.38667 10.0467 5.26584 10.0567 5.12667C10.0675 4.9875 10.1883 4.8825 10.3275 4.8925C11.4058 4.97167 12.2608 5.34917 12.8683 6.01334C13.4792 6.68 13.7783 7.51917 13.7558 8.50667C13.7525 8.64417 13.64 8.75417 13.5033 8.75417ZM12.205 8.31917C12.0708 8.31917 11.9592 8.21417 11.9525 8.07834C11.91 7.22 11.505 6.8 10.68 6.755C10.54 6.7475 10.4333 6.62834 10.4408 6.48917C10.4483 6.34917 10.5667 6.2425 10.7067 6.25C11.7967 6.30834 12.4017 6.9325 12.4575 8.05334C12.465 8.1925 12.3575 8.31167 12.2175 8.31834L12.205 8.31917ZM17.8858 11.21C17.3817 15.2742 14.4092 15.5308 13.8608 15.7067C13.6275 15.7817 11.4592 16.3208 8.73416 16.1433C8.73416 16.1433 6.7025 18.5933 6.06833 19.2308C5.96916 19.33 5.85333 19.37 5.775 19.3517C5.66583 19.325 5.63583 19.195 5.6375 19.0067L5.65416 15.66C1.68583 14.5575 1.91666 10.4133 1.96166 8.24417C2.00666 6.075 2.41416 4.2975 3.625 3.1025C5.8 1.1325 10.2808 1.42667 10.2808 1.42667C14.065 1.44334 15.8783 2.5825 16.2992 2.96417C17.695 4.15917 18.4058 7.02 17.8858 11.21ZM17.3425 1.94917C16.845 1.4925 14.8367 0.0341707 10.3633 0.0141707C10.3633 0.0141707 5.08833 -0.304163 2.51666 2.05584C1.085 3.4875 0.581663 5.58167 0.528329 8.17917C0.475829 10.7775 0.406662 15.6442 5.09833 16.9642L5.10333 16.9658L5.1 18.9792C5.1 18.9792 5.07083 19.795 5.6075 19.9617C6.25666 20.1625 6.6375 19.5433 7.25833 18.875C7.59833 18.5083 8.0675 17.97 8.4225 17.5583C11.6317 17.8267 14.0992 17.2108 14.38 17.12C15.0275 16.9092 18.6942 16.44 19.2908 11.5725C19.9058 6.55417 18.9925 3.38084 17.3425 1.94917Z" fill="black"/>
</svg>
