<svg width="21" height="20" viewBox="0 0 21 20" fill="none" xmlns="http://www.w3.org/2000/svg">
<g clip-path="url(#clip0_2482_42467)">
<path d="M10.5 1.66667C15.095 1.66667 18.8333 5.405 18.8333 10C18.8333 14.595 15.095 18.3333 10.5 18.3333C5.905 18.3333 2.16667 14.595 2.16667 10C2.16667 5.405 5.905 1.66667 10.5 1.66667ZM10.5 0C4.9775 0 0.5 4.4775 0.5 10C0.5 15.5225 4.9775 20 10.5 20C16.0225 20 20.5 15.5225 20.5 10C20.5 4.4775 16.0225 0 10.5 0ZM8 14.1667V5.83333L15.5 10.1217L8 14.1667Z" fill="#15181A"/>
</g>
<defs>
<clipPath id="clip0_2482_42467">
<rect width="20" height="20" fill="white" transform="translate(0.5)"/>
</clipPath>
</defs>
</svg>
