<svg width="24" height="24" viewBox="0 0 24 24" fill="none" xmlns="http://www.w3.org/2000/svg">
<rect width="24" height="24" rx="8" fill="#25D366"/>
<g clip-path="url(#clip0_5346_1432)">
<path d="M6.02734 18L6.87084 14.9185C6.35034 14.0165 6.07684 12.994 6.07734 11.9455C6.07884 8.6675 8.74634 6 12.0238 6C13.6143 6.0005 15.1073 6.62 16.2303 7.744C17.3528 8.868 17.9708 10.362 17.9703 11.951C17.9688 15.2295 15.3013 17.897 12.0238 17.897C11.0288 17.8965 10.0483 17.647 9.17984 17.173L6.02734 18ZM9.32584 16.0965C10.1638 16.594 10.9638 16.892 12.0218 16.8925C14.7458 16.8925 16.9648 14.6755 16.9663 11.95C16.9673 9.219 14.7588 7.005 12.0258 7.004C9.29984 7.004 7.08234 9.221 7.08134 11.946C7.08084 13.0585 7.40684 13.8915 7.95434 14.763L7.45484 16.587L9.32584 16.0965ZM15.0193 13.3645C14.9823 13.3025 14.8833 13.2655 14.7343 13.191C14.5858 13.1165 13.8553 12.757 13.7188 12.7075C13.5828 12.658 13.4838 12.633 13.3843 12.782C13.2853 12.9305 13.0003 13.2655 12.9138 13.3645C12.8273 13.4635 12.7403 13.476 12.5918 13.4015C12.4433 13.327 11.9643 13.1705 11.3968 12.664C10.9553 12.27 10.6568 11.7835 10.5703 11.6345C10.4838 11.486 10.5613 11.4055 10.6353 11.3315C10.7023 11.265 10.7838 11.158 10.8583 11.071C10.9338 10.985 10.9583 10.923 11.0083 10.8235C11.0578 10.7245 11.0333 10.6375 10.9958 10.563C10.9583 10.489 10.6613 9.7575 10.5378 9.46C10.4168 9.1705 10.2943 9.2095 10.2033 9.205L9.91834 9.2C9.81934 9.2 9.65834 9.237 9.52234 9.386C9.38634 9.535 9.00234 9.894 9.00234 10.6255C9.00234 11.357 9.53484 12.0635 9.60884 12.1625C9.68334 12.2615 10.6563 13.7625 12.1468 14.406C12.5013 14.559 12.7783 14.6505 12.9938 14.719C13.3498 14.832 13.6738 14.816 13.9298 14.778C14.2153 14.7355 14.8088 14.4185 14.9328 14.0715C15.0568 13.724 15.0568 13.4265 15.0193 13.3645Z" fill="white"/>
</g>
<defs>
<clipPath id="clip0_5346_1432">
<rect width="12" height="12" fill="white" transform="translate(6 6)"/>
</clipPath>
</defs>
</svg>
