<svg width="16" height="16" viewBox="0 0 16 16" fill="none" xmlns="http://www.w3.org/2000/svg">
<path d="M0.0390625 16L1.16373 11.8913C0.469729 10.6887 0.105062 9.32533 0.105729 7.92733C0.107729 3.55667 3.6644 0 8.0344 0C10.1551 0.000666667 12.1457 0.826667 13.6431 2.32533C15.1397 3.824 15.9637 5.816 15.9631 7.93467C15.9611 12.306 12.4044 15.8627 8.0344 15.8627C6.70773 15.862 5.4004 15.5293 4.2424 14.8973L0.0390625 16ZM4.43706 13.462C5.5544 14.1253 6.62106 14.5227 8.03173 14.5233C11.6637 14.5233 14.6224 11.5673 14.6244 7.93333C14.6257 4.292 11.6811 1.34 8.03706 1.33867C4.4024 1.33867 1.44573 4.29467 1.4444 7.928C1.44373 9.41133 1.8784 10.522 2.6084 11.684L1.9424 14.116L4.43706 13.462ZM12.0284 9.81933C11.9791 9.73667 11.8471 9.68733 11.6484 9.588C11.4504 9.48867 10.4764 9.00933 10.2944 8.94333C10.1131 8.87733 9.98106 8.844 9.8484 9.04267C9.7164 9.24067 9.3364 9.68733 9.22106 9.81933C9.10573 9.95133 8.98973 9.968 8.79173 9.86867C8.59373 9.76933 7.95506 9.56067 7.19839 8.88533C6.60973 8.36 6.21173 7.71133 6.0964 7.51267C5.98106 7.31467 6.0844 7.20733 6.18306 7.10867C6.2724 7.02 6.38106 6.87733 6.4804 6.76133C6.58106 6.64667 6.61373 6.564 6.6804 6.43133C6.7464 6.29933 6.71373 6.18333 6.66373 6.084C6.61373 5.98533 6.21773 5.01 6.05306 4.61333C5.89173 4.22733 5.7284 4.27933 5.60706 4.27333L5.22706 4.26667C5.09506 4.26667 4.8804 4.316 4.69906 4.51467C4.51773 4.71333 4.00573 5.192 4.00573 6.16733C4.00573 7.14267 4.71573 8.08467 4.8144 8.21667C4.91373 8.34867 6.21106 10.35 8.19839 11.208C8.67106 11.412 9.04039 11.534 9.32773 11.6253C9.80239 11.776 10.2344 11.7547 10.5757 11.704C10.9564 11.6473 11.7477 11.2247 11.9131 10.762C12.0784 10.2987 12.0784 9.902 12.0284 9.81933Z" fill="#000000"/>
</svg>
