<svg width="24" height="24" viewBox="0 0 24 24" fill="none" xmlns="http://www.w3.org/2000/svg">
<path d="M0.0546875 24L1.74169 17.837C0.700687 16.033 0.153688 13.988 0.154688 11.891C0.157688 5.335 5.49269 0 12.0477 0C15.2287 0.001 18.2147 1.24 20.4607 3.488C22.7057 5.736 23.9417 8.724 23.9407 11.902C23.9377 18.459 18.6027 23.794 12.0477 23.794C10.0577 23.793 8.09669 23.294 6.35969 22.346L0.0546875 24ZM6.65169 20.193C8.32769 21.188 9.92769 21.784 12.0437 21.785C17.4917 21.785 21.9297 17.351 21.9327 11.9C21.9347 6.438 17.5177 2.01 12.0517 2.008C6.59969 2.008 2.16469 6.442 2.16269 11.892C2.16169 14.117 2.81369 15.783 3.90869 17.526L2.90969 21.174L6.65169 20.193ZM18.0387 14.729C17.9647 14.605 17.7667 14.531 17.4687 14.382C17.1717 14.233 15.7107 13.514 15.4377 13.415C15.1657 13.316 14.9677 13.266 14.7687 13.564C14.5707 13.861 14.0007 14.531 13.8277 14.729C13.6547 14.927 13.4807 14.952 13.1837 14.803C12.8867 14.654 11.9287 14.341 10.7937 13.328C9.91069 12.54 9.31369 11.567 9.14069 11.269C8.96769 10.972 9.12269 10.811 9.27069 10.663C9.40469 10.53 9.56769 10.316 9.71669 10.142C9.86769 9.97 9.91669 9.846 10.0167 9.647C10.1157 9.449 10.0667 9.275 9.99169 9.126C9.91669 8.978 9.32269 7.515 9.07569 6.92C8.83369 6.341 8.58869 6.419 8.40669 6.41L7.83669 6.4C7.63869 6.4 7.31669 6.474 7.04469 6.772C6.77269 7.07 6.00469 7.788 6.00469 9.251C6.00469 10.714 7.06969 12.127 7.21769 12.325C7.36669 12.523 9.31269 15.525 12.2937 16.812C13.0027 17.118 13.5567 17.301 13.9877 17.438C14.6997 17.664 15.3477 17.632 15.8597 17.556C16.4307 17.471 17.6177 16.837 17.8657 16.143C18.1137 15.448 18.1137 14.853 18.0387 14.729Z" fill="#000000"/>
</svg>
