<svg width="28" height="28" viewBox="0 0 28 28" fill="none" xmlns="http://www.w3.org/2000/svg">
<path d="M0 13.44C0 7.1043 0 3.93648 1.96824 1.96824C3.93648 0 7.1043 0 13.44 0H14.56C20.8957 0 24.0635 0 26.0318 1.96824C28 3.93648 28 7.1043 28 13.44V14.56C28 20.8957 28 24.0635 26.0318 26.0318C24.0635 28 20.8957 28 14.56 28H13.44C7.1043 28 3.93648 28 1.96824 26.0318C0 24.0635 0 20.8957 0 14.56V13.44Z" fill="#FF0000"/>
<path fill-rule="evenodd" clip-rule="evenodd" d="M20.2828 8.73443C20.9925 8.91881 21.5503 9.46011 21.7402 10.1489C22.0835 11.3961 22.0849 13.9999 22.0849 13.9999C22.0849 13.9999 22.0849 16.6037 21.7402 17.8509C21.5503 18.5397 20.9925 19.081 20.2828 19.2654C18.9977 19.5999 13.8424 19.5999 13.8424 19.5999C13.8424 19.5999 8.68717 19.5999 7.40208 19.2654C6.69237 19.081 6.13464 18.5397 5.94466 17.8509C5.59998 16.6037 5.59998 13.9999 5.59998 13.9999C5.59998 13.9999 5.59998 11.3961 5.94466 10.1489C6.13464 9.46011 6.69237 8.91881 7.40208 8.73443C8.68717 8.3999 13.8424 8.3999 13.8424 8.3999C13.8424 8.3999 18.9977 8.3999 20.2828 8.73443ZM16.4753 14L12.1926 16.3996V11.6003L16.4753 14Z" fill="white"/>
</svg>
