<svg width="20" height="20" viewBox="0 0 20 20" fill="none" xmlns="http://www.w3.org/2000/svg">
  <path d="M10.7256 1.06181L13.1368 5.94817C13.254 6.18699 13.483 6.3521 13.7458 6.39028L19.1383 7.17419C19.4428 7.21858 19.6958 7.43165 19.7908 7.72374C19.8858 8.01672 19.8068 8.33808 19.5866 8.55203L15.6848 12.3552L15.6839 12.3561C15.4939 12.5417 15.4069 12.8089 15.4522 13.0708L16.3737 18.4419C16.4261 18.7455 16.3001 19.0518 16.0515 19.232C15.8029 19.4131 15.4726 19.4371 15.2001 19.2942L10.3767 16.7587L10.3776 16.7578C10.1414 16.6344 9.86088 16.6344 9.62472 16.7578L4.80222 19.2942C4.52968 19.4371 4.19943 19.4132 3.95084 19.2321C3.70225 19.0518 3.57709 18.7456 3.62945 18.4419L4.55097 13.0708L4.55009 13.0717C4.59536 12.8089 4.50836 12.5417 4.31838 12.3561L0.415654 8.55203C0.195483 8.33808 0.116472 8.01669 0.211463 7.72374C0.306456 7.43165 0.559463 7.21858 0.863986 7.17419L6.25648 6.39028C6.51926 6.35211 6.74744 6.18698 6.86462 5.94817L9.27576 1.06181C9.41159 0.785717 9.6939 0.611694 10.0011 0.611694C10.3083 0.611694 10.5898 0.785697 10.7256 1.06181Z" fill="#000000"/>
</svg>
