<svg width="20" height="20" viewBox="0 0 20 20" fill="none" xmlns="http://www.w3.org/2000/svg">
<path fill-rule="evenodd" clip-rule="evenodd" d="M15.32 18.9825C15.5883 19.1725 15.9342 19.22 16.2425 19.1033C16.5508 18.9858 16.7775 18.7225 16.8458 18.4033C17.57 15 19.3267 6.38583 19.9858 3.29C20.0358 3.05667 19.9525 2.81417 19.7692 2.65833C19.5858 2.5025 19.3317 2.4575 19.105 2.54167C15.6108 3.835 4.85 7.8725 0.451663 9.5C0.172496 9.60333 -0.00917082 9.87167 -4.14861e-06 10.1658C0.00999585 10.4608 0.208329 10.7167 0.494162 10.8025C2.46666 11.3925 5.05583 12.2133 5.05583 12.2133C5.05583 12.2133 6.26583 15.8675 6.89666 17.7258C6.97583 17.9592 7.15833 18.1425 7.39916 18.2058C7.63916 18.2683 7.89583 18.2025 8.075 18.0333C9.08833 17.0767 10.655 15.5975 10.655 15.5975C10.655 15.5975 13.6317 17.78 15.32 18.9825ZM6.145 11.7517L7.54416 16.3667L7.855 13.4442C7.855 13.4442 13.2608 8.56833 16.3425 5.78917C16.4325 5.7075 16.445 5.57083 16.37 5.475C16.2958 5.37917 16.1592 5.35667 16.0567 5.42167C12.485 7.7025 6.145 11.7517 6.145 11.7517Z" fill="#000000"/>
</svg>
