<svg width="40" height="40" viewBox="0 2 80 82" xmlns="http://www.w3.org/2000/svg">
  <path d="M5.41 75.36l69.18 0c4.15,0 6.76,-4.49 4.68,-8.09l-34.59 -59.92c-2.09,-3.61 -7.27,-3.61 -9.36,0l-34.59 59.92c-2.08,3.6 0.53,8.09 4.68,8.09zm34.59 -9.81c-2.19,0 -3.96,-1.77 -3.96,-3.96 0,-2.19 1.77,-3.96 3.96,-3.96 2.19,0 3.96,1.77 3.96,3.96 0,2.19 -1.77,3.96 -3.96,3.96zm0 -40.07c3.06,0 5.54,2.49 5.54,5.55 0,3.06 -5.54,20.93 -5.54,20.93 0,0 -5.54,-17.87 -5.54,-20.93 0,-3.06 2.48,-5.55 5.54,-5.55z" fill="#000000"/>
</svg>
