<svg width="60" height="60" viewBox="0 0 60 60" fill="none" xmlns="http://www.w3.org/2000/svg">
<g clip-path="url(#clip0_1261_21463)">
<path d="M58.0961 27.6593L58.8278 25.5385C58.9021 25.2469 58.9021 25.0269 58.682 24.8068L57.3644 23.0518L57.7302 20.8567C57.8045 20.5652 57.6559 20.3451 57.5101 20.125L55.901 18.5873V16.3921C55.901 16.1006 55.7552 15.8805 55.5351 15.7347L53.7058 14.4914L53.34 12.2963C53.2657 12.0048 53.1199 11.7847 52.8998 11.7104L50.8505 10.8329L50.1188 8.71213C50.0444 8.42058 49.8272 8.27196 49.5328 8.2005L47.412 7.61456L46.3888 5.63954C46.2431 5.41946 46.023 5.27369 45.7314 5.19937L43.5363 4.97929L42.1472 3.22436C42.0015 3.00428 41.7071 2.93282 41.4155 2.93282L39.2204 3.07859L37.6112 1.61518C37.3911 1.46941 37.0996 1.3951 36.8795 1.3951L34.7587 1.90672L32.9295 0.734818C32.7094 0.589048 32.4179 0.589048 32.1978 0.660506L29.9998 1.75521L27.9504 0.87775C27.7303 0.731979 27.4388 0.803438 27.2187 0.952062L25.3895 2.12396L23.2687 1.61234C22.9771 1.53803 22.757 1.61234 22.537 1.83242L20.9278 3.29584L18.7327 3.15007C18.4411 3.15007 18.221 3.22438 18.001 3.44161L16.6119 5.19654L14.4168 5.41662C14.1252 5.41662 13.9051 5.56239 13.7594 5.85678L12.7362 7.76039L10.6154 8.34633C10.3238 8.42064 10.1752 8.63787 10.0294 8.85795L9.29773 10.9787L7.24837 11.8562C7.02828 12.002 6.8082 12.2221 6.8082 12.4421L6.44235 14.6373L4.61308 15.8806C4.393 16.0263 4.24722 16.3207 4.24722 16.538V18.7331L2.63805 20.2708C2.41797 20.4909 2.34651 20.711 2.41797 21.0026L2.78382 23.1977L1.46617 24.9526C1.3204 25.1727 1.24608 25.4642 1.3204 25.6843L2.0521 27.8051L1.02888 29.7801C0.883113 30.0002 0.883113 30.2917 1.02888 30.5118L2.0521 32.4869L1.3204 34.6076C1.24608 34.8992 1.24608 35.1193 1.46617 35.3393L2.78382 37.0943L2.41797 39.2894C2.34366 39.5809 2.49228 39.801 2.63805 40.0211L4.24722 41.5588V43.754C4.24722 44.0455 4.393 44.2656 4.61308 44.4114L6.44235 45.6547L6.8082 47.8498C6.88251 48.1413 7.02828 48.3614 7.24837 48.4357L9.29773 49.3132L10.0294 51.434C10.1038 51.7255 10.321 51.8741 10.6154 51.9456L12.7362 52.5315L13.7594 54.5066C13.9051 54.7267 14.1252 54.8724 14.4168 54.9467L16.6119 55.1668L18.001 56.9217C18.1467 57.1418 18.4411 57.2876 18.7327 57.2133L20.9278 57.0675L22.537 58.5309C22.757 58.6767 23.0486 58.751 23.2687 58.751L25.3895 58.2394L27.2187 59.4113C27.4388 59.5571 27.7303 59.5571 27.9504 59.4856L29.9998 58.6081L32.0492 59.4856C32.1235 59.5599 32.2692 59.5599 32.3407 59.5599C32.4865 59.5599 32.6322 59.4856 32.7809 59.4141L34.6101 58.2422L36.7309 58.7539C37.0225 58.8282 37.2425 58.7539 37.4626 58.5338L39.0718 57.0704L41.2669 57.2161C41.5585 57.2161 41.7785 57.1418 41.9986 56.9246L43.3877 55.1697L45.5828 54.9496C45.8744 54.9496 46.0944 54.8038 46.2402 54.5094L47.2634 52.6058L49.3842 52.0199C49.6758 51.9456 49.8244 51.7283 49.9701 51.5083L50.7019 49.3875L52.7512 48.51C52.9713 48.3642 53.1914 48.1442 53.1914 47.9241L53.5572 45.729L55.3865 44.4856C55.6066 44.3399 55.7524 44.0455 55.7524 43.8282V41.6331L57.3615 40.0954C57.5816 39.8753 57.6531 39.6552 57.5816 39.3637L57.2158 37.1685L58.5334 35.4136C58.6792 35.1935 58.7535 34.902 58.6792 34.6819L57.9475 32.5611L58.9707 30.5861C59.1165 30.366 59.1165 30.0745 58.9707 29.8544L58.0961 27.6593ZM56.5612 31.9038C56.4869 32.1238 56.4154 32.3439 56.4869 32.5611L57.1443 34.6105L55.8266 36.294C55.6808 36.4398 55.6065 36.7342 55.6808 36.9514L56.0467 39.0722L54.5089 40.5356C54.3632 40.6814 54.2174 40.9015 54.2174 41.1216V43.2423L52.4625 44.4142C52.2424 44.56 52.1709 44.7058 52.0966 44.9259L51.7308 47.0466L49.7557 47.7812C49.5357 47.8555 49.3899 48.0727 49.3156 48.2928L48.5839 50.2678L46.5345 50.7795C46.3144 50.8538 46.0943 50.9996 46.0229 51.1453L44.9997 53.0489L42.8789 53.269C42.6588 53.269 42.4387 53.4148 42.2929 53.5606L40.9753 55.2441L38.8545 55.0983C38.6344 55.0983 38.4143 55.1726 38.2686 55.3184L36.7308 56.7818L34.6814 56.2702C34.4614 56.1959 34.2413 56.2702 34.0241 56.3445L32.2691 57.5164L30.2941 56.6389C30.074 56.5646 29.8539 56.5646 29.6367 56.6389L27.6617 57.5164L25.9068 56.3445C25.761 56.2702 25.6152 56.1987 25.4666 56.1987H25.2465L23.1971 56.7103L21.6594 55.2469C21.5136 55.1012 21.2935 55.0268 21.0734 55.0268L18.9527 55.1726L17.635 53.4891C17.4892 53.3433 17.2692 53.1976 17.0491 53.1976L14.9283 52.9775L13.9022 51.2197C13.8279 50.9996 13.6107 50.8538 13.3906 50.8538L11.3412 50.3422L10.6095 48.3672C10.5352 48.1471 10.3894 48.0013 10.1694 47.927L8.19433 47.0496L7.82848 44.9288C7.75417 44.7087 7.68271 44.4886 7.46262 44.4172L5.7077 43.2453V41.1245C5.7077 40.9044 5.63339 40.6843 5.41616 40.5385L3.8784 39.0751L4.24425 36.9543C4.24425 36.7343 4.24425 36.5142 4.09848 36.297L2.78082 34.6134L3.43822 32.5641C3.51253 32.344 3.51253 32.1239 3.36391 31.9067L2.48644 30.0002L3.50966 28.0966C3.58398 27.8765 3.65543 27.6564 3.58398 27.4392L2.92658 25.3898L4.24424 23.7063C4.39001 23.5606 4.46432 23.2662 4.39001 23.0489L4.02416 20.9282L5.56191 19.4647C5.70768 19.319 5.85345 19.0989 5.85345 18.8788V16.758L7.60838 15.5861C7.82846 15.4404 7.89992 15.2946 7.97424 15.0745L8.34009 12.9537L10.3151 12.0763C10.5352 12.0019 10.681 11.7847 10.7553 11.5646L11.487 9.5896L13.5364 9.07798C13.7564 9.00367 13.9765 8.8579 14.048 8.71213L15.0712 6.80852L17.192 6.58843C17.4121 6.58843 17.6321 6.44266 17.7779 6.29689L19.0956 4.61338L21.2164 4.75915C21.4364 4.75915 21.6565 4.68484 21.8023 4.53907L23.34 3.07565L25.3894 3.58728C25.6095 3.66159 25.8296 3.58728 26.0468 3.51296L27.8017 2.34106L29.7768 3.21853C29.9968 3.29284 30.2169 3.29284 30.4342 3.21853L32.4092 2.34106L34.1641 3.51296C34.3842 3.65874 34.6043 3.65874 34.8215 3.58728L36.8709 3.07565L38.4086 4.53907C38.5544 4.68484 38.7745 4.75915 38.9946 4.75915L41.1153 4.61338L42.433 6.29689C42.5788 6.44266 42.7988 6.58843 43.0189 6.58843L45.1397 6.80852L46.0972 8.78069C46.1715 9.00077 46.3888 9.14654 46.6088 9.14654L48.6582 9.65816L49.3899 11.6332C49.4642 11.8533 49.61 11.999 49.8301 12.0734L51.8051 12.9508L52.171 15.0716C52.2453 15.2917 52.3167 15.5118 52.5368 15.5832L54.2917 16.7551V18.8759C54.2917 19.096 54.3661 19.3161 54.5833 19.4618L56.121 20.9253L55.7552 23.046C55.7552 23.2661 55.7552 23.4862 55.901 23.7034L57.2186 25.3869L56.5612 27.4363C56.4869 27.6564 56.4869 27.8765 56.6355 28.0937L57.6588 29.9973L56.5612 31.9038Z" fill="black"/>
<path d="M30.0001 6.8056C17.1952 6.8056 6.80566 17.1951 6.80566 30C6.80566 42.8049 17.1952 53.1944 30.0001 53.1944C42.8049 53.1944 53.1944 42.8049 53.1944 30C53.1944 17.1951 42.8049 6.8056 30.0001 6.8056ZM30.0001 51.5854C18.0725 51.5854 8.41469 41.9276 8.41469 30C8.41469 18.0724 18.0725 8.41463 30.0001 8.41463C41.9276 8.41463 51.5854 18.0724 51.5854 30C51.5854 41.9276 41.9276 51.5854 30.0001 51.5854Z" fill="black"/>
<path d="M30 24.6578C27.0732 24.6578 24.658 27.073 24.658 29.9999C24.658 32.9267 27.0732 35.3419 30 35.3419C32.9268 35.3419 35.3421 32.9267 35.3421 29.9999C35.3421 27.073 32.9268 24.6578 30 24.6578ZM30 33.6585C27.9506 33.6585 26.3415 31.975 26.3415 30C26.3415 27.9506 28.025 26.3415 30 26.3415C31.975 26.3415 33.6585 28.025 33.6585 30C33.6585 32.0494 32.0494 33.6585 30 33.6585Z" fill="black"/>
</g>
<defs>
<clipPath id="clip0_1261_21463">
<rect width="60" height="60" fill="white"/>
</clipPath>
</defs>
</svg>
