<svg width="60" height="60" viewBox="0 0 60 60" fill="none" xmlns="http://www.w3.org/2000/svg">
<g clip-path="url(#clip0_1261_21509)">
<path d="M45.0862 59.4594C45.483 59.8052 45.9912 59.9978 46.5203 60.0001C47.0146 59.9978 47.4973 59.8261 47.8802 59.5105L47.8918 59.5012H47.8895C54.5655 53.9481 58.2974 45.6245 58.0045 36.9477C57.5242 21.8152 44.5823 9.50515 29.1647 9.50515H28.3177V3.37683C28.32 2.28619 27.6796 1.29762 26.684 0.854393C25.6862 0.387961 24.5073 0.552723 23.6743 1.27441L3.55054 18.2978C2.93094 18.8199 2.57361 19.5903 2.57361 20.4002C2.57593 21.2101 2.93562 21.9782 3.55749 22.498L23.6628 39.5124C24.4959 40.2388 25.6794 40.4058 26.6818 39.9371C27.6797 39.4938 28.3201 38.5053 28.3178 37.4146V30.2978H29.8332H29.8308C34.4255 30.2816 38.8296 32.1171 42.0554 35.3891C45.2786 38.6587 47.0492 43.091 46.968 47.6831C46.9749 50.8577 46.165 53.979 44.6173 56.7473C44.0859 57.6453 44.2854 58.794 45.086 59.46L45.0862 59.4594ZM46.337 57.733C48.0565 54.6629 48.9545 51.2031 48.9499 47.6827C49.0381 42.5635 47.0587 37.6229 43.4618 33.9801C39.865 30.3368 34.9501 28.2948 29.8287 28.318H27.3272C26.7796 28.318 26.3363 28.7612 26.3363 29.3066V37.4167C26.3386 37.7299 26.153 38.013 25.8653 38.136C25.5636 38.2799 25.2062 38.2288 24.9579 38.0061L4.84131 20.9892C4.66031 20.8453 4.55589 20.6272 4.55356 20.3975C4.55356 20.1654 4.65567 19.9473 4.83435 19.8011L24.9605 2.77062L24.9628 2.77294C25.2111 2.55713 25.5638 2.5084 25.8632 2.64763C26.1532 2.77062 26.3412 3.05837 26.3366 3.3763V10.4955C26.3366 10.7577 26.441 11.0083 26.6266 11.194C26.8123 11.3797 27.0652 11.4841 27.3274 11.4841H29.17C43.5272 11.4841 55.5777 22.9334 56.0304 37.0078V37.0102C56.3019 45.0763 52.8327 52.8151 46.63 57.9787C46.5928 58.0088 46.5464 58.0251 46.5 58.0204C46.4513 58.0158 46.4095 57.9926 46.377 57.9578C46.2633 57.8603 46.3028 57.793 46.3376 57.7327L46.337 57.733Z" fill="black"/>
</g>
<defs>
<clipPath id="clip0_1261_21509">
<rect width="60" height="60" fill="white"/>
</clipPath>
</defs>
</svg>
